<?xml version="1.0" encoding="UTF-8"?>
<!DOCTYPE svg PUBLIC "-//W3C//DTD SVG 1.1//EN" "http://www.w3.org/Graphics/SVG/1.1/DTD/svg11.dtd">
<!-- Creator: CorelDRAW -->
<svg xmlns="http://www.w3.org/2000/svg" xml:space="preserve" width="656.519mm" height="691.444mm" version="1.1" style="shape-rendering:geometricPrecision; text-rendering:geometricPrecision; image-rendering:optimizeQuality; fill-rule:evenodd; clip-rule:evenodd"
viewBox="0 0 65651.94 69144.44"
 xmlns:xlink="http://www.w3.org/1999/xlink"
 xmlns:xodm="http://www.corel.com/coreldraw/odm/2003">
 <defs>
  <style type="text/css">
   <![CDATA[
    .fil2 {fill:white}
    .fil1 {fill:#61B22E}
    .fil0 {fill:#201351}
    .fil4 {fill:#61B22E;fill-rule:nonzero}
    .fil3 {fill:#201351;fill-rule:nonzero}
   ]]>
  </style>
 </defs>
 <g id="Warstwa_x0020_1">
  <metadata id="CorelCorpID_0Corel-Layer"/>
  <path class="fil0" d="M12790.21 12992.36l-67.96 -53.88c-162.03,-149.32 -382.14,-685.38 -668.87,-1061.99 -777.67,-1021.4 -1278.56,-1534.93 -2483.14,-2335.03 -228.72,-151.89 -373.39,-332.29 -744.04,-372.83 60.87,263.39 650.87,823.29 858.02,1083.64 403.86,507.65 1190.22,1899.32 1323.46,2445.08 419.41,1012.17 326.45,610.04 384.88,1382.99 77.9,1030.64 27.88,2060.35 -409.33,3027.97 -243.37,538.72 -634.41,1329.86 -1025.59,1809.19 -172.47,211.46 -495.28,401.14 84.77,401.14l5400.68 0c102.56,0 -1029.52,-2451.65 -1198.49,-2933.87 -76.57,-275.15 0,0 -178.99,-722.34 -5.32,-481.66 -70.12,-1272.7 44,-1692.09 41.68,-153.29 0,0 96.11,-321.61 27.32,-200.83 53.8,-222.15 96.19,-366.29 118.18,-401.2 337.38,-987.92 546.07,-1364.43 135.06,-243.7 45.88,-89.33 331.14,-652.31 203.72,-334.34 38.88,-66.1 360.15,-593.3 267.68,-339.75 506.84,-723.77 891.09,-1141.99 138.7,-117.38 416.4,-383.19 474.9,-528.41 -592.66,65.73 -2144.22,1415.84 -2452.25,1697.98 -556.3,509.55 -1439.47,1617.87 -1662.8,2292.38z"/>
  <path class="fil0" d="M110360.02 37442.32l-178.45 -141.49c-425.51,-392.14 -1003.53,-1799.86 -1756.51,-2788.86 -2042.21,-2682.27 -3357.57,-4030.82 -6520.87,-6131.93 -600.65,-398.88 -980.54,-872.61 -1953.91,-979.07 159.87,691.68 1709.23,2162 2253.22,2845.7 1060.57,1333.12 3125.59,4987.72 3475.5,6420.92 1101.4,2658.02 857.28,1602.02 1010.71,3631.83 204.57,2706.53 73.22,5410.61 -1074.92,7951.63 -639.1,1414.71 -1666,3492.29 -2693.27,4751.04 -452.92,555.32 -1300.64,1053.43 222.6,1053.43l14182.52 0c269.33,0 -2703.57,-6438.19 -3147.3,-7704.54 -201.07,-722.54 0,0 -470.03,-1896.89 -13.98,-1264.87 -184.15,-3342.21 115.53,-4443.54 109.46,-402.56 0,0 252.4,-844.56 71.75,-527.39 141.29,-583.38 252.59,-961.92 310.35,-1053.56 885.98,-2594.32 1434.02,-3583.07 354.68,-639.97 120.5,-234.59 869.61,-1713 534.97,-878 102.1,-173.59 945.77,-1558.04 702.93,-892.21 1330.99,-1900.68 2340.05,-2998.95 364.25,-308.23 1093.5,-1006.27 1247.11,-1387.63 -1556.36,172.61 -5630.85,3718.07 -6439.75,4458.99 -1460.87,1338.13 -3780.14,4248.64 -4366.62,6019.95z"/>
  <path class="fil1" d="M14436.24 6790.31c1148.21,-299.5 892.31,-734.7 1244.5,-1520.93 115.59,-257.94 314.05,-451.45 492.36,-655.67l-41.01 0c-287.13,75.9 -574.46,151.78 -861.59,227.67 -675.73,265.4 -1532.61,738.2 -1299.27,1557.34 47.85,167.98 155.87,304.64 205.23,455.36l27.25 0c-2.31,-197.35 244.71,-782.04 396.65,-883.4 -86.53,191.2 -173.26,382.47 -259.88,573.74l13.76 0 0 -18.21c27.25,-30.38 54.68,-60.7 82,-91.08 -22.27,121.87 -43.3,236.73 0,355.18z"/>
  <path class="fil1" d="M115768.83 21931.23c3015.27,-786.52 2343.25,-1929.38 3268.13,-3994.06 303.54,-677.36 824.71,-1185.54 1292.97,-1721.84l-107.7 0c-754.01,199.32 -1508.56,398.58 -2262.58,597.89 -1774.5,696.94 -4024.72,1938.54 -3411.97,4089.67 125.67,441.13 409.32,799.99 538.95,1195.8l71.56 0c-6.07,-518.26 642.62,-2053.68 1041.63,-2319.87 -227.22,502.11 -454.98,1004.4 -682.46,1506.69l36.14 0 0 -47.83c71.56,-79.77 143.58,-159.4 215.33,-239.18 -58.47,320.05 -113.71,621.66 0,932.73z"/>
  <path class="fil0" d="M14641.37 6070.85c17.84,24.78 6.04,17.51 -13.66,36.43 4.6,-12.18 9.06,-24.3 13.66,-36.43z"/>
  <path class="fil0" d="M116307.52 20041.89c46.84,65.07 15.85,45.98 -35.88,95.65 12.09,-31.99 23.79,-63.8 35.88,-95.65z"/>
  <path class="fil0" d="M14477.25 6334.96l0 54.6 -13.66 0c4.53,-18.19 9.13,-36.41 13.66,-54.6z"/>
  <path class="fil0" d="M115876.53 20735.44l0 143.39 -35.88 0c11.89,-47.78 23.98,-95.61 35.88,-143.39z"/>
  <path class="fil1" d="M11796.71 1344.18c127.64,-66.73 255.38,-133.53 383.01,-200.32 68.34,-127.48 136.78,-254.98 205.11,-382.47 59.2,-63.78 118.5,-127.55 177.81,-191.27l-41.02 0c-104.84,18.19 -209.73,36.41 -314.57,54.6 -421.61,116.75 -731,407.43 -424,719.46l13.66 0z"/>
  <path class="fil1" d="M108837.26 7629.36c335.19,-175.25 670.64,-350.67 1005.82,-526.05 179.45,-334.78 359.17,-669.61 538.62,-1004.4 155.47,-167.5 311.2,-334.96 466.93,-502.29l-107.7 0c-275.32,47.78 -550.77,95.61 -826.1,143.39 -1107.17,306.59 -1919.65,1069.92 -1113.45,1889.35l35.88 0z"/>
  <path class="fil2" d="M11906.16 1080.08c19.34,54.81 -48.46,191.92 -95.68,236.84l-13.77 0c-13.66,-12.16 -27.32,-24.34 -40.99,-36.46 50.15,-66.8 100.29,-133.58 150.44,-200.38z"/>
  <path class="fil2" d="M109124.68 6935.81c50.8,143.92 -127.26,504 -251.27,621.96l-36.15 0c-35.88,-31.94 -71.75,-63.93 -107.63,-95.74 131.68,-175.42 263.36,-350.8 395.05,-526.22z"/>
  <path class="fil1" d="M14313.13 2519.03c266.2,-184.28 547.31,-357.71 848.02,-519.07 100.22,-60.76 200.51,-121.46 300.79,-182.16 -254.54,257.47 -896.55,499.81 -1039.36,783.21l54.67 0c1056.88,-211.06 1174.91,-321.42 1463.39,-1038.19 54.68,-154.8 109.35,-309.73 164.02,-464.53 -572.67,493.89 -1554.44,360.54 -1777.84,1138.39 -21.14,73.65 -75,200.09 -13.69,300.56l0 -18.21z"/>
  <path class="fil1" d="M115445.54 10714.58c699.05,-483.94 1437.27,-939.37 2226.96,-1363.12 263.17,-159.54 526.53,-318.94 789.89,-478.35 -668.44,676.12 -2354.41,1312.52 -2729.43,2056.76l143.57 0c2775.43,-554.25 3085.37,-844.07 3842.96,-2726.37 143.57,-406.51 287.15,-813.36 430.72,-1219.86 -1503.86,1296.98 -4082.07,946.8 -4668.73,2989.48 -55.5,193.41 -196.96,525.43 -35.94,789.29l0 -47.83z"/>
  <path class="fil1" d="M12754.08 4477.06c-80.59,-285.95 -312.61,-505.07 -410.33,-801.43 -39.15,-118.8 42.16,-401.22 -13.6,-482.66 -960,601.4 -1213.07,1735.54 109.38,2222.16 -101.38,-180.98 -540.12,-1019.52 -396.6,-1265.94l13.69 0c9.93,315.27 333.19,1245.62 601.7,1338.75 -161.27,-356.58 198.99,-644.54 95.76,-1010.88z"/>
  <path class="fil1" d="M111351.38 15856.48c-211.63,-750.92 -820.95,-1326.34 -1077.57,-2104.59 -102.81,-311.99 110.73,-1053.63 -35.69,-1267.51 -2521.04,1579.33 -3185.6,4557.64 287.22,5835.54 -266.21,-475.28 -1418.37,-2677.32 -1041.5,-3324.45l35.95 0c26.1,827.92 875,3271.08 1580.12,3515.66 -423.52,-936.42 522.56,-1692.62 251.47,-2654.65z"/>
  <path class="fil1" d="M12152.37 2236.68c49.54,139.55 81.05,299.68 205.14,391.64l13.66 0c1.68,-359.65 282.07,-612.63 423.92,-892.5l13.66 0c-43.12,212.48 -338.53,561.38 -246.11,801.42l13.66 0c184.27,-17.14 337.02,-119.81 465.01,-182.1 689.57,-335.68 423.72,-709.06 670.14,-1311.47 57.69,-141.07 367.19,-504.29 355.46,-509.96 -195.97,54.6 -392.04,109.29 -588.02,163.9 -691.52,268.76 -1616.14,723.69 -1326.52,1539.07z"/>
  <path class="fil1" d="M109771.26 9973.12c130.09,366.46 212.82,786.96 538.69,1028.47l35.87 0c4.43,-944.48 740.74,-1608.81 1113.25,-2343.76l35.88 0c-113.24,557.98 -889,1474.21 -646.32,2104.58l35.88 0c483.92,-45.01 885.04,-314.63 1221.15,-478.22 1810.84,-881.51 1112.72,-1862.02 1759.83,-3443.99 151.5,-370.47 964.26,-1324.31 933.47,-1339.19 -514.64,143.39 -1029.54,287.01 -1544.18,430.4 -1815.99,705.78 -4244.08,1900.47 -3483.52,4041.71z"/>
  <path class="fil1" d="M13560.89 4859.6c4.63,-6.1 9.24,-12.19 13.77,-18.22 219.07,-214.02 260.6,-541.89 533.37,-719.44 -82.03,136.6 -164.12,273.19 -246.15,409.79 -29.56,88.01 6.22,137.89 -27.42,227.67l13.76 0c369.51,-91.54 722.15,-167.79 929.92,-364.27 265.04,-250.72 265.95,-650.12 423.93,-974.48 109.87,-225.37 343.51,-361.15 533.37,-528.24l-68.36 0c-220.03,66.15 -462.7,77.02 -670.15,136.65 -1074.51,308.84 -1648.69,844.93 -1436.04,1830.54z"/>
  <path class="fil1" d="M113470.12 16861.05c12.15,-16.01 24.24,-31.99 36.14,-47.83 575.29,-562.03 684.37,-1423.04 1400.66,-1889.29 -215.4,358.72 -430.99,717.4 -646.39,1076.12 -77.63,231.12 16.32,362.1 -72.01,597.89l36.14 0c970.34,-240.41 1896.4,-440.65 2442.03,-956.61 696,-658.4 698.38,-1707.24 1113.25,-2559.05 288.53,-591.83 902.08,-948.39 1400.66,-1387.19l-179.52 0c-577.8,173.71 -1215.06,202.26 -1759.83,358.85 -2821.74,811.03 -4329.58,2218.85 -3771.13,4807.11z"/>
  <path class="fil1" d="M17718.49 2300.45c-41.01,121.42 -82.1,242.88 -123.11,364.35 -124.97,202.66 -447,374.66 -355.57,701.22 50.15,178.98 175.05,310.74 246.22,464.48 9.06,-3.08 18.19,-6.1 27.43,-9.12 77.49,-230.69 154.96,-461.44 232.45,-692.13 18.19,-154.8 36.48,-309.72 54.67,-464.45l13.69 0c23.95,469.65 -145.4,785.05 -191.47,1183.89 592.22,-287.19 692.06,-746.45 355.57,-1256.84 -67.89,-102.84 -138.63,-223.66 -259.88,-291.4z"/>
  <path class="fil1" d="M124388.21 10140.58c-107.69,318.86 -215.59,637.8 -323.28,956.79 -328.19,532.21 -1173.84,983.9 -933.74,1841.47 131.69,470 459.67,816 646.59,1219.73 23.78,-8.09 47.76,-16.01 72.01,-23.93 203.5,-605.82 406.94,-1211.77 610.44,-1817.59 47.77,-406.5 95.81,-813.35 143.57,-1219.68l35.95 0c62.9,1233.33 -381.83,2061.6 -502.81,3108.98 1555.21,-754.18 1817.38,-1960.22 933.74,-3300.55 -178.27,-270.06 -364.06,-587.34 -682.47,-765.22z"/>
  <path class="fil1" d="M17827.93 4276.74c26.02,-86.36 180.98,-302.98 136.77,-346.07 -507.88,261.31 -993.65,279.99 -1230.91,746.82 -78.73,154.91 -54.14,454.7 82.1,555.48 76.34,-269.53 417.36,-718.97 683.8,-865.14 4.53,-9.11 9.16,-18.21 13.77,-27.37 -3.12,13.42 5.58,9.16 -13.77,27.37 -143.79,291.03 -516.76,466.28 -547.03,846.93 864,-101.9 719.23,-421.36 875.27,-938.02z"/>
  <path class="fil1" d="M124675.63 15330.43c68.32,-226.77 475.26,-795.63 359.16,-908.79 -1333.73,686.2 -2609.38,735.26 -3232.45,1961.19 -206.74,406.81 -142.18,1194.08 215.6,1458.73 200.46,-707.81 1096,-1888.06 1795.71,-2271.91 11.89,-23.93 24.05,-47.82 36.14,-71.89 -8.19,35.24 14.67,24.07 -36.14,71.89 -377.6,764.26 -1357.05,1224.48 -1436.54,2224.08 2268.92,-267.6 1888.74,-1106.52 2298.52,-2463.3z"/>
  <path class="fil1" d="M16487.65 3174.75l13.69 0c-2.32,-215.14 180.52,-624.69 273.54,-828.78l13.69 0c-14.85,213.49 -66.58,436.14 -68.44,683.09 198.89,-26.42 364.17,-138.95 492.34,-218.63 669.33,-415.7 187.29,-734.04 369.24,-1375.17 33.29,-117.1 284.64,-493.96 273.55,-500.88 -191.45,75.85 -382.89,151.8 -574.43,227.68 -527.79,255.22 -1349.07,813.32 -1121.39,1493.57 67.8,202.57 238.84,339.98 328.21,519.12z"/>
  <path class="fil1" d="M121155.96 12436.55l35.94 0c-6.07,-564.98 474.07,-1640.48 718.34,-2176.43l35.95 0c-38.99,560.63 -174.83,1145.33 -179.72,1793.82 522.3,-69.38 956.33,-364.88 1292.9,-574.13 1757.72,-1091.66 491.84,-1927.63 969.67,-3611.28 87.42,-307.5 747.48,-1297.16 718.34,-1315.33 -502.74,199.18 -1005.49,398.62 -1508.49,597.89 -1386,670.23 -3542.73,2135.82 -2944.84,3922.21 178.06,531.95 627.22,892.82 861.91,1363.25z"/>
  <path class="fil1" d="M16593.67 11024.63c223.4,-51.6 446.82,-103.26 670.12,-154.86 734.5,-219.82 910.59,-691.13 1094.14,-1284.09 34.37,-110.95 178.33,-585.57 123.03,-673.99 -441.31,561.33 -1572.38,696.81 -1955.65,1275.05 -97.02,146.34 -275.15,640.76 -68.43,819.63 89.11,-185.73 1071.34,-944.64 1312.93,-1065.53 -110.15,206.52 -426.14,356.24 -615.37,519.08 -209.2,180.04 -377.3,362.92 -560.77,564.71z"/>
  <path class="fil1" d="M121434.38 33050.82c586.66,-135.52 1173.38,-271.17 1759.77,-406.68 1928.85,-577.27 2391.28,-1814.94 2873.28,-3372.1 90.26,-291.36 468.32,-1537.75 323.09,-1769.93 -1158.9,1474.09 -4129.18,1829.86 -5135.66,3348.34 -254.77,384.32 -722.56,1682.68 -179.71,2152.41 234.02,-487.73 2813.42,-2480.69 3447.84,-2798.14 -289.26,542.33 -1119.06,935.5 -1615.99,1363.13 -549.39,472.8 -990.82,953.05 -1472.62,1482.97z"/>
  <path class="fil1" d="M22340.99 6225.67c13.69,-3.02 27.42,-6.1 41.11,-9.12 133.23,-131.51 332.14,-327.68 560.7,-391.57l0 9.05c-154.18,136.65 -349.55,246.05 -437.59,428.04 247.2,-64.25 518.25,-85.76 711.13,-182.1 257.59,-128.74 415.32,-359.84 615.37,-528.24 129.85,-109.22 309.16,-160.9 492.35,-236.78 -250.66,-3.08 -501.41,-6.1 -752.23,-9.11 -195.98,39.42 -392.05,78.91 -588.05,118.4 -330.98,99.17 -798.28,423.79 -642.79,801.43z"/>
  <path class="fil1" d="M136527.2 20448.44c35.94,-7.93 72.01,-16.02 107.96,-23.94 349.85,-345.35 872.22,-860.52 1472.42,-1028.29l0 23.76c-404.89,358.85 -917.94,646.16 -1149.13,1124.07 649.16,-168.73 1360.96,-225.23 1867.46,-478.22 676.45,-338.08 1090.66,-944.96 1616,-1387.18 341,-286.83 811.89,-422.53 1292.96,-621.79 -658.27,-8.1 -1316.75,-16.02 -1975.42,-23.94 -514.64,103.53 -1029.54,207.24 -1544.24,310.94 -869.18,260.43 -2096.34,1112.9 -1688.01,2104.59z"/>
  <path class="fil1" d="M15133.73 8793.89l13.67 0c959.58,-306.29 661.25,-569.18 888.93,-1302.35 27.78,-89.48 191.44,-482.67 191.44,-482.67 -563.71,374.97 -1712.43,691.62 -1449.63,1457.17 45.01,130.97 75.63,278.8 191.47,364.26 26.97,-207.92 549.32,-1056.18 724.81,-1165.7 -68.36,103.21 -136.79,206.47 -205.12,309.61 -160.66,271.71 -260.79,497.91 -355.57,819.68z"/>
  <path class="fil1" d="M117600.48 27192.76l35.89 0c2519.92,-804.34 1736.5,-1494.72 2334.39,-3420.06 72.95,-234.99 502.74,-1267.51 502.74,-1267.51 -1480.34,984.69 -4496.94,1816.22 -3806.81,3826.6 118.2,343.94 198.61,732.14 502.8,956.58 70.84,-546.02 1442.56,-2773.59 1903.41,-3061.21 -179.52,271.03 -359.23,542.2 -538.68,813.05 -421.88,713.53 -684.84,1307.56 -933.74,2152.55z"/>
  <path class="fil1" d="M23284.7 8211.05l-13.69 0c-447.07,142.1 -1034.56,118.74 -1066.71,537.34 231.67,-5.38 315.28,-112.61 478.69,-163.96 -121.24,112.47 -285.01,180.51 -465.11,254.98 4.63,6.09 9.23,12.17 13.77,18.2 625.93,7.5 975.45,-295.58 1053.05,-646.56z"/>
  <path class="fil1" d="M139005.44 25662.18l-35.95 0c-1174.03,373.15 -2716.82,311.82 -2801.26,1411.08 608.39,-14.13 827.95,-295.72 1257.08,-430.57 -318.39,295.36 -748.46,474.04 -1221.4,669.61 12.15,15.97 24.24,31.94 36.14,47.78 1643.74,19.71 2561.61,-776.22 2765.39,-1697.9z"/>
  <path class="fil1" d="M22340.99 4085.47l13.69 -9.1c-2.06,-243.93 -429.96,-632.9 -601.71,-810.52 297.77,104.38 435.91,523.61 697.57,673.87l13.56 0c24.86,-634.93 -413.79,-943.21 -1244.5,-1038.15l-13.66 9.1c78.65,74.47 178.41,135.48 232.45,227.63 253.17,431.06 144.42,855.74 902.6,947.17z"/>
  <path class="fil1" d="M136527.2 14828.14l35.94 -23.89c-5.41,-640.57 -1129.11,-1662.04 -1580.12,-2128.47 781.97,274.11 1144.71,1375.04 1831.86,1769.62l35.61 0c65.28,-1667.37 -1086.63,-2476.94 -3268.13,-2726.24l-35.87 23.89c206.54,195.57 468.51,355.77 610.43,597.76 664.82,1132 379.25,2247.23 2370.28,2487.33z"/>
  <path class="fil1" d="M19605.88 10342.07c4.53,12.18 9.05,24.36 13.58,36.47 307.18,14.78 687.36,30.14 943.69,-36.47 817.37,-212.25 1009.02,-906.63 1983.05,-1029.1 -206.89,-105.04 -990.11,-83.34 -1367.69,-81.92 -164.01,21.21 -328.23,42.49 -492.25,63.72 -543.74,112.94 -843.93,310.41 -1107.81,610.15 -73.67,83.81 -236.98,301.43 -150.36,446.31 9.04,-3.07 18.2,-6.08 27.25,-9.16 83.33,-169.63 594.94,-507.95 889.01,-528.17l0 9.09 -27.42 0c-63.73,42.51 -127.64,85 -191.47,127.51 185.16,-54.09 314.3,-160.13 519.78,-209.42 -13.76,12.11 -27.42,24.23 -41.01,36.41 -345.34,91.19 -825.9,353.39 -998.35,564.58z"/>
  <path class="fil1" d="M129344.62 31258.36c11.89,31.99 23.78,63.97 35.68,95.78 806.67,38.81 1805.03,79.16 2478.17,-95.78 2146.48,-557.38 2649.76,-2380.86 5207.62,-2702.48 -543.32,-275.83 -2600.08,-218.85 -3591.63,-215.11 -430.72,55.7 -861.97,111.58 -1292.7,167.32 -1427.88,296.6 -2216.19,815.17 -2909.16,1602.3 -193.46,220.08 -622.33,791.58 -394.85,1172.04 23.73,-8.06 47.78,-15.98 71.56,-24.07 218.83,-445.44 1562.34,-1333.91 2334.59,-1387.01l0 23.89 -72.01 0c-167.36,111.62 -335.19,223.2 -502.81,334.83 486.23,-142.03 825.37,-420.5 1364.98,-549.94 -36.14,31.81 -72.02,63.62 -107.7,95.61 -906.9,239.48 -2168.88,928.02 -2621.74,1482.62z"/>
  <path class="fil1" d="M24255.63 8102.16c33.29,96.12 48.74,204.73 123.11,267.17 -4.81,-381.21 246.4,-670.28 355.67,-979.8l13.65 0c-64.35,316.38 -221.1,573 -287.22,946.41l13.66 0c396.5,-156.24 624,-548.58 506.02,-1046.65 -33.64,-142.31 -30.09,-287.21 -136.77,-367.48 -49.51,459.61 -798.38,572.56 -588.12,1180.35z"/>
  <path class="fil1" d="M141555.16 25686.07c87.41,206.44 127.98,439.72 323.29,573.83 -12.62,-818.77 647.05,-1439.63 934,-2104.41l35.87 0c-169,679.51 -580.64,1230.69 -754.27,2032.69l35.87 0c1041.24,-335.58 1638.66,-1178.23 1328.84,-2247.98 -88.33,-305.65 -79.02,-616.86 -359.16,-789.28 -130.03,987.15 -2096.61,1229.75 -1544.44,2535.15z"/>
  <path class="fil1" d="M21670.88 8047.09l13.73 0c13.69,-6.1 27.35,-12.13 41.01,-18.21 211.6,-312.21 1063.7,-630.96 1613.75,-728.54 -9.06,9.1 -18.19,18.19 -27.25,27.31 -536.11,112.35 -1228.79,391.15 -1463.46,710.32 9.23,6.11 18.26,12.19 27.42,18.22 1124.13,150.3 1829.6,-383.36 2201.84,-783.16 58.96,-63.37 437.52,-466.06 382.92,-500.93 -447.98,220.22 -1150.05,158.93 -1764.18,282.3 -608.35,122.22 -978.84,500.32 -1025.78,992.69z"/>
  <path class="fil1" d="M134767.43 25231.61l36.07 0c35.95,-16.02 71.83,-31.86 107.7,-47.83 555.67,-819.87 2793.34,-1656.94 4237.81,-1913.19 -23.79,23.89 -47.77,47.78 -71.56,71.72 -1407.87,295.05 -3226.9,1027.19 -3843.15,1865.36 24.25,16.02 47.96,31.99 72.01,47.83 2952.04,394.71 4804.64,-1006.73 5782.18,-2056.63 154.81,-166.4 1148.93,-1223.9 1005.56,-1315.47 -1176.42,578.32 -3020.1,417.37 -4632.85,741.34 -1597.57,320.97 -2570.48,1313.88 -2693.77,2606.87z"/>
  <path class="fil1" d="M21411.14 5087.28c296.3,-124.49 592.58,-248.96 888.84,-373.38 -163.74,187.6 -688.58,241.33 -793.15,455.36 13.66,3.01 27.35,6.03 41.01,9.09 266.45,-43.68 501.95,-37.76 697.47,-118.39 207.97,-85.69 810.91,-555.9 670.14,-810.58 -236.63,204.44 -642.72,160.47 -1025.71,273.25 -278.52,81.98 -424.7,335.07 -478.6,564.65z"/>
  <path class="fil1" d="M134085.36 17458.95c778.08,-326.91 1556.14,-653.78 2334.14,-980.51 -430,492.66 -1808.26,633.76 -2082.86,1195.8 35.87,7.91 71.82,15.84 107.7,23.89 699.71,-114.71 1318.14,-99.17 1831.58,-310.9 546.16,-225.05 2129.51,-1459.83 1759.84,-2128.65 -621.41,536.87 -1687.82,421.42 -2693.57,717.58 -731.42,215.28 -1115.3,879.92 -1256.83,1482.79z"/>
  <path class="fil1" d="M18511.74 4477.06l0 -18.22c168.82,-186 204.15,-497.79 506.02,-591.94l0 9.15c-168.83,175.86 -325.32,355.72 -383.02,610.17l13.77 0c563.53,-196.76 557.67,-494.26 752.16,-910.78l-41.01 0c-565.67,225.27 -1135.5,270.3 -861.59,901.62l13.67 0z"/>
  <path class="fil1" d="M126471.34 15856.48l0 -47.83c443.34,-488.47 536.11,-1307.24 1328.84,-1554.47l0 24.02c-443.34,461.81 -854.31,934.14 -1005.82,1602.35l36.14 0c1479.89,-516.72 1464.5,-1297.97 1975.24,-2391.77l-107.7 0c-1485.5,591.56 -2981.9,709.83 -2262.58,2367.7l35.88 0z"/>
  <path class="fil1" d="M17814.27 5824.98c-324.87,531.96 -945.22,661.92 -697.49,1466.25 36.48,136.59 72.96,273.19 109.37,409.8 195.98,-270.12 392.05,-540.43 588.12,-810.54 95.41,-199.32 132.07,-412.03 191.44,-637.51 18.19,-133.54 36.49,-267.17 54.78,-400.69l13.66 0c17.13,670.85 -194.91,937.49 -451.35,1384.26 -72.96,154.82 -145.9,309.66 -218.87,464.48 175.12,-38.19 294.23,-131.23 424,-200.39 863.27,-459.85 932.34,-1210.62 437.59,-1958.01 -84.41,-127.55 -154.26,-260.13 -287.15,-355.18 -87.51,226.86 -49.97,450.52 -164.1,637.53z"/>
  <path class="fil1" d="M124639.75 19396.21c-853.12,1396.95 -2482.2,1738.25 -1831.65,3850.45 95.8,358.71 191.6,717.43 287.21,1076.16 514.64,-709.35 1029.54,-1419.18 1544.44,-2128.52 250.55,-523.41 346.81,-1082.02 502.74,-1674.15 47.77,-350.67 95.81,-701.6 143.84,-1052.23l35.88 0c44.99,1761.71 -511.86,2461.9 -1185.27,3635.17 -191.61,406.55 -383.15,813.18 -574.76,1219.73 459.86,-100.28 772.65,-344.6 1113.45,-526.22 2267,-1207.59 2448.37,-3179.17 1149.12,-5141.86 -221.66,-334.96 -405.08,-683.12 -754.07,-932.72 -229.8,595.74 -131.23,1183.08 -430.93,1674.19z"/>
  <path class="fil1" d="M9307.72 2109.2c98.27,-262.61 408.65,-825.02 670.14,-974.43 4.52,-9.12 9.05,-18.22 13.58,-27.31 -2.94,13.35 5.69,9.09 -13.58,27.31 -135.09,279.92 -532.57,534.49 -465.02,910.71 9.06,3.02 18.2,6.08 27.35,9.1 328.77,-69.99 698.1,-164.85 888.91,-327.87 285.37,-243.7 322.91,-589 478.7,-928.91 145.13,-316.76 351.67,-559.5 642.79,-774.13l-68.43 0c-209.66,45.52 -419.4,91.09 -629.03,136.6 -838.52,231.88 -1425.5,573.11 -1627.51,1238.58 -66.4,218.7 -92.49,536.92 54.77,719.49 9.06,-3.06 18.19,-6.07 27.33,-9.14z"/>
  <path class="fil1" d="M10524.89 615.62c-10.57,80.4 -270.55,290.16 -382.92,346.07 80.87,-139.71 255.28,-235.88 382.92,-346.07z"/>
  <path class="fil1" d="M105497.38 5716.12c-27.75,211.11 -710.48,761.97 -1005.56,908.79 212.36,-366.9 670.38,-619.45 1005.56,-908.79z"/>
  <path class="fil2" d="M10128.21 961.69c-2.92,13.42 5.69,9.17 -13.58,27.38 4.53,-9.12 9.05,-18.21 13.58,-27.38z"/>
  <path class="fil2" d="M104455.68 6624.91c-7.66,35.25 14.94,24.07 -35.67,71.9 11.89,-23.94 23.78,-47.83 35.67,-71.9z"/>
  <path class="fil1" d="M20549.48 7163.69c72.95,-72.83 145.84,-145.7 218.8,-218.58 227.57,-240.04 482.75,-487.16 629.11,-774.06l13.75 0c-96.84,432.13 -728.61,736.93 -779.66,1092.82l13.76 0c716.46,-180.57 1182.38,-539.7 998.39,-1275 -42.17,-168.1 -27.17,-344.71 -123.14,-482.65 -172.72,494.06 -843.82,624.4 -1039.36,992.69 -64.72,121.76 -18.9,586.87 68.35,664.78z"/>
  <path class="fil1" d="M131822.59 22911.74c191.55,-191.26 382.96,-382.61 574.56,-574.01 597.63,-630.36 1267.73,-1279.3 1652.08,-2032.73l36.13 0c-254.31,1134.81 -1913.38,1935.23 -2047.44,2869.81l36.14 0c1881.47,-474.18 3105,-1417.28 2621.82,-3348.21 -110.74,-441.44 -71.36,-905.23 -323.37,-1267.47 -453.58,1297.43 -2215.93,1639.7 -2729.43,2606.87 -169.94,319.75 -49.62,1541.14 179.51,1745.74z"/>
  <path class="fil1" d="M20371.68 2928.88c-48.99,88.18 -91.76,229.15 -54.75,318.76 30.87,74.59 183.9,161.48 150.53,236.72 -150.53,100.18 -300.99,200.44 -451.34,300.57 -525.63,437.02 -1189.73,1002.49 -697.57,1757.7 89.64,137.47 189.96,295.35 355.67,382.47 -15.53,-459.73 46.69,-1603.44 410.26,-1784.95 -222.97,441.94 -507.01,1158.3 -232.48,1684.83 9.15,-6.08 18.21,-12.18 27.34,-18.21 897.9,-280.64 654.25,-1064.97 506.02,-1757.71 -59.55,-278.63 198.9,-484.02 164.12,-692.13 83.51,25.47 110.41,126.9 150.44,182.1l0 -18.19c308.54,-234.43 -80.51,-501.23 -328.24,-591.96z"/>
  <path class="fil1" d="M131355.66 11790.88c-128.64,231.56 -240.97,601.76 -143.77,837.07 81.06,195.88 482.92,424.06 395.31,621.65 -395.31,263.07 -790.42,526.36 -1185.27,789.3 -1380.32,1147.65 -3124.29,2632.61 -1831.85,4615.84 235.41,361.01 498.84,775.61 934,1004.4 -40.77,-1207.28 122.62,-4210.75 1077.37,-4687.39 -585.53,1160.55 -1331.42,3041.76 -610.51,4424.46 24.05,-15.97 47.84,-31.99 71.82,-47.83 2357.92,-736.97 1718.08,-2796.68 1328.84,-4615.85 -156.39,-731.69 522.31,-1271.07 430.99,-1817.58 219.3,66.88 289.92,333.25 395.05,478.22l0 -47.78c810.24,-615.63 -211.43,-1316.26 -861.98,-1554.51z"/>
  <path class="fil1" d="M20166.57 2318.66c-4.63,6.08 -9.16,12.18 -13.68,18.22 -531.21,140.67 -1089.87,567.52 -1367.61,892.5 259.8,-40.97 598.16,-52.31 806.84,-136.6 334,-134.83 522.25,-484.92 738.57,-701.23 102.61,-102.68 296.26,-173.78 382.89,-273.21l-601.68 0c-159.59,21.23 -319.18,42.44 -478.77,63.72 -495.46,101.2 -805.06,260.44 -970.96,582.86 -45.09,87.59 -129.32,357.48 -40.99,446.31 162.23,-223.84 1160.79,-820.46 1545.39,-892.57z"/>
  <path class="fil1" d="M130817.04 10188.4c-12.16,15.97 -24.05,31.99 -35.94,47.83 -1394.99,369.41 -2862.05,1490.36 -3591.42,2343.76 682.26,-107.58 1570.8,-137.36 2118.8,-358.72 877.11,-354.06 1371.46,-1273.41 1939.55,-1841.47 269.44,-269.63 778,-456.36 1005.48,-717.45l-1580.05 0c-419.09,55.75 -838.18,111.45 -1257.28,167.33 -1301.1,265.75 -2114.12,683.92 -2549.79,1530.63 -118.41,230.02 -339.62,938.75 -107.64,1172.03 426.03,-587.82 3048.31,-2154.57 4058.29,-2343.94z"/>
  <path class="fil1" d="M18798.97 8602.62c515.68,-120.45 607.82,-627.05 492.33,-1056.41 -36.3,-134.99 19.9,-389.04 -109.42,-464.45 -195.82,429.35 -1148.99,680.6 -806.84,1320.49 61.94,115.91 118.93,237.85 246.14,309.66l13.56 0c43.68,-389.93 167.85,-662.1 314.58,-956.21l27.43 0 0 9.09c-83.89,146.05 -337.48,705.62 -177.78,837.83z"/>
  <path class="fil1" d="M127225.62 26690.47c1354.21,-316.31 1596.17,-1646.69 1292.9,-2774.2 -95.34,-354.5 52.26,-1021.65 -287.34,-1219.68 -514.25,1127.5 -3017.33,1787.31 -2118.81,3467.7 162.66,304.38 312.32,624.61 646.38,813.18l35.61 0c114.71,-1023.98 440.77,-1738.73 826.1,-2511.08l72.03 0 0 23.89c-220.29,383.53 -886.23,1853 -466.87,2200.19z"/>
  <path class="fil1" d="M20090.35 12955.68c-458.9,-418.24 -516.84,-906.52 -1641.07,-901.61 -50.15,9.16 -100.31,18.26 -150.46,27.36l0 36.43c337.37,206.44 674.67,412.84 1012.04,619.24 -314.3,-79.15 -928.08,-614.47 -1176.16,-591.95 -1.24,853.44 1116.69,999.37 2297.62,1065.57 -9.23,-9.16 -18.26,-18.19 -27.42,-27.36 -137.12,-45.34 -226.77,-147.71 -314.55,-227.68z"/>
  <path class="fil1" d="M130616.87 38121.88c-1205.09,-1098.34 -1357.25,-2380.59 -4309.56,-2367.7 -131.68,24.07 -263.42,47.96 -395.11,71.85l0 95.66c885.96,542.14 1771.73,1084.16 2657.69,1626.18 -825.38,-207.85 -2437.21,-1613.65 -3088.68,-1554.51 -3.24,2241.2 2932.49,2624.42 6033.71,2798.26 -24.25,-24.06 -47.96,-47.78 -72.01,-71.84 -360.09,-119.07 -595.51,-387.9 -826.04,-597.9z"/>
  <path class="fil1" d="M636.99 8311.22c108.99,49.9 399.94,176.38 588.12,127.44 -9.14,-3.01 -18.2,-6.03 -27.36,-9.05 -100.46,-91.61 -219.39,-178.2 -287.22,-291.44 27.34,15.19 54.77,30.38 82.12,45.51 38.07,62.59 128.59,108.82 205.1,145.76 97.12,-81.16 36.49,-334.84 -13.65,-418.95 -154.37,-258.4 -590.79,-345.95 -875.25,-519.12 -77.6,-69.82 -155.07,-139.69 -232.56,-209.42 -87.71,522.02 81.85,909.94 560.7,1129.27z"/>
  <path class="fil1" d="M79531.14 25925.24c286.22,131.04 1050.28,463.18 1544.44,334.66 -23.99,-7.92 -47.78,-15.84 -71.83,-23.76 -263.82,-240.58 -576.14,-467.97 -754.27,-765.35 71.81,39.9 143.83,79.77 215.65,119.5 99.97,164.37 337.7,285.77 538.62,382.78 255.04,-213.13 95.8,-879.31 -35.87,-1100.18 -405.36,-678.59 -1551.44,-908.49 -2298.45,-1363.25 -203.78,-183.35 -407.21,-366.82 -610.71,-549.94 -230.33,1370.86 214.93,2389.56 1472.42,2965.54z"/>
  <path class="fil1" d="M910.53 6799.41l0 -27.31c-100.29,-118.39 -200.58,-236.78 -300.89,-355.16 9.16,3 18.29,6.08 27.35,9.09 118.58,88.01 237.08,176.08 355.66,264.09l13.56 0c8.71,-342.82 -245.94,-367.93 -492.26,-528.24 -50.14,-51.6 -100.29,-103.19 -150.43,-154.79 -67.28,353.57 -22.65,779.13 547.01,792.32z"/>
  <path class="fil1" d="M80249.48 21955.12l0 -71.72c-263.37,-310.89 -526.74,-621.79 -790.16,-932.68 24.05,7.88 48.03,15.97 71.82,23.89 311.4,231.12 622.6,462.38 933.99,693.51l35.62 0c22.86,-900.26 -645.86,-966.21 -1292.71,-1387.19 -131.68,-135.51 -263.36,-270.98 -395.04,-406.5 -176.68,928.5 -59.47,2046.06 1436.48,2080.69z"/>
  <path class="fil0" d="M582.31 6371.37c4.53,9.14 9.13,18.19 13.67,27.35l-13.67 0 0 -27.35z"/>
  <path class="fil0" d="M79387.56 20831.05c11.89,24.02 23.98,47.78 35.88,71.84l-35.88 0 0 -71.84z"/>
  <path class="fil1" d="M2018.36 9813.9c-9.16,-9.1 -18.3,-18.22 -27.35,-27.31 -296.37,-154.87 -592.73,-309.66 -889.01,-464.46 364.62,145.7 729.41,291.4 1094.14,437.14 -141.93,-702.18 -771.87,-656.37 -1668.5,-837.87 -164.12,-51.61 -328.24,-103.21 -492.36,-154.82 312.26,405.36 928.79,1262.04 1983.08,1047.32z"/>
  <path class="fil1" d="M83158.7 29871.35c-24.05,-23.89 -48.04,-47.83 -71.82,-71.72 -778.27,-406.68 -1556.53,-813.18 -2334.6,-1219.69 957.52,382.62 1915.5,765.23 2873.28,1147.97 -372.71,-1843.98 -2026.96,-1723.69 -4381.57,-2200.32 -430.99,-135.52 -861.99,-271.04 -1292.97,-406.55 820.02,1064.5 2439.06,3314.2 5207.68,2750.31z"/>
  <path class="fil2" d="M1047.32 9294.77l0 9.15 -13.69 0c-56.7,-22.33 -106.67,-40.6 -136.77,-81.98 50.15,24.24 100.32,48.59 150.46,72.83z"/>
  <path class="fil2" d="M80608.7 28508.09l0 24.03 -35.94 0c-148.92,-58.65 -280.14,-106.61 -359.17,-215.29 131.69,63.67 263.44,127.6 395.11,191.26z"/>
  <path class="fil1" d="M732.74 10159.96l54.68 0c50.17,36.41 100.31,72.88 150.45,109.29l13.67 0c66.39,-388.32 -133.85,-346.42 -478.57,-519.12 -68.44,-48.54 -136.8,-97.13 -205.24,-145.7 -13.83,374.85 115.84,652.71 560.8,710.33 -31.95,-51.59 -63.91,-103.2 -95.79,-154.8z"/>
  <path class="fil1" d="M79782.6 30780.14l143.58 0c131.75,95.61 263.43,191.39 395.11,287l35.88 0c174.36,-1019.75 -351.5,-909.72 -1256.76,-1363.25 -179.72,-127.47 -359.23,-255.06 -538.95,-382.61 -36.34,984.38 304.2,1714.05 1472.68,1865.36 -83.91,-135.47 -167.82,-270.99 -251.54,-406.5z"/>
  <path class="fil1" d="M1553.34 7537.11c218.7,757.21 628.5,1186.33 1777.85,1311.4 -9.06,-6.09 -18.19,-12.11 -27.35,-18.21 -70.73,-106.09 -225.54,-169.46 -328.21,-254.99 -200.51,-167.14 -459.08,-360.84 -588.05,-564.63 18.19,9.1 36.48,18.2 54.68,27.29 122.05,183.72 629.13,542.55 875.27,655.75 10.29,-901.97 -327.72,-1031.48 -1066.72,-1420.69 -279.43,-147.24 -408.3,-357.6 -629.13,-546.44 -119.21,228.5 -145.58,543.36 -68.34,810.52z"/>
  <path class="fil1" d="M81937.55 23892.38c574.3,1988.47 1650.48,3115.36 4668.73,3443.81 -23.79,-16.01 -47.77,-31.81 -71.82,-47.82 -185.73,-278.6 -592.27,-445.01 -861.91,-669.62 -526.53,-438.93 -1205.56,-947.6 -1544.24,-1482.75 47.77,23.89 95.8,47.78 143.58,71.67 320.51,482.45 1652.13,1424.77 2298.51,1722.02 27.03,-2368.62 -860.59,-2708.73 -2801.26,-3730.82 -733.8,-386.65 -1072.22,-939.06 -1652.14,-1434.97 -313.04,600.06 -382.29,1426.88 -179.45,2128.48z"/>
  <path class="fil2" d="M1744.79 7045.35c33.91,21.87 457.64,741.73 492.36,810.52 -18.22,-9.15 -36.49,-18.26 -54.78,-27.36 -124.26,-211.01 -489.16,-511.22 -437.58,-783.16z"/>
  <path class="fil2" d="M82440.29 22600.98c89.07,57.42 1201.79,1947.82 1292.97,2128.47 -47.83,-24.02 -95.81,-47.96 -143.84,-71.85 -326.33,-554.11 -1284.57,-1342.48 -1149.13,-2056.62z"/>
  <path class="fil1" d="M1238.77 5661.02l0 -18.21c151.06,-231.47 -92.49,-730.32 27.35,-956.22 9.13,3.02 18.26,6.03 27.32,9.05 21.66,314.43 116.72,700.22 54.77,1029.1l13.66 0 0 -18.21c583.24,-340.93 329.58,-1111.79 -232.55,-1366.07 -9.03,94.09 -18.19,188.25 -27.32,282.34 -128.87,316.35 -386.82,565.72 -68.37,892.45 58.08,59.65 92.49,122.29 205.14,145.77z"/>
  <path class="fil1" d="M81111.45 18965.64l0 -47.83c396.7,-607.84 -242.88,-1917.85 71.82,-2511.09 23.98,7.93 47.97,15.84 71.76,23.76 56.88,825.72 306.5,1838.83 143.83,2702.49l35.88 0 0 -47.83c1531.62,-895.29 865.48,-2919.62 -610.7,-3587.38 -23.72,247.09 -47.77,494.36 -71.76,741.46 -338.42,830.74 -1015.79,1485.61 -179.52,2343.63 152.5,156.63 242.88,321.14 538.69,382.79z"/>
  <path class="fil1" d="M3864.63 5378.67c-229.53,-296.72 -610.03,-518.91 -779.56,-874.25 9.03,3.01 18.19,6.03 27.32,9.11 87.71,173.48 539.84,648.74 765.83,719.44l0 -18.21c62.12,-85.76 54.75,-212.08 54.75,-336.97 0,-606.25 -639.5,-609.68 -1025.71,-938.07 -91.93,-78.14 -259.42,-324.62 -355.56,-373.38 -244.18,960.66 77.14,1643.28 1312.93,1812.33z"/>
  <path class="fil1" d="M88007.14 18224.17c-602.77,-779.21 -1601.98,-1362.68 -2047.18,-2295.84 23.72,7.91 47.77,15.84 71.75,23.93 230.33,455.57 1417.65,1703.63 2011.11,1889.3l0 -47.83c163.14,-225.22 143.78,-556.93 143.78,-884.9 0,-1592.04 -1679.36,-1601.06 -2693.57,-2463.43 -241.43,-205.21 -681.27,-852.47 -933.73,-980.51 -641.24,2522.75 202.57,4315.34 3447.84,4759.28z"/>
  <path class="fil1" d="M3071.39 11708.2c-369.16,-67.69 -804.53,25.3 -1148.82,63.72 -446.54,49.88 -809.13,-44.87 -1107.7,-109.29 93.62,141.73 312.06,240.03 451.25,355.16 676.61,559.74 1765.33,774.37 2830.97,318.78 -291.13,-244.24 -508.49,-533.57 -1025.7,-628.37z"/>
  <path class="fil1" d="M85924.02 34845.91c-969.42,-177.75 -2112.73,66.44 -3016.86,167.33 -1172.65,130.98 -2124.82,-117.83 -2908.89,-287 245.85,372.18 819.49,630.32 1185,932.68 1776.82,1469.91 4635.89,2033.53 7434.32,837.12 -764.53,-641.37 -1335.33,-1401.18 -2693.57,-1650.13z"/>
  <path class="fil2" d="M3973.98 12354.76c-97.37,31.33 -794.38,-100.24 -902.59,-145.7 -18.27,-3.01 -36.49,-6.08 -54.75,-9.09l54.75 0 0 9.09c314.57,42.51 629.12,85 943.6,127.51 -13.66,6.08 -27.35,12.16 -41.01,18.19z"/>
  <path class="fil2" d="M88294.29 36543.82c-255.7,82.28 -2086.09,-263.24 -2370.27,-382.61 -47.97,-7.92 -95.81,-15.97 -143.77,-23.89l143.77 0 0 23.89c826.1,111.63 1652.13,223.2 2477.97,334.83 -35.88,15.97 -71.82,31.94 -107.7,47.78z"/>
  <path class="fil1" d="M4028.75 6854.08c33.72,-88.18 -26.62,-200.6 -54.77,-282.35 -202.81,-589.88 -624.78,-559.03 -1230.81,-846.99 -156.95,-74.55 -215.98,-200.02 -355.59,-282.3 -117.52,738.78 464.66,1563.3 1641.17,1411.64z"/>
  <path class="fil1" d="M88438.13 22098.69c88.54,-231.57 -69.91,-526.8 -143.84,-741.47 -532.6,-1549.06 -1640.7,-1468.05 -3232.19,-2224.25 -412.16,-195.76 -567.16,-525.26 -933.79,-741.34 -308.62,1940.08 1220.22,4105.33 4309.82,3707.06z"/>
  <path class="fil2" d="M3659.5 6644.61c133.15,55.73 329.48,72.28 369.25,191.26 -9.15,3.01 -18.29,6.03 -27.42,9.11 -366.13,-111.83 -875.17,-394.6 -1025.7,-646.62 247.55,135.71 402.78,328.5 683.87,446.25z"/>
  <path class="fil2" d="M87468.45 21548.62c349.66,146.34 865.22,189.81 969.68,502.24 -24.05,7.92 -48.03,15.84 -72.02,23.94 -961.48,-293.69 -2298.26,-1036.26 -2693.56,-1698.08 650.08,356.39 1057.74,862.68 1795.9,1171.9z"/>
  <path class="fil1" d="M23667.59 10879.4c278.37,-63.06 416.65,-312.72 656.47,-409.78 -72.25,170.64 -329.04,292.35 -492.35,409.78 540.19,-43.26 858.84,-288.38 861.58,-683.03 0.63,-80.25 13.69,-183.46 -27.25,-236.78 -382.63,415.75 -915.1,202.5 -998.45,919.81z"/>
  <path class="fil1" d="M140010.92 32669.44c731.02,-165.62 1094.16,-821.24 1723.95,-1076.12 -189.75,448.12 -864.08,767.73 -1292.96,1076.12 1418.57,-113.61 2255.37,-757.31 2262.58,-1793.69 1.65,-210.75 35.93,-481.79 -71.56,-621.79 -1004.83,1091.78 -2403.12,531.76 -2622.01,2415.48z"/>
  <path class="fil1" d="M21944.41 10697.3c-132.16,6.03 -264.4,12.11 -396.57,18.21 -355.66,64.35 -739.91,241.38 -888.93,446.24 150.18,-23.41 948.94,3.86 1107.72,54.62 -192.6,-2.59 -1291.79,-17.61 -1367.6,63.79 330.53,103.54 531.41,279.1 957.27,364.26 1056.77,211.26 2251.03,-307.58 2694.3,-664.82l0 -9.1c-971.13,96.69 -1245.48,-231.23 -2106.19,-273.2z"/>
  <path class="fil1" d="M135485.76 32191.22c-347.07,15.84 -694.35,31.8 -1041.42,47.82 -934,169 -1943.05,633.89 -2334.4,1171.86 394.38,-61.47 2491.98,10.12 2908.96,143.44 -505.79,-6.82 -3392.34,-46.25 -3591.42,167.5 867.99,271.91 1395.51,732.93 2513.85,956.57 2775.16,554.78 5911.35,-807.72 7075.41,-1745.86l0 -23.89c-2550.26,253.92 -3270.71,-607.23 -5530.98,-717.44z"/>
  <path class="fil1" d="M8369.42 12444c164.12,-181.29 150.63,-430.36 246.24,-664.77 -4.63,-6.08 -9.15,-12.18 -13.69,-18.2 -165.52,60.4 -257.21,161.88 -396.57,236.71 -332.84,178.74 -654.95,353.05 -998.36,528.24 -216.4,110.36 -423.04,269.77 -697.56,336.97 211.87,-182.22 590.86,-302.27 875.35,-437.15 358.68,-170.11 760.92,-430.59 1025.7,-664.77l-341.9 0c-127.64,6.02 -255.38,12.12 -383.02,18.2 -205.03,23.82 -394.08,65.42 -547,127.43 -456.58,185.42 -624.35,596.03 -929.95,883.4 -145.83,109.3 -291.83,218.65 -437.66,327.88 -95.69,45.57 -191.47,91.14 -287.15,136.64 1138.17,-21.69 2441.24,-319.82 2885.57,-810.58z"/>
  <path class="fil1" d="M99836.99 36778.16c430.98,-476.07 395.57,-1130.15 646.65,-1745.73 -12.16,-15.97 -24.05,-31.99 -35.95,-47.79 -434.69,158.62 -675.46,425.12 -1041.43,621.62 -874.07,469.37 -1719.93,927.14 -2621.75,1387.19 -568.28,289.81 -1110.93,708.42 -1831.85,884.9 556.4,-478.53 1551.65,-793.78 2298.72,-1147.97 941.93,-446.72 1998.23,-1130.77 2693.57,-1745.74l-897.86 0c-335.18,15.8 -670.63,31.82 -1005.82,47.79 -538.42,62.56 -1034.88,171.81 -1436.47,334.65 -1199.01,486.93 -1639.58,1565.2 -2442.1,2319.87 -382.95,287.01 -766.36,574.18 -1149.32,861.01 -251.28,119.67 -502.81,239.35 -754.08,358.85 2988.91,-56.98 6410.85,-839.89 7577.69,-2128.65z"/>
  <path class="fil1" d="M23571.83 9139.96c-342.96,139.08 -499.71,458.96 -505.92,819.63 236.98,-130.5 474.14,-261.07 711.13,-391.59 -153.21,137.73 -431.55,257.96 -519.69,428.07 867.8,-1.78 1261.63,-419.25 1490.71,-856.11 58.15,-110.88 209.04,-367.51 136.7,-510.03 -250.29,315.04 -862.49,327.45 -1312.93,510.03z"/>
  <path class="fil1" d="M139759.45 28101.55c-900.63,365.23 -1312.26,1205.25 -1328.58,2152.41 622.33,-342.71 1245.13,-685.59 1867.47,-1028.34 -402.32,361.67 -1133.27,677.41 -1364.73,1124.12 2278.9,-4.66 3313.13,-1100.97 3914.71,-2248.19 152.7,-291.18 548.93,-965.11 358.98,-1339.37 -657.29,827.31 -2264.96,859.91 -3447.85,1339.37z"/>
  <path class="fil1" d="M23394.04 11981.39c-219.49,44.4 -342.25,182.57 -437.58,309.65 4.61,12.12 9.13,24.3 13.66,36.41 440.53,110.42 912.18,-131.5 930.02,-409.78l-27.32 0c-104.04,61.17 -326.48,32.92 -478.78,63.72z"/>
  <path class="fil1" d="M139292.58 35563.31c-576.41,116.6 -898.77,479.46 -1149.13,813.18 12.1,31.81 23.99,63.8 35.89,95.61 1156.85,289.96 2395.44,-345.34 2442.28,-1076.12l-71.75 0c-273.21,160.64 -857.35,86.46 -1257.29,167.33z"/>
  <path class="fil1" d="M15385.75 11972.15c88.39,197.83 93.72,404.53 232.53,564.63 418.41,482.62 1412.09,633.63 2530.1,646.58 -82.02,-54.62 -164.12,-109.22 -246.21,-163.91 -132.17,-127.48 -264.34,-254.99 -396.6,-382.47 -284.29,-310.31 -393.99,-648.34 -984.59,-755.92 -177.79,-9.1 -355.67,-18.19 -533.45,-27.31 -155.34,37.48 -335.34,8.4 -451.25,63.72 161,138.49 425.69,216.92 642.69,318.77 309.95,173.01 620,346.07 930.02,519.13 145.83,69.81 291.86,139.61 437.59,209.41 -293.97,-44.73 -499.08,-228.45 -711.13,-336.97 -463.25,-236.96 -934.47,-447.19 -1449.7,-655.66z"/>
  <path class="fil1" d="M118262.3 35539.07c232.11,519.49 246.12,1062.3 610.64,1482.75 1098.78,1267.38 3708.23,1663.94 6644.21,1697.96 -215.39,-143.44 -430.99,-286.83 -646.58,-430.44 -347.07,-334.79 -694.16,-669.62 -1041.49,-1004.4 -746.55,-814.9 -1034.63,-1702.57 -2585.6,-1985.09 -466.88,-23.89 -934,-47.78 -1400.87,-71.72 -407.93,98.43 -880.61,22.05 -1185.01,167.33 422.8,363.69 1117.88,569.65 1687.75,837.12 813.95,454.33 1628.15,908.79 2442.3,1363.25 382.95,183.34 766.44,366.64 1149.12,549.94 -771.98,-117.48 -1310.61,-599.92 -1867.46,-884.9 -1216.53,-622.27 -2453.98,-1174.37 -3807.01,-1721.8z"/>
  <path class="fil1" d="M8610.17 3994.39l0 -9.1c-209.56,-266.28 -554.66,-465.34 -711.15,-774.06 18.29,9.05 36.49,18.15 54.67,27.24 98.18,162.25 500.52,542.08 711.23,628.43 24.96,-199.19 172.73,-423.86 95.68,-673.93 -100.28,-325.75 -505.46,-496.91 -834.23,-673.94 -309.77,-166.79 -462.54,-408.43 -683.73,-637.46 -50.14,203.33 -100.39,406.77 -150.53,610.15 -192.08,853.21 611.11,1352.67 1518.06,1502.67z"/>
  <path class="fil1" d="M100469.22 14588.97l0 -23.9c-550.32,-699.27 -1456.57,-1222.01 -1867.53,-2032.73 48.03,23.76 95.81,47.65 143.57,71.54 257.81,426.08 1314.38,1423.53 1867.74,1650.3 65.53,-523.1 453.58,-1113.08 251.26,-1769.8 -263.36,-855.42 -1327.38,-1304.91 -2190.75,-1769.8 -813.48,-438 -1214.67,-1072.55 -1795.51,-1674.01 -131.69,533.96 -263.63,1068.2 -395.31,1602.29 -504.4,2240.59 1604.82,3552.19 3986.53,3946.11z"/>
  <path class="fil1" d="M4233.88 3985.29c-5.33,364.21 90.18,632.97 423.9,765.02 109.45,33.39 218.8,66.78 328.24,100.17 517.47,391.24 1028.45,773.6 1818.96,983.55 463.93,123.23 1365.92,95.92 1695.82,-91.03l0 -9.1c-428.53,-130.57 -857.05,-261.09 -1285.59,-391.63 464.94,109.27 930.03,218.56 1394.96,327.85l0 -27.31c-227.5,-315.86 -516.76,-649.81 -1053.05,-755.9 -509.57,-100.85 -1203.77,17.19 -1654.74,63.77 -303.03,31.26 -623.89,-49.36 -834.26,-91.08 -94.35,-254.87 -340.11,-237.68 -451.35,-428.05 175.85,85.46 332.87,251.48 560.7,291.45l0 -91.08c-149.9,-387.62 -348.47,-305.89 -738.48,-500.93 -68.33,-48.54 -136.77,-97.11 -205.11,-145.7z"/>
  <path class="fil1" d="M88976.81 14565.07c-14,956.45 236.81,1662.23 1113.19,2008.98 287.41,87.69 574.56,175.38 861.98,263.07 1358.91,1027.41 2700.77,2031.5 4776.69,2582.85 1218.3,323.61 3587,251.89 4453.33,-239.05l0 -23.89c-1125.34,-342.88 -2250.68,-685.63 -3376.03,-1028.46 1220.95,286.95 2442.3,573.96 3663.25,860.96l0 -71.72c-597.43,-829.46 -1357.06,-1706.44 -2765.39,-1985.04 -1338.16,-264.83 -3161.16,45.14 -4345.43,167.46 -795.78,82.1 -1638.39,-129.62 -2190.83,-239.18 -247.77,-669.3 -893.16,-624.16 -1185.27,-1124.07 461.78,224.43 874.14,660.41 1472.42,765.35l0 -239.17c-393.65,-1017.91 -915.09,-803.29 -1939.28,-1315.47 -179.45,-127.47 -359.17,-255.02 -538.63,-382.62z"/>
  <path class="fil1" d="M5191.15 3065.48c262.27,687.11 804.88,741.43 1709.59,983.58 -90.1,-142.15 -169.88,-254.15 -300.99,-364.26 -186.84,-127.55 -373.76,-255.06 -560.7,-382.54 418.42,180.4 701.04,397.9 943.71,701.23l13.66 0c7.63,-532.73 -221.36,-870.99 -738.58,-1074.61 -214.16,-57.68 -428.52,-115.37 -642.69,-173.07 -189.4,-75.72 -317.59,-182.58 -478.67,-273.19 47.2,184.65 -11.47,409.67 54.67,582.86z"/>
  <path class="fil1" d="M91490.66 12149.59c688.74,1804.39 2113.65,1947.03 4489.48,2582.94 -236.6,-373.28 -446.12,-667.41 -790.42,-956.57 -490.66,-334.96 -981.51,-669.79 -1472.42,-1004.58 1098.78,473.74 1840.97,1044.93 2478.24,1841.48l35.87 0c20.02,-1398.98 -581.3,-2287.27 -1939.55,-2821.98 -562.4,-151.49 -1125.34,-302.98 -1687.75,-454.51 -497.39,-198.83 -834.02,-479.45 -1257.02,-717.4 123.95,484.91 -30.13,1075.82 143.57,1530.62z"/>
  <path class="fil1" d="M11618.93 9640.84c9.16,-3.02 18.29,-6.04 27.35,-9.12 90.8,-1154.76 -577.03,-1055.99 -1531.65,-1520.91 -207.6,-101.01 -423.3,-252.63 -574.44,-391.59 -63.83,-72.82 -127.64,-145.7 -191.47,-218.58 -29.01,1255.54 622.92,2138.35 2311.32,2285.95 -9.16,-9.1 -18.29,-18.27 -27.42,-27.32 -73.42,-96.1 -266.02,-157.09 -382.92,-227.67 -62.74,-37.94 -59.12,-88.42 -109.45,-136.65 -183.11,-175.49 -469.26,-306.65 -601.7,-519.13 13.66,6.08 27.35,12.17 41.01,18.2 210.54,319.24 732.54,490.59 1039.37,746.82z"/>
  <path class="fil1" d="M108370.4 29416.88c24.05,-7.91 48.03,-15.84 71.82,-23.93 238.46,-3032.47 -1515.3,-2773.1 -4022.21,-3994.02 -545.17,-265.26 -1111.6,-663.41 -1508.5,-1028.33 -167.63,-191.22 -335.19,-382.61 -502.81,-574 -76.18,3297.11 1635.82,5615.44 6069.66,6003.03 -24.05,-23.89 -48.04,-47.96 -72.02,-71.72 -192.8,-252.37 -698.58,-412.53 -1005.56,-597.89 -164.77,-99.62 -155.26,-232.19 -287.41,-358.86 -480.87,-460.84 -1232.31,-805.26 -1580.11,-1363.25 35.87,15.97 71.81,31.94 107.7,47.78 552.88,838.35 1923.68,1288.32 2729.44,1961.19z"/>
  <path class="fil1" d="M10894.11 4540.83c484.92,-504.35 71.28,-943.04 -95.76,-1457.15 -43.32,-133.52 82.1,-673.94 82.1,-673.94 -150.43,97.18 -300.89,194.29 -451.35,291.46 -594.68,509.56 -989.22,1241.47 -328.21,1885.2 118.48,115.39 266.37,269.41 465.01,327.8 -63.48,-114.72 -212.58,-859.41 -123.11,-1010.89 40.99,206.45 82.1,412.92 123.11,619.32 27.85,73.05 102.85,151.12 82,227.68 120.36,-36.95 177,-137.43 246.21,-209.48z"/>
  <path class="fil1" d="M106466.98 16023.94c1273.42,-1324.45 187.19,-2476.47 -251.46,-3826.56 -113.78,-350.63 215.59,-1769.8 215.59,-1769.8 -395.04,255.19 -790.15,510.21 -1185.27,765.4 -1561.68,1338.13 -2597.76,3260.16 -861.91,4950.63 311.14,303.02 699.51,707.5 1221.14,860.83 -166.69,-301.25 -558.24,-2256.86 -323.29,-2654.65 107.64,542.15 215.6,1084.34 323.29,1626.37 73.15,191.83 270.11,396.86 215.34,597.89 316.08,-97.02 464.81,-360.88 646.57,-550.11z"/>
  <path class="fil1" d="M7817 1744.92c234.41,-151.78 475.4,-465.64 588.04,-683.03l27.32 0 0 9.16c-148.11,265.14 -332.84,485.62 -505.99,728.54 491.45,-96.88 804.6,-434.78 683.8,-901.61 -25.13,-97.47 -17.84,-177.97 -95.68,-236.83 -205.84,344.88 -1045.96,533.55 -697.49,1101.96l0 -18.19z"/>
  <path class="fil1" d="M98386.3 8681.72c615.58,-398.59 1248.42,-1222.81 1544.23,-1793.69l71.75 0 0 24.06c-388.96,696.28 -874.06,1275.26 -1328.77,1913.2 1290.59,-254.41 2112.92,-1141.77 1795.71,-2367.7 -66.01,-255.94 -46.85,-467.36 -251.27,-621.92 -540.54,905.67 -2746.76,1401.13 -1831.65,2893.83l0 -47.78z"/>
  <path class="fil1" d="M4589.45 3903.31c-149.2,-150.54 -651.6,-950.2 -492.36,-1220.32l0 18.21c54.67,170 109.45,339.99 164.12,510.03 111.76,238.25 354.51,485.73 369.25,719.44 18.26,6.03 36.48,12.12 54.67,18.21 6.29,-267.75 191.02,-536.33 82.1,-801.42 -92.14,-224.26 -351.76,-412.8 -506.02,-610.22 -59.28,-121.4 -118.58,-242.87 -177.78,-364.28 -489.34,660.29 -584.93,1415.72 506.02,1730.35z"/>
  <path class="fil1" d="M89910.55 14349.79c-391.81,-395.33 -1711.14,-2495.29 -1292.96,-3204.64l0 47.83c143.57,446.41 287.41,892.82 430.98,1339.36 293.49,625.66 930.96,1275.56 969.68,1889.3 47.96,15.84 95.8,31.81 143.57,47.82 16.52,-703.14 501.62,-1408.43 215.59,-2104.58 -241.95,-588.92 -923.75,-1084.03 -1328.84,-1602.47 -155.66,-318.81 -311.4,-637.8 -466.87,-956.62 -1285.03,1733.94 -1536.04,3717.75 1328.85,4544z"/>
  <path class="fil1" d="M8596.59 6553.52c-200.33,49.59 -505.92,8.86 -656.48,91.09 998.56,120.92 1085.81,1043.88 2407,774.11 -111.84,-190.85 -946.56,-415.22 -1176.17,-564.64 521.65,95.87 922.93,349.9 1340.29,528.17l0 -63.72c-280.06,-567.36 -760.25,-772.52 -1914.64,-765.01z"/>
  <path class="fil1" d="M100433.54 21309.4c-526.07,130.23 -1328.58,23.27 -1723.96,239.22 2622.28,317.54 2851.41,2741.29 6320.93,2032.86 -293.69,-501.19 -2485.7,-1090.41 -3088.68,-1482.79 1369.88,251.76 2423.66,918.86 3519.67,1387.01l0 -167.33c-735.45,-1489.92 -1996.44,-2028.68 -5027.96,-2008.97z"/>
  <path class="fil1" d="M6093.83 2336.88c-49.09,-168.47 348.21,-551.37 505.92,-628.37 -82,81.91 -164.02,163.96 -246.12,245.88 -92.59,104.49 -101.97,234.66 -164.12,364.27 515.26,-66.78 535.76,-378.33 670.14,-701.25 45.62,-81.91 91.23,-163.89 136.77,-245.87 -425.61,159.36 -1131.5,264.51 -998.35,746.8 25.39,91.92 27.5,159.31 95.76,218.54z"/>
  <path class="fil1" d="M93861.14 10236.23c-128.91,-442.41 914.44,-1447.91 1328.58,-1650.12 -215.33,215.1 -430.72,430.57 -646.32,645.68 -243.14,274.42 -267.79,616.24 -430.99,956.61 1353.09,-175.38 1406.94,-993.53 1759.84,-1841.52 119.79,-215.1 239.57,-430.39 359.16,-645.67 -1117.68,418.47 -2971.4,694.61 -2621.74,1961.14 66.67,241.38 72.22,418.35 251.47,573.88z"/>
  <path class="fil1" d="M7174.21 7500.64c28.5,387.1 309.87,882.93 670.14,1065.57 104.11,-14.89 130.83,-35.4 218.79,0 27.32,54.62 54.77,109.29 82.1,163.96l0 -18.26c201.83,-170.76 556.26,-549.09 382.91,-883.4 -106.5,-205.46 -374.38,-343.71 -533.35,-519.07 -100.56,-110.89 -113.9,-322.9 -177.8,-409.85 -189.06,309.72 -271.96,774.59 -164.1,1183.96l-54.7 0c-141.29,-194.34 -282.69,-388.62 -423.99,-582.91z"/>
  <path class="fil1" d="M96698.28 23796.6c74.86,1016.54 813.74,2318.63 1759.83,2798.26 273.41,-39.12 343.57,-92.97 574.56,0 71.76,143.43 143.84,287 215.6,430.57l0 -47.96c530.03,-448.43 1460.79,-1441.96 1005.55,-2319.87 -279.68,-539.55 -983.15,-902.59 -1400.6,-1363.12 -264.09,-291.18 -299.11,-847.94 -466.92,-1076.29 -496.48,813.36 -714.18,2034.14 -430.93,3109.16l-143.65 0c-371.05,-510.34 -742.37,-1020.55 -1113.44,-1530.75z"/>
  <path class="fil1" d="M2647.39 10751.92c-123.64,-219.52 -370.56,-344.78 -820.5,-346.07 -227.93,30.38 -455.96,60.7 -683.88,91.08 257.84,231.4 766.43,498.33 1381.27,400.69l0 -36.41c-95.06,-109.24 -326.46,-112.78 -451.25,-200.32 191.44,39.42 382.91,78.91 574.36,118.34l0 -27.31z"/>
  <path class="fil1" d="M84810.57 32334.65c-324.68,-576.47 -973.11,-905.4 -2154.68,-908.79 -598.55,79.77 -1197.36,159.41 -1795.91,239.18 677.11,607.66 2012.69,1308.64 3627.3,1052.23l0 -95.61c-249.62,-286.88 -857.29,-296.16 -1185,-526.05 502.73,103.52 1005.55,207.23 1508.29,310.76l0 -71.72z"/>
  <path class="fil1" d="M3973.98 10888.57c-218.79,45.5 -437.66,91.08 -656.45,136.6 4.6,6.03 9.13,12.11 13.66,18.19 665.96,85.54 1167.28,720.05 2010.4,582.86 186.94,-48.59 373.85,-97.1 560.79,-145.69 -4.63,-6.11 -9.15,-12.19 -13.76,-18.22 -164.02,-57.69 -328.14,-115.37 -492.36,-173.06 -157.73,-46.69 -428.88,-50.95 -547.01,-127.5 447.78,65.96 807.97,136.18 1162.48,236.79 -9.13,-12.17 -18.19,-24.29 -27.35,-36.47 -237.06,-393.77 -640.2,-535.26 -1504.38,-528.17 -168.65,18.19 -337.37,36.41 -506.02,54.67z"/>
  <path class="fil1" d="M88294.29 32693.5c-574.56,119.5 -1149.33,239.18 -1723.89,358.72 12.09,15.84 23.99,31.82 35.88,47.79 1748.86,224.61 3065.35,1890.88 5279.43,1530.62 490.92,-127.6 981.77,-255.01 1472.69,-382.61 -12.16,-16.02 -24.05,-31.99 -36.15,-47.83 -430.72,-151.49 -861.71,-302.97 -1292.96,-454.46 -414.21,-122.62 -1126.27,-133.8 -1436.48,-334.83 1175.89,173.22 2121.78,357.62 3052.74,621.83 -23.99,-31.98 -47.78,-63.8 -71.83,-95.78 -622.52,-1034.06 -1681.2,-1405.63 -3950.58,-1387.01 -442.89,47.78 -885.97,95.61 -1328.85,143.56z"/>
  <path class="fil1" d="M4329.54 9504.24c-262.26,-114.55 -601.67,-98.47 -957.26,-163.92 -322.98,-59.5 -550.21,-187.18 -752.24,-327.85 16.95,506.19 527.33,974.25 1066.81,1147.49 152.22,48.94 823.87,137.25 943.61,0 -273.47,-124.47 -547.13,-248.96 -820.6,-373.37 357.45,74.42 612.73,258.89 998.38,318.7 -103.51,-245.17 -197.13,-478.11 -478.7,-601.05z"/>
  <path class="fil1" d="M89228.02 29058.16c-688.73,-300.81 -1580.04,-258.58 -2513.84,-430.44 -848.17,-156.27 -1444.87,-491.55 -1975.43,-860.96 44.53,1329.29 1384.81,2558.43 2801.53,3013.38 399.73,128.52 2163.53,360.43 2477.97,0 -718.14,-326.87 -1436.81,-653.78 -2154.95,-980.51 938.69,195.44 1609.06,679.87 2621.81,836.94 -271.82,-643.83 -517.67,-1255.54 -1257.09,-1578.41z"/>
  <path class="fil1" d="M6996.42 7473.35c-94.25,-625.77 -689.91,-1075.52 -1490.71,-1238.58 -273.47,-30.33 -547.03,-60.71 -820.58,-91.08 -214.19,6.08 -428.53,12.16 -642.71,18.19 4.52,6.1 9.13,12.18 13.66,18.21 751,180.99 918.67,880.57 1504.4,1183.97 325.12,168.45 764.04,210.11 1353.85,209.46 -42.17,-91.03 -166.44,-134.29 -246.14,-200.37 -278,-230.34 -604.81,-457.72 -957.35,-637.52 -173.18,-88.01 -346.43,-176.08 -519.69,-264.09 764.4,185 1206.06,696.03 1805.27,1001.81z"/>
  <path class="fil1" d="M96231.41 23724.92c-247.51,-1643.3 -1811.76,-2824.36 -3914.71,-3252.59 -718.14,-79.64 -1436.54,-159.41 -2154.88,-239.18 -562.47,15.97 -1125.34,31.94 -1687.81,47.78 11.89,16.02 23.98,31.99 35.88,47.83 1972.18,475.27 2412.49,2312.43 3950.65,3109.16 853.79,442.36 2006.41,551.78 3555.28,550.07 -110.74,-239.05 -437.07,-352.65 -646.38,-526.18 -730.04,-604.89 -1588.25,-1202 -2514.05,-1674.19 -454.78,-231.12 -909.75,-462.38 -1364.73,-693.51 2007.35,485.83 3167.18,1827.83 4740.75,2630.81z"/>
  <path class="fil1" d="M5451.04 8201.94c104.28,36.3 169.42,88.85 314.55,100.14 -132.6,-497.09 -635.5,-728.14 -1545.47,-719.46 -329.92,79.97 -779.76,37.06 -1025.63,173.08 4.53,6.03 9.06,12.11 13.69,18.19 913.06,234.3 1108.51,816.86 2393.31,591.96 -9.15,-15.2 -18.29,-30.38 -27.35,-45.51 -444.43,-127.78 -749.57,-361.49 -1312.93,-437.21l0 -9.05c483.48,28.84 830.89,202.85 1189.83,327.86z"/>
  <path class="fil1" d="M92173.13 25638.24c273.86,95.35 444.93,233.33 826.03,262.98 -348.2,-1305.39 -1668.85,-1912.13 -4058.48,-1889.34 -866.41,210 -2047.71,97.32 -2693.37,454.51 11.89,15.84 23.79,31.8 35.94,47.78 2397.76,615.27 2911.01,2145.11 6284.99,1554.51 -24.05,-39.9 -48.04,-79.77 -71.83,-119.5 -1167.1,-335.57 -1968.42,-949.31 -3447.84,-1148.14l0 -23.76c1269.65,75.72 2181.97,532.69 3124.56,860.96z"/>
  <path class="fil1" d="M12660.71 10492.43c1148.21,-299.5 892.3,-734.7 1244.5,-1520.93 115.58,-257.94 314.05,-451.45 492.36,-655.67l-41.02 0c-287.12,75.9 -574.45,151.78 -861.58,227.67 -675.73,265.4 -1532.61,738.2 -1299.27,1557.34 47.85,167.98 155.87,304.64 205.23,455.36l27.25 0c-2.32,-197.35 244.71,-782.04 396.65,-883.4 -86.53,191.2 -173.26,382.47 -259.88,573.74l13.76 0 0 -18.21c27.25,-30.38 54.67,-60.7 82,-91.08 -22.27,121.88 -43.3,236.73 0,355.18z"/>
  <path class="fil1" d="M111106.17 31653.23c3015.27,-786.52 2343.25,-1929.38 3268.14,-3994.06 303.53,-677.36 824.71,-1185.54 1292.96,-1721.84l-107.7 0c-754.01,199.32 -1508.56,398.58 -2262.57,597.89 -1774.5,696.94 -4024.72,1938.54 -3411.97,4089.67 125.67,441.13 409.32,799.99 538.95,1195.8l71.56 0c-6.08,-518.26 642.62,-2053.68 1041.62,-2319.87 -227.22,502.11 -454.97,1004.4 -682.46,1506.69l36.15 0 0 -47.83c71.55,-79.77 143.57,-159.4 215.32,-239.18 -58.47,320.05 -113.71,621.66 0,932.73z"/>
  <path class="fil1" d="M11515.24 7162.2l0 -9.1c-209.56,-266.28 -554.66,-465.34 -711.15,-774.06 18.29,9.05 36.48,18.15 54.67,27.24 98.17,162.26 500.51,542.08 711.23,628.44 24.96,-199.2 172.73,-423.86 95.68,-673.94 -100.28,-325.74 -505.46,-496.91 -834.23,-673.94 -309.78,-166.79 -462.55,-408.42 -683.73,-637.46 -50.15,203.33 -100.39,406.77 -150.54,610.15 -192.07,853.21 611.12,1352.67 1518.07,1502.67z"/>
  <path class="fil1" d="M108098.11 22907.83l0 -23.89c-550.32,-699.27 -1456.57,-1222.02 -1867.54,-2032.74 48.04,23.77 95.81,47.66 143.58,71.55 257.81,426.08 1314.38,1423.53 1867.73,1650.3 65.54,-523.1 453.59,-1113.08 251.27,-1769.8 -263.36,-855.42 -1327.38,-1304.91 -2190.75,-1769.8 -813.49,-438.01 -1214.67,-1072.55 -1795.51,-1674.01 -131.69,533.96 -263.63,1068.19 -395.32,1602.29 -504.39,2240.59 1604.83,3552.18 3986.54,3946.1z"/>
  <path class="fil1" d="M12942.69 7959.46c125.8,-35.52 223.63,-135.57 304.28,-199.98 582.19,-464.65 289.84,-669.6 267.06,-1165.14 -5.94,-128.32 108.28,-235.57 122.09,-359.38 -954.1,385.02 -1587.04,1192.8 -693.43,1724.5z"/>
  <path class="fil1" d="M111846.68 25001.49c330.36,-93.29 587.27,-356.01 799.06,-525.17 1528.87,-1220.19 761.13,-1758.41 701.3,-3059.73 -15.6,-336.96 284.36,-618.61 320.62,-943.75 -2505.53,1011.1 -4167.65,3132.37 -1820.98,4528.65z"/>
  <path class="fil1" d="M19754.94 9208.56c11.19,-6.05 22.39,-12.17 33.59,-18.22 54.59,-154.41 136.19,-384.81 315.91,-498.48l4.82 8.46c-71.45,164.17 -195.92,312.58 -181.39,503.53 196.96,-118.42 438.97,-202.5 568.06,-338.11 172.36,-181.17 196.86,-434.5 294.31,-639.17 63.29,-132.79 203.47,-223.42 334.39,-337.61 -236.04,56.28 -472.12,112.63 -708.26,169 -162.28,83.12 -324.61,166.32 -486.87,249.5 -256.72,170.84 -520.94,584.68 -174.56,901.1z"/>
  <path class="fil1" d="M129736.06 28281.71c29.39,-15.89 58.81,-31.97 88.21,-47.87 143.36,-405.49 357.65,-1010.51 829.61,-1309.03l12.64 22.22c-187.63,431.11 -514.48,820.85 -476.32,1322.31 517.23,-310.99 1152.76,-531.79 1491.75,-887.9 452.62,-475.78 516.98,-1141.02 772.87,-1678.52 166.22,-348.69 534.34,-586.7 878.14,-886.57 -619.86,147.78 -1239.81,295.77 -1859.95,443.81 -426.14,218.26 -852.43,436.75 -1278.54,655.19 -674.17,448.65 -1368.01,1535.4 -458.41,2366.36z"/>
  <path class="fil1" d="M19945.34 9018.17c11.19,-6.06 22.39,-12.18 33.59,-18.23 54.59,-154.41 136.19,-384.8 315.91,-498.48l4.81 8.46c-71.44,164.17 -195.91,312.58 -181.38,503.53 196.96,-118.42 438.97,-202.5 568.06,-338.11 172.36,-181.17 196.86,-434.49 294.31,-639.17 63.29,-132.78 203.47,-223.42 334.39,-337.61 -236.04,56.28 -472.12,112.63 -708.27,169 -162.27,83.12 -324.6,166.32 -486.86,249.5 -256.72,170.84 -520.94,584.68 -174.56,901.11z"/>
  <path class="fil1" d="M130236.06 27781.71c29.39,-15.89 58.81,-31.97 88.21,-47.87 143.36,-405.49 357.65,-1010.51 829.61,-1309.03l12.64 22.22c-187.63,431.11 -514.48,820.85 -476.32,1322.31 517.23,-310.99 1152.76,-531.79 1491.75,-887.9 452.62,-475.78 516.98,-1141.02 772.87,-1678.52 166.22,-348.69 534.34,-586.7 878.14,-886.57 -619.86,147.78 -1239.81,295.77 -1859.95,443.81 -426.14,218.26 -852.43,436.75 -1278.54,655.19 -674.17,448.65 -1368.01,1535.4 -458.41,2366.36z"/>
  <path class="fil1" d="M8397.31 9970.36l-3.72 -8.76c-310.43,-218.28 -723.82,-347.32 -1000.52,-616.05 21.29,5.39 42.52,10.85 63.73,16.31 160.75,138.35 703.07,430.97 941.12,475.9 -57.36,-196.2 -6.93,-439.16 -183.21,-665.85 -229.57,-295.3 -689.39,-386.61 -1078.07,-497.42 -366.22,-104.39 -611.94,-309.24 -918.33,-489.58 34.8,204.75 69.55,409.62 104.37,614.41 163.68,855.84 1140.6,1190.97 2074.63,1171.04z"/>
  <path class="fil1" d="M99910.22 30282.24l-9.76 -23c-815.21,-573.22 -1900.81,-912.1 -2627.44,-1617.81 55.93,14.16 111.66,28.5 167.38,42.84 422.14,363.32 1846.3,1131.77 2471.42,1249.76 -150.61,-515.25 -18.18,-1153.27 -481.12,-1748.58 -602.85,-775.46 -1810.36,-1015.27 -2831.07,-1306.25 -961.72,-274.14 -1606.98,-812.09 -2411.6,-1285.66 91.39,537.68 182.64,1075.67 274.09,1613.48 429.84,2247.47 2995.29,3127.56 5448.1,3075.22z"/>
  <path class="fil1" d="M12069.89 8640.65l-23.76 -9.02c-158.99,-189.81 -548.19,-364.72 -521.44,-585.97l11.93 4.53c145.75,184.78 302.83,364.41 606.17,523.85l6.82 -7.96c22.53,-423.46 -368.44,-567.46 -815.4,-886.32l-20.32 23.72c13.58,438.82 -209.98,790.74 749.23,945.07l6.77 -7.9z"/>
  <path class="fil1" d="M109554.64 26790.34l-62.38 -23.69c-417.53,-498.46 -1439.59,-957.77 -1369.34,-1538.81l31.34 11.91c382.75,485.24 795.25,956.97 1591.82,1375.67l17.91 -20.91c59.17,-1112.03 -967.54,-1490.19 -2141.28,-2327.53l-53.36 62.29c35.67,1152.36 -551.43,2076.54 1967.52,2481.82l17.77 -20.75z"/>
  <path class="fil1" d="M17569.19 11266.28c131.21,5.33 262.45,10.62 393.74,15.94 426.03,10.19 875.11,32.72 1321.09,-27.41l6.92 7.92c-609.54,161.69 -1322.96,-48.54 -1810.51,101.14l6.93 7.92c594.8,321.47 1295.29,408.91 2156.97,-66.92 196.93,-108.84 433.68,-189.07 564.42,-313.7 -728.09,149.17 -1234.88,-171.46 -1811.23,-98.7 -190.57,24.02 -771.13,284.4 -828.33,373.81z"/>
  <path class="fil1" d="M123996.14 33685.39c344.58,14.01 689.22,27.89 1034,41.86 1118.77,26.78 2298.08,85.92 3469.25,-71.96l18.18 20.79c-1600.68,424.6 -3474.18,-127.46 -4754.5,265.59l18.18 20.8c1562,844.21 3401.53,1073.83 5664.34,-175.74 517.17,-285.82 1138.88,-496.51 1482.2,-823.79 -1911.99,391.74 -3242.86,-450.27 -4756.4,-259.18 -500.45,63.07 -2025.02,746.83 -2175.25,981.63z"/>
  <path class="fil3" d="M50913.74 9763.67l176.94 -75.46c120.27,-15.96 173.73,-47.87 173.73,-95.74 0,-15.96 0,-63.82 -13.37,-63.82 -66.82,-31.91 -93.54,-47.87 -106.9,-47.87 -66.82,0 -213.82,15.96 -267.27,31.91 -106.91,31.92 -253.91,-15.95 -440.99,47.87 -93.54,31.91 -280.63,47.87 -441,63.82 -66.81,31.92 -307.35,15.96 -414.26,47.87 -26.72,0 -40.09,15.96 -66.81,15.96 13.36,-15.96 40.09,-15.96 40.09,-15.96 40.08,-79.78 53.45,-127.64 80.18,-223.38 13.36,-47.87 13.36,-127.65 40.09,-191.47 0,-15.96 -40.09,-47.87 -66.82,-79.78 106.91,15.96 106.91,15.96 187.09,-159.56 0,-47.87 0,-111.68 13.36,-159.55 -13.36,0 -26.72,-15.97 -26.72,-31.92 40.08,-63.83 93.53,-111.69 120.27,-175.52 66.81,-143.59 80.17,-303.16 160.35,-478.67 0,-31.91 26.73,-95.74 26.73,-143.61 0,-63.81 13.36,-111.68 66.82,-159.55 13.36,-63.83 13.36,-111.69 40.09,-127.65 53.45,-31.91 147,-95.73 106.9,-175.51l26.73 -47.87c53.45,-127.65 13.37,-175.52 120.27,-335.07 80.18,-207.43 173.72,-303.17 294,-542.5 66.81,-175.51 106.9,-223.38 200.44,-335.08 80.18,-111.68 106.91,-159.55 200.46,-319.12 133.63,-207.42 307.35,-191.46 280.63,-303.15 -13.37,-63.83 -120.27,-207.43 -133.64,-207.43 -40.09,-31.92 -334.09,-223.38 -467.72,-63.82l-227.17 351.02c-93.55,159.56 -400.9,765.88 -400.9,765.88l-26.73 79.78c-133.63,287.21 -294,638.24 -400.9,973.31 -93.54,175.52 -133.63,366.99 -213.81,574.42 -147,351.03 -253.91,702.06 -360.82,1021.17l-160.36 526.54 -133.63 0 -80.17 15.96c-13.37,15.96 -106.91,0 -160.37,0l-80.18 31.91 -66.82 0c-133.63,15.96 -267.26,15.96 -454.35,0 -26.72,47.86 -40.09,79.78 -26.72,111.7 13.36,95.73 26.72,111.68 26.72,95.73 13.36,0 13.36,0 26.73,15.95 0,143.6 26.73,223.38 66.82,207.43 66.81,15.95 133.63,47.87 187.08,79.77l40.09 15.97 80.18 -15.97 227.18 0 93.54 -15.95 53.46 15.95c13.36,0 26.72,-15.95 40.08,-15.95l-26.72 79.79c-13.36,79.78 -240.54,877.56 -280.63,957.35 13.36,63.82 0,143.6 -26.73,191.46 6.11,0 101.32,243.78 -93.54,398.9 -26.72,63.82 -40.09,127.65 -40.09,191.47 0,63.83 0,143.6 13.37,191.47 -26.73,79.78 -93.55,127.65 -66.83,207.43 -80.17,159.55 -40.09,398.9 -133.63,574.41 -26.72,255.29 -66.81,446.76 -106.9,686.11 0,175.5 13.36,366.98 -13.37,558.45 0,0 -26.73,0 -26.73,47.86 -26.72,79.78 13.37,207.43 -40.08,303.17 -40.09,95.73 0,143.6 0,207.42 -13.37,191.47 -80.19,382.95 0,526.55l13.36 15.95c-80.18,95.73 -80.18,207.43 -93.55,287.2 66.82,111.7 0,287.21 93.55,382.95 -93.55,79.78 -53.45,159.55 -13.36,239.33 13.36,143.61 40.08,271.26 93.54,414.86 26.73,223.38 133.63,382.94 253.9,558.46 93.54,175.5 334.09,239.34 494.44,223.37 106.91,-15.95 187.09,-63.82 280.64,-63.82 120.27,0 227.18,-95.73 293.99,-159.55 120.27,-111.7 187.09,-255.3 280.63,-398.9 0,-15.96 13.36,-15.96 13.36,-31.91 66.82,-127.65 160.37,-239.34 200.46,-366.99 106.9,-175.52 160.35,-303.16 213.81,-462.72 66.81,-191.47 93.54,-382.94 173.72,-574.41 13.37,-15.95 13.37,-79.79 13.37,-127.65 389.48,-387.53 -263.46,-3637.89 -187.09,-3957.05 -26.73,-79.78 -147,-15.96 -173.73,-143.61 13.36,-15.95 -40.08,-47.86 -53.45,-79.78 -40.09,-95.73 -93.55,-159.55 -133.63,-255.29l-80.18 0 -66.82 -47.87c-40.09,-31.91 -40.09,15.96 -66.82,15.96 -26.72,15.95 -40.09,0 -53.45,0l-53.45 15.95 -66.82 -79.77 -160.36 15.95 66.81 -303.16 40.1 -239.34c26.73,-15.95 40.09,-31.91 53.45,-63.82l26.72 -15.96c26.73,-15.95 227.18,15.96 307.36,-15.95 93.54,0 280.63,-47.87 427.63,-47.87 147,-15.95 347.45,-63.82 400.9,-63.82 0,15.96 26.73,15.96 53.45,-15.96 26.73,79.78 160.36,-15.95 253.91,-31.92l36.87 -227.69zm-3043.62 -3362.38c-53.46,-143.6 -147,-303.15 -253.91,-398.88 -320.72,-287.21 -895.35,-335.08 -1309.61,-287.21 -561.26,63.82 -962.16,255.29 -1737.23,686.09 -307.36,175.52 -561.26,398.9 -841.89,654.2 -213.81,191.47 -400.9,414.85 -534.53,686.1 -267.27,478.68 -307.36,1021.17 -93.55,1595.59 187.09,526.55 681.53,957.35 922.08,1132.86 267.26,207.44 534.53,430.81 828.52,606.33 427.63,239.34 841.89,542.49 1189.34,925.44 200.45,223.39 387.53,446.77 494.44,749.92 133.64,335.08 80.18,638.23 -66.82,909.48 -120.26,223.39 -293.99,446.77 -481.08,590.37 -467.71,366.99 -1162.61,781.84 -1884.23,909.48 -307.35,63.84 -614.71,79.79 -922.07,63.84 -253.9,-15.97 -521.16,-111.7 -788.43,-303.17 -374.18,-271.25 -521.17,-989.27 -494.45,-1467.93 40.09,-622.29 374.18,-941.4 815.16,-1100.97 227.18,-95.73 -173.72,-574.4 -494.44,-382.94 -66.82,31.92 -374.17,175.52 -614.71,478.69 26.72,0 40.09,15.95 40.09,31.9l-93.54 47.87c-147,223.38 -253.91,494.63 -240.54,877.58 40.08,1100.95 668.17,1914.7 1643.69,2122.12 574.62,111.7 1149.24,127.65 1723.86,15.96 855.26,-159.56 1870.87,-686.1 2271.77,-1356.25 173.72,-303.16 240.55,-638.23 120.28,-1037.13 -160.36,-462.72 -387.54,-861.62 -708.26,-1196.69 -414.26,-430.81 -868.62,-781.84 -1363.06,-1085 -93.55,-63.82 -187.09,-111.69 -280.63,-191.46 -227.18,-159.57 -481.09,-319.12 -708.26,-510.6 -440.99,-414.85 -748.35,-1085 -414.26,-1818.97 347.44,-718.01 962.16,-1053.08 1162.61,-1260.5l320.71 -287.22c26.73,-111.68 66.83,-159.55 133.64,-159.55 53.45,0 146.99,-31.92 187.09,-63.83 53.45,-31.9 80.18,-63.82 133.63,-111.68 53.45,-111.7 213.81,-175.52 454.35,-143.61 -13.36,-15.96 0,-63.83 26.73,-63.83 106.91,-47.87 240.54,-47.87 360.81,-79.77 0,0 173.72,31.9 253.91,-31.91l240.53 31.91c147,15.96 387.54,175.51 481.08,398.89 106.91,255.3 106.91,494.63 80.19,749.93 -53.46,462.72 -173.73,638.24 -427.63,925.44 -173.73,207.43 -347.45,271.25 -307.36,398.89 200.45,398.9 427.62,303.17 708.26,47.87 561.26,-558.45 748.35,-1531.76 467.72,-2297.65zm9474.61 6701.47c200.45,95.74 427.62,95.74 641.44,-31.91 213.81,-111.69 427.63,-319.12 587.98,-462.72 26.73,-15.95 40.09,-63.82 66.82,-95.73 93.54,0 93.54,-159.57 187.09,-223.39 13.36,31.92 13.36,63.82 40.09,79.78 40.09,79.79 26.72,111.69 106.91,207.43 53.44,143.6 146.99,207.43 227.17,335.07 40.09,15.96 66.82,79.78 106.91,95.74 26.73,31.91 106.9,31.91 133.63,47.87 53.46,15.95 173.73,-15.96 227.18,-15.96 40.09,0 106.91,-31.91 120.27,-31.91 40.09,0 106.91,-31.91 133.63,-47.87 66.81,-47.87 106.91,-31.91 187.08,-79.78 133.64,-111.69 253.91,-143.6 360.82,-287.2 53.45,-79.78 146.99,-143.6 213.81,-207.43l0 -31.92c360.81,-462.72 343.19,-442.75 360.81,-462.72 40.09,-15.95 80.19,-15.95 93.55,-31.9 66.81,-31.91 120.27,-111.69 160.36,-159.56 40.08,-31.92 133.63,-79.79 200.44,-143.6 173.73,-143.61 387.54,-271.25 521.18,-510.59 -66.82,-31.92 -66.82,31.91 -66.82,63.82 -80.18,63.82 -80.18,63.82 -106.91,-15.95l120.27 -191.48 -40.09 -31.91c-133.63,95.74 -240.53,175.52 -334.08,271.25 -307.36,239.34 -280.63,207.43 -601.35,446.77 -187.09,159.56 -387.54,303.15 -561.26,430.8 -187.09,159.57 -400.9,351.03 -614.72,462.72 -53.45,31.92 -106.9,31.92 -146.99,47.87 -40.09,15.96 -66.82,15.96 -93.55,0 -66.81,-47.87 -106.9,-111.69 -120.27,-175.52 -80.17,-223.37 -80.17,-462.72 -40.09,-686.1 13.36,-31.9 13.36,-63.82 26.73,-79.77 40.09,-127.65 26.73,-303.16 26.73,-303.16 -26.73,-111.7 -80.18,-191.47 -160.36,-223.39 -160.36,-15.95 -253.91,111.69 -360.81,127.65 66.81,-159.56 173.72,-303.16 133.63,-526.55 -53.46,-366.98 -374.17,-430.8 -654.8,-494.63 -253.91,31.91 -481.09,223.38 -641.44,430.81 -160.36,239.34 -334.08,430.81 -481.08,702.06 -26.73,31.91 -53.46,111.69 -106.91,191.46l-93.55 191.48c-26.72,111.69 -66.81,191.47 -80.17,287.2 0,15.96 0,15.96 -13.37,31.92 -26.73,95.74 -53.45,175.52 -93.54,287.2 -53.45,239.34 -13.36,446.77 106.91,638.24 80.17,47.87 187.08,127.65 213.8,159.56 40.1,15.95 80.19,15.95 106.92,15.95zm-26.73 -462.72c66.81,-319.11 187.08,-590.36 307.36,-845.66 146.99,-303.17 614.71,-1053.09 1015.61,-1132.87 -13.37,15.97 -120.27,718.02 173.73,749.93l13.36 0c0,0 -53.46,79.77 -66.82,79.77 -200.45,255.31 -294,446.77 -494.44,702.07 -133.64,175.51 -253.9,287.2 -427.63,366.98 -133.63,63.82 -374.17,79.78 -521.17,79.78zm-5696.78 -670.16c26.73,-127.65 53.45,-239.34 93.54,-335.07 80.18,-191.47 173.72,-382.95 280.63,-558.46 93.55,-143.6 213.82,-223.38 334.09,-335.07 106.9,-95.73 227.17,-95.73 347.44,-159.56 53.46,-31.91 120.27,111.69 80.18,191.47 -53.46,111.69 -106.9,207.42 -187.09,287.2 -120.27,143.61 -227.17,255.3 -360.8,382.95 0,110.02 0,0 -294,351.02 -13.36,15.97 -40.09,0 -66.82,0 -53.45,47.87 -120.27,95.74 -227.17,175.52zm3144.38 1372.22c106.91,47.86 160.36,15.96 187.09,-175.52 26.73,-111.68 26.73,-223.38 53.45,-335.07 40.09,-143.6 53.45,-287.2 106.91,-446.76 53.45,-191.47 133.63,-366.99 240.54,-590.37 93.54,-191.47 200.45,-351.03 293.99,-510.58 93.54,-143.61 200.45,-271.26 280.63,-398.9 66.82,-79.78 147,-159.56 227.18,-239.34 26.73,-47.87 53.45,-111.7 93.54,-127.65 80.18,-63.82 160.36,-95.73 213.82,-175.51 80.17,-79.79 160.36,-63.82 240.53,-63.82 173.73,95.73 253.91,47.87 253.91,47.87l13.36 -79.79c-26.73,-79.78 -53.45,-143.6 -106.9,-191.46 -26.74,0 -40.09,-31.92 -53.46,-47.87 -53.45,-63.83 -120.27,-127.65 -187.08,-191.47 -160.36,-111.7 -347.46,-111.7 -521.17,47.87 -147,111.68 -294,239.33 -414.27,446.75 -93.54,111.7 -173.72,191.48 -240.54,335.08 -13.36,47.87 -66.81,95.73 -106.91,159.56 0,-79.78 26.73,-127.64 26.73,-175.52 13.37,-143.6 0,-287.2 -40.09,-414.85 -53.45,-239.34 -160.36,-319.12 -293.99,-255.29 -40.09,0 -93.55,31.9 -120.27,79.78 -13.37,15.96 -13.37,79.77 -26.73,111.69 -26.72,223.38 -66.82,430.8 -93.55,654.19 -31.59,245.2 -98.65,590.96 -152.48,894.4 -243.07,93.05 -625.9,267.35 -983.4,461.84 -141.8,77.16 -293.24,192.92 -440.98,303.17 -66.08,49.3 -133.64,47.87 -200.46,79.78 -106.9,47.87 -213.81,111.69 -307.36,159.55 -120.26,47.87 -240.54,111.7 -360.81,127.65 -173.72,31.92 -347.44,15.96 -521.16,31.92 -106.91,-47.87 -133.63,-79.78 -187.09,-271.25 93.54,-63.83 133.63,-79.78 240.54,-143.6 26.72,-31.92 53.45,-79.79 93.54,-95.75 80.18,-63.82 187.09,-111.69 280.64,-175.5 13.36,-15.97 13.36,-63.83 26.72,-79.78 53.45,-31.92 93.54,-47.87 133.63,-79.79 0,0 -13.36,-15.95 -40.09,-15.95l93.54 -63.83c53.46,-31.9 147,-47.87 160.37,-159.55 13.36,-47.87 93.54,-63.83 133.63,-111.7 120.27,-143.6 240.53,-287.2 360.81,-446.76 40.09,-47.87 80.18,-127.64 106.91,-207.43 40.08,-127.64 -26.73,-398.89 -133.64,-478.68 -93.55,-95.73 -200.45,-191.46 -320.72,-255.28 -93.54,-63.83 -213.81,-175.52 -347.44,-111.7 -53.46,15.96 -93.55,31.91 -133.64,31.91 -173.72,15.96 -320.72,111.69 -440.99,255.3 -120.27,159.56 -240.54,319.12 -360.81,494.64 -66.81,95.73 -120.27,191.46 -173.72,287.2 -133.64,303.16 -200.45,606.32 -213.82,925.43 0,111.7 -13.36,223.39 53.46,414.86 26.72,159.56 26.72,159.56 53.45,191.47 80.19,143.6 133.63,239.34 227.18,319.12 13.36,15.95 53.45,31.91 66.81,63.82 133.64,127.65 187.1,143.6 307.36,191.47 120.27,47.86 267.27,79.78 400.9,95.73 106.91,15.97 200.45,-15.95 307.36,-47.87 66.82,-15.95 147,-31.9 200.45,-63.81 40.09,-31.92 66.82,-47.87 120.27,-47.87 93.54,-15.96 187.08,-15.96 267.27,-63.83 133.63,-63.82 244.14,-168.23 360.81,-255.29 97.47,-72.73 188.46,-116.56 280.63,-207.43l853.85 -841.72c-4.23,26 -8.23,51.33 -11.96,75.84l-106.91 654.19c-40.09,207.43 26.73,366.99 80.18,526.54l53.45 -95.73c26.73,-15.95 53.46,15.96 53.46,15.96 0,143.6 13.36,207.42 93.54,255.29zm-6320.86 1994.49l26.72 -622.29c55.78,-233.09 0,0 66.82,-207.42 0,-10.15 -14.23,-1.12 -13.36,-319.12 0.33,-118.57 26.73,-86.48 26.73,-127.65 80.17,-414.85 133.63,-813.74 213.81,-1260.51 30.88,-132.76 8.06,18.87 53.46,-223.38 66.81,-95.74 -26.73,-143.61 -40.1,-223.39 160.36,-111.69 147,-366.98 213.82,-574.4 40.08,-95.74 66.81,-223.38 80.18,-319.12 53.45,-127.65 80.18,-255.3 80.18,-319.12l66.82 -287.21 106.9 79.78 267.26 382.95c200.46,366.98 267.27,606.32 360.82,1116.9l40.08 606.33c26.73,255.29 13.37,494.63 -26.72,718.01 13.36,191.48 0,366.98 -13.36,558.46 -40.09,223.38 -80.19,478.67 -133.64,718.01 -80.18,366.98 -146.99,702.06 -307.35,1085 -120.27,239.34 -253.91,462.71 -440.99,670.15 -80.18,143.6 -160.37,175.51 -267.27,207.43l-160.36 47.86c-93.54,15.96 -93.54,-95.73 -120.27,-159.56 -53.46,-95.73 -80.18,-223.38 -80.18,-351.03l-26.72 -239.34c0,-15.95 -40.1,-63.82 -26.73,-95.73 66.81,-79.78 -13.37,-191.47 26.73,-255.3l-26.73 0c26.73,-63.82 13.36,-351.02 0,-382.94 26.73,-95.73 53.45,-159.56 53.45,-223.37z"/>
  <path class="fil4" d="M35509.52 12587c0,-159.55 0,-351.02 53.45,-510.58 13.36,-79.78 13.36,-159.55 40.09,-255.3 13.36,-63.82 40.09,-223.37 80.18,-287.2 66.82,-159.56 133.63,-287.2 200.45,-414.85 13.36,63.82 40.09,127.65 66.82,175.51 26.72,95.74 93.54,175.52 187.08,239.34 106.91,95.74 253.9,175.52 387.54,207.43 66.82,31.9 173.72,47.87 240.54,47.87 66.81,31.9 93.54,47.86 40.09,127.65 -66.81,111.68 -93.54,239.33 -147,335.07 -66.81,127.65 -146.99,239.33 -227.17,335.06 -147,175.52 -334.09,335.08 -534.54,398.9 -173.72,79.78 -334.08,15.96 -347.44,-111.68 -13.37,-95.74 -40.09,-175.52 -40.09,-287.22zm841.89 -1499.85c13.36,-143.6 106.9,-207.42 187.08,-287.2 40.09,-47.87 106.91,-79.78 187.09,-79.78 40.09,-15.96 66.81,-15.96 93.54,31.91 66.82,127.65 80.19,287.21 106.91,414.85 0,95.74 -13.36,191.47 0,271.26l-374.18 0c-80.17,0 -120.26,-15.96 -146.99,-95.74 -40.09,-79.78 -53.45,-175.52 -53.45,-255.3zm-7483.96 4520.68c213.81,-31.91 534.53,-15.95 748.34,-63.82 494.45,-95.73 775.08,-175.51 1256.15,-494.63 267.27,-175.52 481.09,-351.03 708.26,-590.37 13.37,0 0,-31.91 13.37,-79.78 53.45,-31.91 106.9,-95.73 160.36,-159.56 547.9,-797.79 494.44,-1755.14 -13.36,-2361.46 -507.81,-606.33 -1189.34,-829.71 -1910.96,-733.98l0 -31.9c494.44,-351.04 855.25,-622.29 1256.15,-893.54 106.91,-79.78 213.81,-143.59 293.99,-239.33 106.91,-111.7 227.18,-207.43 253.91,-366.99 40.09,0 80.18,0 106.91,-15.96 106.9,-95.73 213.8,-175.51 293.99,-255.29 106.91,-175.51 280.62,-287.21 307.35,-526.54 0,-15.96 13.36,-31.92 40.09,-31.92 40.1,-207.42 133.63,-398.88 267.27,-398.88 -106.9,111.68 -147,239.33 -147,319.11 1737.24,-2138.08 -66.81,-4212.35 -2565.76,-3159.26 -1510.06,638.23 -3260.65,2058.3 -3955.54,3366.68 -227.18,414.86 -147,1244.57 521.16,1260.52 106.91,-15.95 213.82,-79.79 360.81,-191.47 -133.63,-31.91 -213.81,-31.91 -280.63,-63.83 -80.18,-15.95 -133.63,-63.82 -120.27,-159.55 13.37,-143.61 53.46,-271.25 133.64,-382.95 267.26,-398.89 521.17,-765.87 828.52,-1116.9 708.26,-845.67 1937.68,-1675.37 2859.76,-2026.41 1670.41,-654.18 2966.66,47.87 2218.31,1515.82 -187.09,382.94 -440.99,733.97 -721.62,1037.12 -668.16,718.02 -1363.06,1324.35 -2138.13,1818.97 -441,287.21 -1550.15,749.93 -1897.6,845.67 574.63,-1547.72 948.8,-2441.25 895.35,-2632.72 -106.91,-207.42 -213.82,-271.25 -414.26,-255.29 -200.45,255.29 -294,574.41 -427.63,877.57 -227.18,558.45 -374.18,1148.82 -561.26,1739.19 -66.82,175.51 -80.19,398.9 -173.73,542.5 -106.9,175.51 -40.09,351.03 -106.9,526.55 -80.18,271.25 -106.91,542.49 -160.36,813.74 -66.82,542.49 -147,1116.91 -147,1675.36 -13.36,335.08 13.37,718.02 173.72,989.27 26.73,47.86 0,111.69 80.18,111.69 240.54,-159.56 147,-351.03 200.46,-558.46 160.36,15.96 280.62,47.87 374.17,79.79 133.63,63.81 240.53,95.73 387.53,143.59 93.55,31.92 214.73,56.03 334.09,79.78 121.53,24.19 513.31,33.99 633.58,49.93l34.59 -2.06zm6464.8 -4589.54c-200.45,223.39 -765,847.52 -972.47,1079.26 -207.01,231.23 -440.99,462.71 -654.81,686.1 -106.91,111.68 -227.17,175.51 -374.17,223.38 13.36,-159.56 53.46,-303.17 53.46,-446.77 13.36,-159.56 93.54,-303.16 53.45,-446.76 0,-31.92 13.36,-47.87 26.72,-79.78 13.37,-63.83 40.1,-127.64 66.82,-191.47 53.46,-207.42 106.91,-398.9 147,-590.37 26.72,-79.78 53.45,-159.55 53.45,-255.29 13.36,-79.78 13.36,-175.52 -13.36,-239.34 -26.73,-63.82 -93.55,-127.65 -147,-175.52 -40.09,-79.77 -133.63,-127.64 -173.72,-207.42 -40.09,-79.78 -80.18,-47.86 -120.27,-31.91 -53.45,0 -66.82,47.86 -53.45,111.69l0 127.64c-66.82,303.17 -133.64,574.42 -187.1,861.62 -53.44,207.43 -106.9,414.86 -133.63,622.28 -66.81,287.2 -120.27,590.37 -93.54,861.62 13.37,63.82 53.46,95.73 66.82,159.56 26.72,31.91 53.45,79.77 66.81,127.64 13.37,31.92 13.37,79.78 40.1,95.74 93.54,79.77 146.99,223.38 280.63,255.29 93.54,31.92 160.36,79.78 267.26,47.87 93.54,-63.82 187.09,-111.69 267.27,-159.55 80.18,-31.92 160.36,-47.87 213.81,-111.7 80.18,-63.82 147,-127.65 200.46,-207.42 80.17,-127.65 173.72,-255.3 280.62,-335.08l66.82 -79.78c26.73,-31.91 42.62,-77.02 66.82,-111.69 42.77,-61.28 374.74,-526.33 428.2,-590.15 12.29,255.36 7.35,868.37 146.42,1052.87 101.92,135.22 200.45,255.3 360.81,287.21 106.9,63.82 267.27,63.82 400.9,79.77 26.72,15.97 80.18,15.97 133.63,0 120.27,-47.87 213.81,-79.77 320.72,-159.55 53.45,0 106.91,-31.91 147,-63.83 53.45,-79.77 133.63,-159.55 200.45,-239.33l26.73 -31.92c120.27,-159.55 187.08,-319.12 293.99,-462.72 13.36,-15.95 0,-79.78 13.36,-95.73 80.18,-63.82 80.18,-159.55 147,-239.34l0 -15.95 -26.73 -15.96c0,-63.82 26.73,-111.69 40.09,-159.56 0,-63.83 13.36,-95.73 80.19,-95.73 26.72,0 53.44,-15.96 93.53,-15.96 133.64,-15.95 240.54,-31.91 387.54,-111.69l187.09 -95.73c66.81,-31.92 173.72,-31.92 187.09,-127.65 0,-15.97 13.36,-15.97 26.72,-15.97l93.55 0c53.45,0 53.45,-63.81 106.91,-111.68 80.17,-63.82 187.08,-159.56 320.71,-239.34l-93.54 -47.86c66.82,-15.96 80.18,-31.92 120.27,-63.83l0 -143.6 -13.36 -15.96c-334.08,143.6 -494.45,191.47 -694.9,287.21 -227.18,95.73 -467.71,175.51 -708.25,287.2 -13.36,-15.95 0,-31.91 0,-47.87 -40.09,-15.95 -53.46,-63.82 -80.19,-79.77l40.1 0c-26.73,-63.83 -40.1,-79.78 -66.82,-95.74 26.72,-15.96 40.09,-31.91 66.82,-31.91 -26.73,-63.83 -13.37,-159.56 -120.27,-159.56 0,0 -26.73,-47.87 -26.73,-63.82 40.09,-15.95 53.45,-15.95 80.18,-15.95 13.36,0 53.45,31.9 53.45,0 -93.54,-63.83 -160.36,-159.57 -240.54,-239.35 -26.72,-15.95 -80.18,-15.95 -93.54,-31.9 -160.36,-159.57 -347.45,-159.57 -481.08,-223.39 -26.73,-15.96 -53.46,-15.96 -66.82,-31.91 -53.45,-63.82 -80.18,-143.6 -146.99,-143.6 -106.91,0 -240.55,-15.97 -360.82,47.87 -160.36,95.73 -293.99,223.38 -414.26,366.98 -56.05,66.92 -99.04,180.63 -151.8,297.52 -3.64,8.09 -7.53,17.23 -11.61,27.34zm-8188.68 3376.9c0,-366.99 253.91,-1531.76 307.36,-1771.11 40.09,-191.47 66.82,-319.11 120.27,-462.72 66.82,-15.95 280.63,-95.73 440.99,-143.6 668.16,-191.46 1389.79,-510.58 2432.13,-335.07 481.08,79.77 748.35,271.25 935.43,670.14 253.91,558.46 53.46,1276.48 -307.35,1723.24 -601.36,733.97 -1242.79,957.35 -2057.96,1021.18 -574.62,47.87 -1162.61,-143.6 -1416.51,-223.39 -93.54,-31.91 -454.36,-159.56 -454.36,-478.67zm6494.59 -4994.19c80.18,63.83 160.36,63.83 227.17,31.91 120.28,-95.73 240.55,-191.47 294,-366.98 53.46,-175.52 0,-351.03 -40.09,-510.59 -26.73,-111.69 -106.91,-159.56 -253.91,-143.6 0,0 -53.45,0 -66.81,15.95 -173.73,111.7 -320.72,223.38 -387.54,462.72 -26.72,159.56 0,287.21 80.18,398.9 40.09,47.87 106.9,79.78 147,111.69z"/>
  <path class="fil1" d="M9506.82 6303.75c82.04,-46.71 106.81,-171.87 136.98,-252.9 217.9,-584.47 -127.66,-828.59 -412.97,-1435.88 -73.91,-157.25 -39.82,-291.66 -95.43,-443.88 -559.91,496.08 -633.75,1502.73 371.42,2132.66z"/>
  <path class="fil1" d="M102823.86 20653.49c215.44,-122.66 280.51,-451.34 359.72,-664.13 572.22,-1534.86 -335.23,-2175.93 -1084.47,-3770.71 -194.09,-412.94 -104.59,-765.92 -250.6,-1165.65 -1470.38,1302.74 -1664.29,3946.24 975.35,5600.49z"/>
  <path class="fil2" d="M9354.58 5907.46c67.47,127.6 208.62,265.06 163.8,382.22 -8.99,-3.48 -17.96,-6.95 -26.97,-10.37 -211.82,-318.89 -425.5,-860.58 -381.75,-1150.86 105.05,262.04 102.55,509.55 244.92,779.01z"/>
  <path class="fil2" d="M102424.07 19612.81c177.19,335.08 547.86,696.05 430.15,1003.74 -23.6,-9.16 -47.16,-18.27 -70.82,-27.25 -556.26,-837.42 -1117.39,-2259.92 -1002.51,-3022.21 275.89,688.12 269.31,1338.1 643.18,2045.72z"/>
 </g>
</svg>
