<?xml version="1.0" encoding="UTF-8"?>
<!DOCTYPE svg PUBLIC "-//W3C//DTD SVG 1.1//EN" "http://www.w3.org/Graphics/SVG/1.1/DTD/svg11.dtd">
<!-- Creator: CorelDRAW -->
<svg xmlns="http://www.w3.org/2000/svg" xml:space="preserve" width="656.519mm" height="691.444mm" version="1.1" style="shape-rendering:geometricPrecision; text-rendering:geometricPrecision; image-rendering:optimizeQuality; fill-rule:evenodd; clip-rule:evenodd"
viewBox="0 0 65651.94 69144.44"
 xmlns:xlink="http://www.w3.org/1999/xlink"
 xmlns:xodm="http://www.corel.com/coreldraw/odm/2003">
 <defs>
  <style type="text/css">
   <![CDATA[
    .fil2 {fill:white}
    .fil1 {fill:#61B22E}
    .fil0 {fill:#201351}
    .fil4 {fill:#61B22E;fill-rule:nonzero}
    .fil3 {fill:#201351;fill-rule:nonzero}
   ]]>
  </style>
 </defs>
 <g id="Warstwa_x0020_1">
  <metadata id="CorelCorpID_0Corel-Layer"/>
  <path class="fil0" d="M33530.51 34080.26l-178.45 -141.49c-425.51,-392.14 -1003.53,-1799.86 -1756.51,-2788.86 -2042.21,-2682.27 -3357.57,-4030.82 -6520.87,-6131.93 -600.65,-398.88 -980.54,-872.61 -1953.91,-979.07 159.87,691.68 1709.23,2162 2253.22,2845.7 1060.57,1333.12 3125.59,4987.72 3475.5,6420.92 1101.4,2658.02 857.28,1602.02 1010.71,3631.83 204.57,2706.53 73.22,5410.61 -1074.92,7951.63 -639.1,1414.71 -1666,3492.29 -2693.27,4751.04 -452.92,555.32 -1300.64,1053.43 222.6,1053.43l14182.52 0c269.33,0 -2703.57,-6438.19 -3147.3,-7704.54 -201.07,-722.54 0,0 -470.03,-1896.89 -13.98,-1264.87 -184.15,-3342.21 115.53,-4443.54 109.46,-402.56 0,0 252.4,-844.56 71.75,-527.39 141.29,-583.38 252.59,-961.92 310.35,-1053.56 885.98,-2594.32 1434.02,-3583.07 354.68,-639.97 120.5,-234.59 869.61,-1713 534.97,-878 102.1,-173.59 945.77,-1558.04 702.93,-892.21 1330.99,-1900.68 2340.05,-2998.95 364.25,-308.23 1093.5,-1006.27 1247.11,-1387.63 -1556.36,172.61 -5630.85,3718.07 -6439.75,4458.99 -1460.87,1338.13 -3780.14,4248.64 -4366.62,6019.95z"/>
  <path class="fil0" d="M110360.02 37442.32l-178.45 -141.49c-425.51,-392.14 -1003.53,-1799.86 -1756.51,-2788.86 -2042.21,-2682.27 -3357.57,-4030.82 -6520.87,-6131.93 -600.65,-398.88 -980.54,-872.61 -1953.91,-979.07 159.87,691.68 1709.23,2162 2253.22,2845.7 1060.57,1333.12 3125.59,4987.72 3475.5,6420.92 1101.4,2658.02 857.28,1602.02 1010.71,3631.83 204.57,2706.53 73.22,5410.61 -1074.92,7951.63 -639.1,1414.71 -1666,3492.29 -2693.27,4751.04 -452.92,555.32 -1300.64,1053.43 222.6,1053.43l14182.52 0c269.33,0 -2703.57,-6438.19 -3147.3,-7704.54 -201.07,-722.54 0,0 -470.03,-1896.89 -13.98,-1264.87 -184.15,-3342.21 115.53,-4443.54 109.46,-402.56 0,0 252.4,-844.56 71.75,-527.39 141.29,-583.38 252.59,-961.92 310.35,-1053.56 885.98,-2594.32 1434.02,-3583.07 354.68,-639.97 120.5,-234.59 869.61,-1713 534.97,-878 102.1,-173.59 945.77,-1558.04 702.93,-892.21 1330.99,-1900.68 2340.05,-2998.95 364.25,-308.23 1093.5,-1006.27 1247.11,-1387.63 -1556.36,172.61 -5630.85,3718.07 -6439.75,4458.99 -1460.87,1338.13 -3780.14,4248.64 -4366.62,6019.95z"/>
  <path class="fil1" d="M37853.09 17793.29c3015.27,-786.52 2343.25,-1929.38 3268.13,-3994.06 303.54,-677.36 824.71,-1185.54 1292.97,-1721.84l-107.7 0c-754.01,199.32 -1508.56,398.58 -2262.58,597.89 -1774.5,696.94 -4024.72,1938.54 -3411.97,4089.67 125.67,441.13 409.32,799.99 538.95,1195.8l71.56 0c-6.07,-518.26 642.62,-2053.68 1041.63,-2319.87 -227.22,502.11 -454.98,1004.4 -682.46,1506.69l36.14 0 0 -47.83c71.56,-79.77 143.58,-159.4 215.33,-239.18 -58.47,320.05 -113.71,621.66 0,932.73z"/>
  <path class="fil1" d="M115768.83 21931.23c3015.27,-786.52 2343.25,-1929.38 3268.13,-3994.06 303.54,-677.36 824.71,-1185.54 1292.97,-1721.84l-107.7 0c-754.01,199.32 -1508.56,398.58 -2262.58,597.89 -1774.5,696.94 -4024.72,1938.54 -3411.97,4089.67 125.67,441.13 409.32,799.99 538.95,1195.8l71.56 0c-6.07,-518.26 642.62,-2053.68 1041.63,-2319.87 -227.22,502.11 -454.98,1004.4 -682.46,1506.69l36.14 0 0 -47.83c71.56,-79.77 143.58,-159.4 215.33,-239.18 -58.47,320.05 -113.71,621.66 0,932.73z"/>
  <path class="fil0" d="M38391.78 15903.95c46.84,65.07 15.85,45.98 -35.88,95.65 12.09,-31.99 23.79,-63.8 35.88,-95.65z"/>
  <path class="fil0" d="M116307.52 20041.89c46.84,65.07 15.85,45.98 -35.88,95.65 12.09,-31.99 23.79,-63.8 35.88,-95.65z"/>
  <path class="fil0" d="M37960.79 16597.5l0 143.39 -35.88 0c11.89,-47.78 23.98,-95.61 35.88,-143.39z"/>
  <path class="fil0" d="M115876.53 20735.44l0 143.39 -35.88 0c11.89,-47.78 23.98,-95.61 35.88,-143.39z"/>
  <path class="fil1" d="M30921.52 3491.42c335.19,-175.25 670.64,-350.67 1005.82,-526.05 179.45,-334.78 359.17,-669.61 538.62,-1004.4 155.47,-167.5 311.2,-334.96 466.93,-502.29l-107.7 0c-275.32,47.78 -550.77,95.61 -826.1,143.39 -1107.17,306.59 -1919.65,1069.92 -1113.45,1889.35l35.88 0z"/>
  <path class="fil1" d="M108837.26 7629.36c335.19,-175.25 670.64,-350.67 1005.82,-526.05 179.45,-334.78 359.17,-669.61 538.62,-1004.4 155.47,-167.5 311.2,-334.96 466.93,-502.29l-107.7 0c-275.32,47.78 -550.77,95.61 -826.1,143.39 -1107.17,306.59 -1919.65,1069.92 -1113.45,1889.35l35.88 0z"/>
  <path class="fil2" d="M31208.94 2797.87c50.8,143.92 -127.26,504 -251.27,621.96l-36.15 0c-35.88,-31.94 -71.75,-63.93 -107.63,-95.74 131.68,-175.42 263.36,-350.8 395.05,-526.22z"/>
  <path class="fil2" d="M109124.68 6935.81c50.8,143.92 -127.26,504 -251.27,621.96l-36.15 0c-35.88,-31.94 -71.75,-63.93 -107.63,-95.74 131.68,-175.42 263.36,-350.8 395.05,-526.22z"/>
  <path class="fil1" d="M37529.8 6576.64c699.05,-483.94 1437.27,-939.37 2226.96,-1363.12 263.17,-159.54 526.53,-318.94 789.89,-478.35 -668.44,676.12 -2354.41,1312.52 -2729.43,2056.76l143.57 0c2775.43,-554.25 3085.37,-844.07 3842.96,-2726.37 143.57,-406.51 287.15,-813.36 430.72,-1219.86 -1503.86,1296.98 -4082.07,946.8 -4668.73,2989.48 -55.5,193.41 -196.96,525.43 -35.94,789.29l0 -47.83z"/>
  <path class="fil1" d="M115445.54 10714.58c699.05,-483.94 1437.27,-939.37 2226.96,-1363.12 263.17,-159.54 526.53,-318.94 789.89,-478.35 -668.44,676.12 -2354.41,1312.52 -2729.43,2056.76l143.57 0c2775.43,-554.25 3085.37,-844.07 3842.96,-2726.37 143.57,-406.51 287.15,-813.36 430.72,-1219.86 -1503.86,1296.98 -4082.07,946.8 -4668.73,2989.48 -55.5,193.41 -196.96,525.43 -35.94,789.29l0 -47.83z"/>
  <path class="fil1" d="M33435.64 11718.54c-211.63,-750.92 -820.95,-1326.34 -1077.57,-2104.59 -102.81,-311.99 110.73,-1053.63 -35.69,-1267.51 -2521.04,1579.33 -3185.6,4557.64 287.22,5835.54 -266.21,-475.28 -1418.37,-2677.32 -1041.5,-3324.45l35.95 0c26.1,827.92 875,3271.08 1580.12,3515.66 -423.52,-936.42 522.56,-1692.62 251.47,-2654.65z"/>
  <path class="fil1" d="M111351.38 15856.48c-211.63,-750.92 -820.95,-1326.34 -1077.57,-2104.59 -102.81,-311.99 110.73,-1053.63 -35.69,-1267.51 -2521.04,1579.33 -3185.6,4557.64 287.22,5835.54 -266.21,-475.28 -1418.37,-2677.32 -1041.5,-3324.45l35.95 0c26.1,827.92 875,3271.08 1580.12,3515.66 -423.52,-936.42 522.56,-1692.62 251.47,-2654.65z"/>
  <path class="fil1" d="M31855.52 5835.18c130.09,366.46 212.82,786.96 538.69,1028.47l35.87 0c4.43,-944.48 740.74,-1608.81 1113.25,-2343.76l35.88 0c-113.24,557.98 -889,1474.21 -646.32,2104.58l35.88 0c483.92,-45.01 885.04,-314.63 1221.15,-478.22 1810.84,-881.51 1112.72,-1862.02 1759.83,-3443.99 151.5,-370.47 964.26,-1324.31 933.47,-1339.19 -514.64,143.39 -1029.54,287.01 -1544.18,430.4 -1815.99,705.78 -4244.08,1900.47 -3483.52,4041.71z"/>
  <path class="fil1" d="M109771.26 9973.12c130.09,366.46 212.82,786.96 538.69,1028.47l35.87 0c4.43,-944.48 740.74,-1608.81 1113.25,-2343.76l35.88 0c-113.24,557.98 -889,1474.21 -646.32,2104.58l35.88 0c483.92,-45.01 885.04,-314.63 1221.15,-478.22 1810.84,-881.51 1112.72,-1862.02 1759.83,-3443.99 151.5,-370.47 964.26,-1324.31 933.47,-1339.19 -514.64,143.39 -1029.54,287.01 -1544.18,430.4 -1815.99,705.78 -4244.08,1900.47 -3483.52,4041.71z"/>
  <path class="fil1" d="M35554.38 12723.11c12.15,-16.01 24.24,-31.99 36.14,-47.83 575.29,-562.03 684.37,-1423.04 1400.66,-1889.29 -215.4,358.72 -430.99,717.4 -646.39,1076.12 -77.63,231.12 16.32,362.1 -72.01,597.89l36.14 0c970.34,-240.41 1896.4,-440.65 2442.03,-956.61 696,-658.4 698.38,-1707.24 1113.25,-2559.05 288.53,-591.83 902.08,-948.39 1400.66,-1387.19l-179.52 0c-577.8,173.71 -1215.06,202.26 -1759.83,358.85 -2821.74,811.03 -4329.58,2218.85 -3771.13,4807.11z"/>
  <path class="fil1" d="M113470.12 16861.05c12.15,-16.01 24.24,-31.99 36.14,-47.83 575.29,-562.03 684.37,-1423.04 1400.66,-1889.29 -215.4,358.72 -430.99,717.4 -646.39,1076.12 -77.63,231.12 16.32,362.1 -72.01,597.89l36.14 0c970.34,-240.41 1896.4,-440.65 2442.03,-956.61 696,-658.4 698.38,-1707.24 1113.25,-2559.05 288.53,-591.83 902.08,-948.39 1400.66,-1387.19l-179.52 0c-577.8,173.71 -1215.06,202.26 -1759.83,358.85 -2821.74,811.03 -4329.58,2218.85 -3771.13,4807.11z"/>
  <path class="fil1" d="M46472.47 6002.64c-107.69,318.86 -215.59,637.8 -323.28,956.79 -328.19,532.21 -1173.84,983.9 -933.74,1841.47 131.69,470 459.67,816 646.59,1219.73 23.78,-8.09 47.76,-16.01 72.01,-23.93 203.5,-605.82 406.94,-1211.77 610.44,-1817.59 47.77,-406.5 95.81,-813.35 143.57,-1219.68l35.95 0c62.9,1233.33 -381.83,2061.6 -502.81,3108.98 1555.21,-754.18 1817.38,-1960.22 933.74,-3300.55 -178.27,-270.06 -364.06,-587.34 -682.47,-765.22z"/>
  <path class="fil1" d="M124388.21 10140.58c-107.69,318.86 -215.59,637.8 -323.28,956.79 -328.19,532.21 -1173.84,983.9 -933.74,1841.47 131.69,470 459.67,816 646.59,1219.73 23.78,-8.09 47.76,-16.01 72.01,-23.93 203.5,-605.82 406.94,-1211.77 610.44,-1817.59 47.77,-406.5 95.81,-813.35 143.57,-1219.68l35.95 0c62.9,1233.33 -381.83,2061.6 -502.81,3108.98 1555.21,-754.18 1817.38,-1960.22 933.74,-3300.55 -178.27,-270.06 -364.06,-587.34 -682.47,-765.22z"/>
  <path class="fil1" d="M46759.89 11192.49c68.32,-226.77 475.26,-795.63 359.16,-908.79 -1333.73,686.2 -2609.38,735.26 -3232.45,1961.19 -206.74,406.81 -142.18,1194.08 215.6,1458.73 200.46,-707.81 1096,-1888.06 1795.71,-2271.91 11.89,-23.93 24.05,-47.82 36.14,-71.89 -8.19,35.24 14.67,24.07 -36.14,71.89 -377.6,764.26 -1357.05,1224.48 -1436.54,2224.08 2268.92,-267.6 1888.74,-1106.52 2298.52,-2463.3z"/>
  <path class="fil1" d="M124675.63 15330.43c68.32,-226.77 475.26,-795.63 359.16,-908.79 -1333.73,686.2 -2609.38,735.26 -3232.45,1961.19 -206.74,406.81 -142.18,1194.08 215.6,1458.73 200.46,-707.81 1096,-1888.06 1795.71,-2271.91 11.89,-23.93 24.05,-47.82 36.14,-71.89 -8.19,35.24 14.67,24.07 -36.14,71.89 -377.6,764.26 -1357.05,1224.48 -1436.54,2224.08 2268.92,-267.6 1888.74,-1106.52 2298.52,-2463.3z"/>
  <path class="fil1" d="M43240.22 8298.61l35.94 0c-6.07,-564.98 474.07,-1640.48 718.34,-2176.43l35.95 0c-38.99,560.63 -174.83,1145.33 -179.72,1793.82 522.3,-69.38 956.33,-364.88 1292.9,-574.13 1757.72,-1091.66 491.84,-1927.63 969.67,-3611.28 87.42,-307.5 747.48,-1297.16 718.34,-1315.33 -502.74,199.18 -1005.49,398.62 -1508.49,597.89 -1386,670.23 -3542.73,2135.82 -2944.84,3922.21 178.06,531.95 627.22,892.82 861.91,1363.25z"/>
  <path class="fil1" d="M121155.96 12436.55l35.94 0c-6.07,-564.98 474.07,-1640.48 718.34,-2176.43l35.95 0c-38.99,560.63 -174.83,1145.33 -179.72,1793.82 522.3,-69.38 956.33,-364.88 1292.9,-574.13 1757.72,-1091.66 491.84,-1927.63 969.67,-3611.28 87.42,-307.5 747.48,-1297.16 718.34,-1315.33 -502.74,199.18 -1005.49,398.62 -1508.49,597.89 -1386,670.23 -3542.73,2135.82 -2944.84,3922.21 178.06,531.95 627.22,892.82 861.91,1363.25z"/>
  <path class="fil1" d="M43518.64 28912.88c586.66,-135.52 1173.38,-271.17 1759.77,-406.68 1928.85,-577.27 2391.28,-1814.94 2873.28,-3372.1 90.26,-291.36 468.32,-1537.75 323.09,-1769.93 -1158.9,1474.09 -4129.18,1829.86 -5135.66,3348.34 -254.77,384.32 -722.56,1682.68 -179.71,2152.41 234.02,-487.73 2813.42,-2480.69 3447.84,-2798.14 -289.26,542.33 -1119.06,935.5 -1615.99,1363.13 -549.39,472.8 -990.82,953.05 -1472.62,1482.97z"/>
  <path class="fil1" d="M121434.38 33050.82c586.66,-135.52 1173.38,-271.17 1759.77,-406.68 1928.85,-577.27 2391.28,-1814.94 2873.28,-3372.1 90.26,-291.36 468.32,-1537.75 323.09,-1769.93 -1158.9,1474.09 -4129.18,1829.86 -5135.66,3348.34 -254.77,384.32 -722.56,1682.68 -179.71,2152.41 234.02,-487.73 2813.42,-2480.69 3447.84,-2798.14 -289.26,542.33 -1119.06,935.5 -1615.99,1363.13 -549.39,472.8 -990.82,953.05 -1472.62,1482.97z"/>
  <path class="fil1" d="M58611.46 16310.5c35.94,-7.93 72.01,-16.02 107.96,-23.94 349.85,-345.35 872.22,-860.52 1472.42,-1028.29l0 23.76c-404.89,358.85 -917.94,646.16 -1149.13,1124.07 649.16,-168.73 1360.96,-225.23 1867.46,-478.22 676.45,-338.08 1090.66,-944.96 1616,-1387.18 341,-286.83 811.89,-422.53 1292.96,-621.79 -658.27,-8.1 -1316.75,-16.02 -1975.42,-23.94 -514.64,103.53 -1029.54,207.24 -1544.24,310.94 -869.18,260.43 -2096.34,1112.9 -1688.01,2104.59z"/>
  <path class="fil1" d="M136527.2 20448.44c35.94,-7.93 72.01,-16.02 107.96,-23.94 349.85,-345.35 872.22,-860.52 1472.42,-1028.29l0 23.76c-404.89,358.85 -917.94,646.16 -1149.13,1124.07 649.16,-168.73 1360.96,-225.23 1867.46,-478.22 676.45,-338.08 1090.66,-944.96 1616,-1387.18 341,-286.83 811.89,-422.53 1292.96,-621.79 -658.27,-8.1 -1316.75,-16.02 -1975.42,-23.94 -514.64,103.53 -1029.54,207.24 -1544.24,310.94 -869.18,260.43 -2096.34,1112.9 -1688.01,2104.59z"/>
  <path class="fil1" d="M39684.74 23054.82l35.89 0c2519.92,-804.34 1736.5,-1494.72 2334.39,-3420.06 72.95,-234.99 502.74,-1267.51 502.74,-1267.51 -1480.34,984.69 -4496.94,1816.22 -3806.81,3826.6 118.2,343.94 198.61,732.14 502.8,956.58 70.84,-546.02 1442.56,-2773.59 1903.41,-3061.21 -179.52,271.03 -359.23,542.2 -538.68,813.05 -421.88,713.53 -684.84,1307.56 -933.74,2152.55z"/>
  <path class="fil1" d="M117600.48 27192.76l35.89 0c2519.92,-804.34 1736.5,-1494.72 2334.39,-3420.06 72.95,-234.99 502.74,-1267.51 502.74,-1267.51 -1480.34,984.69 -4496.94,1816.22 -3806.81,3826.6 118.2,343.94 198.61,732.14 502.8,956.58 70.84,-546.02 1442.56,-2773.59 1903.41,-3061.21 -179.52,271.03 -359.23,542.2 -538.68,813.05 -421.88,713.53 -684.84,1307.56 -933.74,2152.55z"/>
  <path class="fil1" d="M61089.7 21524.24l-35.95 0c-1174.03,373.15 -2716.82,311.82 -2801.26,1411.08 608.39,-14.13 827.95,-295.72 1257.08,-430.57 -318.39,295.36 -748.46,474.04 -1221.4,669.61 12.15,15.97 24.24,31.94 36.14,47.78 1643.74,19.71 2561.61,-776.22 2765.39,-1697.9z"/>
  <path class="fil1" d="M139005.44 25662.18l-35.95 0c-1174.03,373.15 -2716.82,311.82 -2801.26,1411.08 608.39,-14.13 827.95,-295.72 1257.08,-430.57 -318.39,295.36 -748.46,474.04 -1221.4,669.61 12.15,15.97 24.24,31.94 36.14,47.78 1643.74,19.71 2561.61,-776.22 2765.39,-1697.9z"/>
  <path class="fil1" d="M58611.46 10690.2l35.94 -23.89c-5.41,-640.57 -1129.11,-1662.04 -1580.12,-2128.47 781.97,274.11 1144.71,1375.04 1831.86,1769.62l35.61 0c65.28,-1667.37 -1086.63,-2476.94 -3268.13,-2726.24l-35.87 23.89c206.54,195.57 468.51,355.77 610.43,597.76 664.82,1132 379.25,2247.23 2370.28,2487.33z"/>
  <path class="fil1" d="M136527.2 14828.14l35.94 -23.89c-5.41,-640.57 -1129.11,-1662.04 -1580.12,-2128.47 781.97,274.11 1144.71,1375.04 1831.86,1769.62l35.61 0c65.28,-1667.37 -1086.63,-2476.94 -3268.13,-2726.24l-35.87 23.89c206.54,195.57 468.51,355.77 610.43,597.76 664.82,1132 379.25,2247.23 2370.28,2487.33z"/>
  <path class="fil1" d="M51428.88 27120.42c11.89,31.99 23.78,63.97 35.68,95.78 806.67,38.81 1805.03,79.16 2478.17,-95.78 2146.48,-557.38 2649.76,-2380.86 5207.62,-2702.48 -543.32,-275.83 -2600.08,-218.85 -3591.63,-215.11 -430.72,55.7 -861.97,111.58 -1292.7,167.32 -1427.88,296.6 -2216.19,815.17 -2909.16,1602.3 -193.46,220.08 -622.33,791.58 -394.85,1172.04 23.73,-8.06 47.78,-15.98 71.56,-24.07 218.83,-445.44 1562.34,-1333.91 2334.59,-1387.01l0 23.89 -72.01 0c-167.36,111.62 -335.19,223.2 -502.81,334.83 486.23,-142.03 825.37,-420.5 1364.98,-549.94 -36.14,31.81 -72.02,63.62 -107.7,95.61 -906.9,239.48 -2168.88,928.02 -2621.74,1482.62z"/>
  <path class="fil1" d="M129344.62 31258.36c11.89,31.99 23.78,63.97 35.68,95.78 806.67,38.81 1805.03,79.16 2478.17,-95.78 2146.48,-557.38 2649.76,-2380.86 5207.62,-2702.48 -543.32,-275.83 -2600.08,-218.85 -3591.63,-215.11 -430.72,55.7 -861.97,111.58 -1292.7,167.32 -1427.88,296.6 -2216.19,815.17 -2909.16,1602.3 -193.46,220.08 -622.33,791.58 -394.85,1172.04 23.73,-8.06 47.78,-15.98 71.56,-24.07 218.83,-445.44 1562.34,-1333.91 2334.59,-1387.01l0 23.89 -72.01 0c-167.36,111.62 -335.19,223.2 -502.81,334.83 486.23,-142.03 825.37,-420.5 1364.98,-549.94 -36.14,31.81 -72.02,63.62 -107.7,95.61 -906.9,239.48 -2168.88,928.02 -2621.74,1482.62z"/>
  <path class="fil1" d="M63639.42 21548.13c87.41,206.44 127.98,439.72 323.29,573.83 -12.62,-818.77 647.05,-1439.63 934,-2104.41l35.87 0c-169,679.51 -580.64,1230.69 -754.27,2032.69l35.87 0c1041.24,-335.58 1638.66,-1178.23 1328.84,-2247.98 -88.33,-305.65 -79.02,-616.86 -359.16,-789.28 -130.03,987.15 -2096.61,1229.75 -1544.44,2535.15z"/>
  <path class="fil1" d="M141555.16 25686.07c87.41,206.44 127.98,439.72 323.29,573.83 -12.62,-818.77 647.05,-1439.63 934,-2104.41l35.87 0c-169,679.51 -580.64,1230.69 -754.27,2032.69l35.87 0c1041.24,-335.58 1638.66,-1178.23 1328.84,-2247.98 -88.33,-305.65 -79.02,-616.86 -359.16,-789.28 -130.03,987.15 -2096.61,1229.75 -1544.44,2535.15z"/>
  <path class="fil1" d="M56851.69 21093.67l36.07 0c35.95,-16.02 71.83,-31.86 107.7,-47.83 555.67,-819.87 2793.34,-1656.94 4237.81,-1913.19 -23.79,23.89 -47.77,47.78 -71.56,71.72 -1407.87,295.05 -3226.9,1027.19 -3843.15,1865.36 24.25,16.02 47.96,31.99 72.01,47.83 2952.04,394.71 4804.64,-1006.73 5782.18,-2056.63 154.81,-166.4 1148.93,-1223.9 1005.56,-1315.47 -1176.42,578.32 -3020.1,417.37 -4632.85,741.34 -1597.57,320.97 -2570.48,1313.88 -2693.77,2606.87z"/>
  <path class="fil1" d="M134767.43 25231.61l36.07 0c35.95,-16.02 71.83,-31.86 107.7,-47.83 555.67,-819.87 2793.34,-1656.94 4237.81,-1913.19 -23.79,23.89 -47.77,47.78 -71.56,71.72 -1407.87,295.05 -3226.9,1027.19 -3843.15,1865.36 24.25,16.02 47.96,31.99 72.01,47.83 2952.04,394.71 4804.64,-1006.73 5782.18,-2056.63 154.81,-166.4 1148.93,-1223.9 1005.56,-1315.47 -1176.42,578.32 -3020.1,417.37 -4632.85,741.34 -1597.57,320.97 -2570.48,1313.88 -2693.77,2606.87z"/>
  <path class="fil1" d="M56169.62 13321.01c778.08,-326.91 1556.14,-653.78 2334.14,-980.51 -430,492.66 -1808.26,633.76 -2082.86,1195.8 35.87,7.91 71.82,15.84 107.7,23.89 699.71,-114.71 1318.14,-99.17 1831.58,-310.9 546.16,-225.05 2129.51,-1459.83 1759.84,-2128.65 -621.41,536.87 -1687.82,421.42 -2693.57,717.58 -731.42,215.28 -1115.3,879.92 -1256.83,1482.79z"/>
  <path class="fil1" d="M134085.36 17458.95c778.08,-326.91 1556.14,-653.78 2334.14,-980.51 -430,492.66 -1808.26,633.76 -2082.86,1195.8 35.87,7.91 71.82,15.84 107.7,23.89 699.71,-114.71 1318.14,-99.17 1831.58,-310.9 546.16,-225.05 2129.51,-1459.83 1759.84,-2128.65 -621.41,536.87 -1687.82,421.42 -2693.57,717.58 -731.42,215.28 -1115.3,879.92 -1256.83,1482.79z"/>
  <path class="fil1" d="M48555.6 11718.54l0 -47.83c443.34,-488.47 536.11,-1307.24 1328.84,-1554.47l0 24.02c-443.34,461.81 -854.31,934.14 -1005.82,1602.35l36.14 0c1479.89,-516.72 1464.5,-1297.97 1975.24,-2391.77l-107.7 0c-1485.5,591.56 -2981.9,709.83 -2262.58,2367.7l35.88 0z"/>
  <path class="fil1" d="M126471.34 15856.48l0 -47.83c443.34,-488.47 536.11,-1307.24 1328.84,-1554.47l0 24.02c-443.34,461.81 -854.31,934.14 -1005.82,1602.35l36.14 0c1479.89,-516.72 1464.5,-1297.97 1975.24,-2391.77l-107.7 0c-1485.5,591.56 -2981.9,709.83 -2262.58,2367.7l35.88 0z"/>
  <path class="fil1" d="M46724.01 15258.27c-853.12,1396.95 -2482.2,1738.25 -1831.65,3850.45 95.8,358.71 191.6,717.43 287.21,1076.16 514.64,-709.35 1029.54,-1419.18 1544.44,-2128.52 250.55,-523.41 346.81,-1082.02 502.74,-1674.15 47.77,-350.67 95.81,-701.6 143.84,-1052.23l35.88 0c44.99,1761.71 -511.86,2461.9 -1185.27,3635.17 -191.61,406.55 -383.15,813.18 -574.76,1219.73 459.86,-100.28 772.65,-344.6 1113.45,-526.22 2267,-1207.59 2448.37,-3179.17 1149.12,-5141.86 -221.66,-334.96 -405.08,-683.12 -754.07,-932.72 -229.8,595.74 -131.23,1183.08 -430.93,1674.19z"/>
  <path class="fil1" d="M124639.75 19396.21c-853.12,1396.95 -2482.2,1738.25 -1831.65,3850.45 95.8,358.71 191.6,717.43 287.21,1076.16 514.64,-709.35 1029.54,-1419.18 1544.44,-2128.52 250.55,-523.41 346.81,-1082.02 502.74,-1674.15 47.77,-350.67 95.81,-701.6 143.84,-1052.23l35.88 0c44.99,1761.71 -511.86,2461.9 -1185.27,3635.17 -191.61,406.55 -383.15,813.18 -574.76,1219.73 459.86,-100.28 772.65,-344.6 1113.45,-526.22 2267,-1207.59 2448.37,-3179.17 1149.12,-5141.86 -221.66,-334.96 -405.08,-683.12 -754.07,-932.72 -229.8,595.74 -131.23,1183.08 -430.93,1674.19z"/>
  <path class="fil1" d="M24385.27 5500.39c258.08,-689.63 1073.14,-2166.53 1759.83,-2558.91 11.89,-23.94 23.78,-47.83 35.68,-71.72 -7.73,35.07 14.93,23.89 -35.68,71.72 -354.75,735.09 -1398.55,1403.6 -1221.15,2391.59 23.78,7.92 47.77,15.97 71.82,23.89 863.37,-183.79 1833.24,-432.91 2334.33,-861.01 749.4,-639.96 847.97,-1546.73 1257.09,-2439.37 381.11,-831.84 923.5,-1469.29 1688.01,-2032.91l-179.71 0c-550.58,119.54 -1101.36,239.22 -1651.87,358.72 -2201.99,608.94 -3743.46,1505.01 -4273.95,3252.59 -174.37,574.32 -242.88,1409.98 143.84,1889.43 23.78,-8.05 47.77,-15.96 71.76,-24.02z"/>
  <path class="fil1" d="M27581.64 1578.18c-27.75,211.11 -710.48,761.97 -1005.56,908.79 212.36,-366.9 670.38,-619.45 1005.56,-908.79z"/>
  <path class="fil1" d="M105497.38 5716.12c-27.75,211.11 -710.48,761.97 -1005.56,908.79 212.36,-366.9 670.38,-619.45 1005.56,-908.79z"/>
  <path class="fil2" d="M26539.94 2486.97c-7.66,35.25 14.94,24.07 -35.67,71.9 11.89,-23.94 23.78,-47.83 35.67,-71.9z"/>
  <path class="fil2" d="M104455.68 6624.91c-7.66,35.25 14.94,24.07 -35.67,71.9 11.89,-23.94 23.78,-47.83 35.67,-71.9z"/>
  <path class="fil1" d="M53906.85 18773.8c191.55,-191.26 382.96,-382.61 574.56,-574.01 597.63,-630.36 1267.73,-1279.3 1652.08,-2032.73l36.13 0c-254.31,1134.81 -1913.38,1935.23 -2047.44,2869.81l36.14 0c1881.47,-474.18 3105,-1417.28 2621.82,-3348.21 -110.74,-441.44 -71.36,-905.23 -323.37,-1267.47 -453.58,1297.43 -2215.93,1639.7 -2729.43,2606.87 -169.94,319.75 -49.62,1541.14 179.51,1745.74z"/>
  <path class="fil1" d="M131822.59 22911.74c191.55,-191.26 382.96,-382.61 574.56,-574.01 597.63,-630.36 1267.73,-1279.3 1652.08,-2032.73l36.13 0c-254.31,1134.81 -1913.38,1935.23 -2047.44,2869.81l36.14 0c1881.47,-474.18 3105,-1417.28 2621.82,-3348.21 -110.74,-441.44 -71.36,-905.23 -323.37,-1267.47 -453.58,1297.43 -2215.93,1639.7 -2729.43,2606.87 -169.94,319.75 -49.62,1541.14 179.51,1745.74z"/>
  <path class="fil1" d="M53439.92 7652.94c-128.64,231.56 -240.97,601.76 -143.77,837.07 81.06,195.88 482.92,424.06 395.31,621.65 -395.31,263.07 -790.42,526.36 -1185.27,789.3 -1380.32,1147.65 -3124.29,2632.61 -1831.85,4615.84 235.41,361.01 498.84,775.61 934,1004.4 -40.77,-1207.28 122.62,-4210.75 1077.37,-4687.39 -585.53,1160.55 -1331.42,3041.76 -610.51,4424.46 24.05,-15.97 47.84,-31.99 71.82,-47.83 2357.92,-736.97 1718.08,-2796.68 1328.84,-4615.85 -156.39,-731.69 522.31,-1271.07 430.99,-1817.58 219.3,66.88 289.92,333.25 395.05,478.22l0 -47.78c810.24,-615.63 -211.43,-1316.26 -861.98,-1554.51z"/>
  <path class="fil1" d="M131355.66 11790.88c-128.64,231.56 -240.97,601.76 -143.77,837.07 81.06,195.88 482.92,424.06 395.31,621.65 -395.31,263.07 -790.42,526.36 -1185.27,789.3 -1380.32,1147.65 -3124.29,2632.61 -1831.85,4615.84 235.41,361.01 498.84,775.61 934,1004.4 -40.77,-1207.28 122.62,-4210.75 1077.37,-4687.39 -585.53,1160.55 -1331.42,3041.76 -610.51,4424.46 24.05,-15.97 47.84,-31.99 71.82,-47.83 2357.92,-736.97 1718.08,-2796.68 1328.84,-4615.85 -156.39,-731.69 522.31,-1271.07 430.99,-1817.58 219.3,66.88 289.92,333.25 395.05,478.22l0 -47.78c810.24,-615.63 -211.43,-1316.26 -861.98,-1554.51z"/>
  <path class="fil1" d="M52901.3 6050.46c-12.16,15.97 -24.05,31.99 -35.94,47.83 -1394.99,369.41 -2862.05,1490.36 -3591.42,2343.76 682.26,-107.58 1570.8,-137.36 2118.8,-358.72 877.11,-354.06 1371.46,-1273.41 1939.55,-1841.47 269.44,-269.63 778,-456.36 1005.48,-717.45l-1580.05 0c-419.09,55.75 -838.18,111.45 -1257.28,167.33 -1301.1,265.75 -2114.12,683.92 -2549.79,1530.63 -118.41,230.02 -339.62,938.75 -107.64,1172.03 426.03,-587.82 3048.31,-2154.57 4058.29,-2343.94z"/>
  <path class="fil1" d="M130817.04 10188.4c-12.16,15.97 -24.05,31.99 -35.94,47.83 -1394.99,369.41 -2862.05,1490.36 -3591.42,2343.76 682.26,-107.58 1570.8,-137.36 2118.8,-358.72 877.11,-354.06 1371.46,-1273.41 1939.55,-1841.47 269.44,-269.63 778,-456.36 1005.48,-717.45l-1580.05 0c-419.09,55.75 -838.18,111.45 -1257.28,167.33 -1301.1,265.75 -2114.12,683.92 -2549.79,1530.63 -118.41,230.02 -339.62,938.75 -107.64,1172.03 426.03,-587.82 3048.31,-2154.57 4058.29,-2343.94z"/>
  <path class="fil1" d="M49309.88 22552.53c1354.21,-316.31 1596.17,-1646.69 1292.9,-2774.2 -95.34,-354.5 52.26,-1021.65 -287.34,-1219.68 -514.25,1127.5 -3017.33,1787.31 -2118.81,3467.7 162.66,304.38 312.32,624.61 646.38,813.18l35.61 0c114.71,-1023.98 440.77,-1738.73 826.1,-2511.08l72.03 0 0 23.89c-220.29,383.53 -886.23,1853 -466.87,2200.19z"/>
  <path class="fil1" d="M127225.62 26690.47c1354.21,-316.31 1596.17,-1646.69 1292.9,-2774.2 -95.34,-354.5 52.26,-1021.65 -287.34,-1219.68 -514.25,1127.5 -3017.33,1787.31 -2118.81,3467.7 162.66,304.38 312.32,624.61 646.38,813.18l35.61 0c114.71,-1023.98 440.77,-1738.73 826.1,-2511.08l72.03 0 0 23.89c-220.29,383.53 -886.23,1853 -466.87,2200.19z"/>
  <path class="fil1" d="M52701.13 33983.94c-1205.09,-1098.34 -1357.25,-2380.59 -4309.56,-2367.7 -131.68,24.07 -263.42,47.96 -395.11,71.85l0 95.66c885.96,542.14 1771.73,1084.16 2657.69,1626.18 -825.38,-207.85 -2437.21,-1613.65 -3088.68,-1554.51 -3.24,2241.2 2932.49,2624.42 6033.71,2798.26 -24.25,-24.06 -47.96,-47.78 -72.01,-71.84 -360.09,-119.07 -595.51,-387.9 -826.04,-597.9z"/>
  <path class="fil1" d="M130616.87 38121.88c-1205.09,-1098.34 -1357.25,-2380.59 -4309.56,-2367.7 -131.68,24.07 -263.42,47.96 -395.11,71.85l0 95.66c885.96,542.14 1771.73,1084.16 2657.69,1626.18 -825.38,-207.85 -2437.21,-1613.65 -3088.68,-1554.51 -3.24,2241.2 2932.49,2624.42 6033.71,2798.26 -24.25,-24.06 -47.96,-47.78 -72.01,-71.84 -360.09,-119.07 -595.51,-387.9 -826.04,-597.9z"/>
  <path class="fil1" d="M1615.4 21787.3c286.22,131.04 1050.28,463.18 1544.44,334.66 -23.99,-7.92 -47.78,-15.84 -71.83,-23.76 -263.82,-240.58 -576.14,-467.97 -754.27,-765.35 71.81,39.9 143.83,79.77 215.65,119.5 99.97,164.37 337.7,285.77 538.62,382.78 255.04,-213.13 95.8,-879.31 -35.87,-1100.18 -405.36,-678.59 -1551.44,-908.49 -2298.45,-1363.25 -203.78,-183.35 -407.21,-366.82 -610.71,-549.94 -230.33,1370.86 214.93,2389.56 1472.42,2965.54z"/>
  <path class="fil1" d="M79531.14 25925.24c286.22,131.04 1050.28,463.18 1544.44,334.66 -23.99,-7.92 -47.78,-15.84 -71.83,-23.76 -263.82,-240.58 -576.14,-467.97 -754.27,-765.35 71.81,39.9 143.83,79.77 215.65,119.5 99.97,164.37 337.7,285.77 538.62,382.78 255.04,-213.13 95.8,-879.31 -35.87,-1100.18 -405.36,-678.59 -1551.44,-908.49 -2298.45,-1363.25 -203.78,-183.35 -407.21,-366.82 -610.71,-549.94 -230.33,1370.86 214.93,2389.56 1472.42,2965.54z"/>
  <path class="fil1" d="M2333.74 17817.18l0 -71.72c-263.37,-310.89 -526.74,-621.79 -790.16,-932.68 24.05,7.88 48.03,15.97 71.82,23.89 311.4,231.12 622.6,462.38 933.99,693.51l35.62 0c22.86,-900.26 -645.86,-966.21 -1292.71,-1387.19 -131.68,-135.51 -263.36,-270.98 -395.04,-406.5 -176.68,928.5 -59.47,2046.06 1436.48,2080.69z"/>
  <path class="fil1" d="M80249.48 21955.12l0 -71.72c-263.37,-310.89 -526.74,-621.79 -790.16,-932.68 24.05,7.88 48.03,15.97 71.82,23.89 311.4,231.12 622.6,462.38 933.99,693.51l35.62 0c22.86,-900.26 -645.86,-966.21 -1292.71,-1387.19 -131.68,-135.51 -263.36,-270.98 -395.04,-406.5 -176.68,928.5 -59.47,2046.06 1436.48,2080.69z"/>
  <path class="fil0" d="M1471.82 16693.11c11.89,24.02 23.98,47.78 35.88,71.84l-35.88 0 0 -71.84z"/>
  <path class="fil0" d="M79387.56 20831.05c11.89,24.02 23.98,47.78 35.88,71.84l-35.88 0 0 -71.84z"/>
  <path class="fil1" d="M5242.96 25733.41c-24.05,-23.89 -48.04,-47.83 -71.82,-71.72 -778.27,-406.68 -1556.53,-813.18 -2334.6,-1219.69 957.52,382.62 1915.5,765.23 2873.28,1147.97 -372.71,-1843.98 -2026.96,-1723.69 -4381.57,-2200.32 -430.99,-135.52 -861.99,-271.04 -1292.97,-406.55 820.02,1064.5 2439.06,3314.2 5207.68,2750.31z"/>
  <path class="fil1" d="M83158.7 29871.35c-24.05,-23.89 -48.04,-47.83 -71.82,-71.72 -778.27,-406.68 -1556.53,-813.18 -2334.6,-1219.69 957.52,382.62 1915.5,765.23 2873.28,1147.97 -372.71,-1843.98 -2026.96,-1723.69 -4381.57,-2200.32 -430.99,-135.52 -861.99,-271.04 -1292.97,-406.55 820.02,1064.5 2439.06,3314.2 5207.68,2750.31z"/>
  <path class="fil2" d="M2692.96 24370.15l0 24.03 -35.94 0c-148.92,-58.65 -280.14,-106.61 -359.17,-215.29 131.69,63.67 263.44,127.6 395.11,191.26z"/>
  <path class="fil2" d="M80608.7 28508.09l0 24.03 -35.94 0c-148.92,-58.65 -280.14,-106.61 -359.17,-215.29 131.69,63.67 263.44,127.6 395.11,191.26z"/>
  <path class="fil1" d="M1866.86 26642.2l143.58 0c131.75,95.61 263.43,191.39 395.11,287l35.88 0c174.36,-1019.75 -351.5,-909.72 -1256.76,-1363.25 -179.72,-127.47 -359.23,-255.06 -538.95,-382.61 -36.34,984.38 304.2,1714.05 1472.68,1865.36 -83.91,-135.47 -167.82,-270.99 -251.54,-406.5z"/>
  <path class="fil1" d="M79782.6 30780.14l143.58 0c131.75,95.61 263.43,191.39 395.11,287l35.88 0c174.36,-1019.75 -351.5,-909.72 -1256.76,-1363.25 -179.72,-127.47 -359.23,-255.06 -538.95,-382.61 -36.34,984.38 304.2,1714.05 1472.68,1865.36 -83.91,-135.47 -167.82,-270.99 -251.54,-406.5z"/>
  <path class="fil1" d="M4021.81 19754.44c574.3,1988.47 1650.48,3115.36 4668.73,3443.81 -23.79,-16.01 -47.77,-31.81 -71.82,-47.82 -185.73,-278.6 -592.27,-445.01 -861.91,-669.62 -526.53,-438.93 -1205.56,-947.6 -1544.24,-1482.75 47.77,23.89 95.8,47.78 143.58,71.67 320.51,482.45 1652.13,1424.77 2298.51,1722.02 27.03,-2368.62 -860.59,-2708.73 -2801.26,-3730.82 -733.8,-386.65 -1072.22,-939.06 -1652.14,-1434.97 -313.04,600.06 -382.29,1426.88 -179.45,2128.48z"/>
  <path class="fil1" d="M81937.55 23892.38c574.3,1988.47 1650.48,3115.36 4668.73,3443.81 -23.79,-16.01 -47.77,-31.81 -71.82,-47.82 -185.73,-278.6 -592.27,-445.01 -861.91,-669.62 -526.53,-438.93 -1205.56,-947.6 -1544.24,-1482.75 47.77,23.89 95.8,47.78 143.58,71.67 320.51,482.45 1652.13,1424.77 2298.51,1722.02 27.03,-2368.62 -860.59,-2708.73 -2801.26,-3730.82 -733.8,-386.65 -1072.22,-939.06 -1652.14,-1434.97 -313.04,600.06 -382.29,1426.88 -179.45,2128.48z"/>
  <path class="fil2" d="M4524.55 18463.04c89.07,57.42 1201.79,1947.82 1292.97,2128.47 -47.83,-24.02 -95.81,-47.96 -143.84,-71.85 -326.33,-554.11 -1284.57,-1342.48 -1149.13,-2056.62z"/>
  <path class="fil2" d="M82440.29 22600.98c89.07,57.42 1201.79,1947.82 1292.97,2128.47 -47.83,-24.02 -95.81,-47.96 -143.84,-71.85 -326.33,-554.11 -1284.57,-1342.48 -1149.13,-2056.62z"/>
  <path class="fil1" d="M3195.71 14827.7l0 -47.83c396.7,-607.84 -242.88,-1917.85 71.82,-2511.09 23.98,7.93 47.97,15.84 71.76,23.76 56.88,825.72 306.5,1838.83 143.83,2702.49l35.88 0 0 -47.83c1531.62,-895.29 865.48,-2919.62 -610.7,-3587.38 -23.72,247.09 -47.77,494.36 -71.76,741.46 -338.42,830.74 -1015.79,1485.61 -179.52,2343.63 152.5,156.63 242.88,321.14 538.69,382.79z"/>
  <path class="fil1" d="M81111.45 18965.64l0 -47.83c396.7,-607.84 -242.88,-1917.85 71.82,-2511.09 23.98,7.93 47.97,15.84 71.76,23.76 56.88,825.72 306.5,1838.83 143.83,2702.49l35.88 0 0 -47.83c1531.62,-895.29 865.48,-2919.62 -610.7,-3587.38 -23.72,247.09 -47.77,494.36 -71.76,741.46 -338.42,830.74 -1015.79,1485.61 -179.52,2343.63 152.5,156.63 242.88,321.14 538.69,382.79z"/>
  <path class="fil1" d="M10091.4 14086.23c-602.77,-779.21 -1601.98,-1362.68 -2047.18,-2295.84 23.72,7.91 47.77,15.84 71.75,23.93 230.33,455.57 1417.65,1703.63 2011.11,1889.3l0 -47.83c163.14,-225.22 143.78,-556.93 143.78,-884.9 0,-1592.04 -1679.36,-1601.06 -2693.57,-2463.43 -241.43,-205.21 -681.27,-852.47 -933.73,-980.51 -641.24,2522.75 202.57,4315.34 3447.84,4759.28z"/>
  <path class="fil1" d="M88007.14 18224.17c-602.77,-779.21 -1601.98,-1362.68 -2047.18,-2295.84 23.72,7.91 47.77,15.84 71.75,23.93 230.33,455.57 1417.65,1703.63 2011.11,1889.3l0 -47.83c163.14,-225.22 143.78,-556.93 143.78,-884.9 0,-1592.04 -1679.36,-1601.06 -2693.57,-2463.43 -241.43,-205.21 -681.27,-852.47 -933.73,-980.51 -641.24,2522.75 202.57,4315.34 3447.84,4759.28z"/>
  <path class="fil1" d="M8008.28 30707.97c-969.42,-177.75 -2112.73,66.44 -3016.86,167.33 -1172.65,130.98 -2124.82,-117.83 -2908.89,-287 245.85,372.18 819.49,630.32 1185,932.68 1776.82,1469.91 4635.89,2033.53 7434.32,837.12 -764.53,-641.37 -1335.33,-1401.18 -2693.57,-1650.13z"/>
  <path class="fil1" d="M85924.02 34845.91c-969.42,-177.75 -2112.73,66.44 -3016.86,167.33 -1172.65,130.98 -2124.82,-117.83 -2908.89,-287 245.85,372.18 819.49,630.32 1185,932.68 1776.82,1469.91 4635.89,2033.53 7434.32,837.12 -764.53,-641.37 -1335.33,-1401.18 -2693.57,-1650.13z"/>
  <path class="fil2" d="M10378.55 32405.88c-255.7,82.28 -2086.09,-263.24 -2370.27,-382.61 -47.97,-7.92 -95.81,-15.97 -143.77,-23.89l143.77 0 0 23.89c826.1,111.63 1652.13,223.2 2477.97,334.83 -35.88,15.97 -71.82,31.94 -107.7,47.78z"/>
  <path class="fil2" d="M88294.29 36543.82c-255.7,82.28 -2086.09,-263.24 -2370.27,-382.61 -47.97,-7.92 -95.81,-15.97 -143.77,-23.89l143.77 0 0 23.89c826.1,111.63 1652.13,223.2 2477.97,334.83 -35.88,15.97 -71.82,31.94 -107.7,47.78z"/>
  <path class="fil1" d="M10522.39 17960.75c88.54,-231.57 -69.91,-526.8 -143.84,-741.47 -532.6,-1549.06 -1640.7,-1468.05 -3232.19,-2224.25 -412.16,-195.76 -567.16,-525.26 -933.79,-741.34 -308.62,1940.08 1220.22,4105.33 4309.82,3707.06z"/>
  <path class="fil1" d="M88438.13 22098.69c88.54,-231.57 -69.91,-526.8 -143.84,-741.47 -532.6,-1549.06 -1640.7,-1468.05 -3232.19,-2224.25 -412.16,-195.76 -567.16,-525.26 -933.79,-741.34 -308.62,1940.08 1220.22,4105.33 4309.82,3707.06z"/>
  <path class="fil2" d="M9552.71 17410.68c349.66,146.34 865.22,189.81 969.68,502.24 -24.05,7.92 -48.03,15.84 -72.02,23.94 -961.48,-293.69 -2298.26,-1036.26 -2693.56,-1698.08 650.08,356.39 1057.74,862.68 1795.9,1171.9z"/>
  <path class="fil2" d="M87468.45 21548.62c349.66,146.34 865.22,189.81 969.68,502.24 -24.05,7.92 -48.03,15.84 -72.02,23.94 -961.48,-293.69 -2298.26,-1036.26 -2693.56,-1698.08 650.08,356.39 1057.74,862.68 1795.9,1171.9z"/>
  <path class="fil1" d="M62095.18 28531.5c731.02,-165.62 1094.16,-821.24 1723.95,-1076.12 -189.75,448.12 -864.08,767.73 -1292.96,1076.12 1418.57,-113.61 2255.37,-757.31 2262.58,-1793.69 1.65,-210.75 35.93,-481.79 -71.56,-621.79 -1004.83,1091.78 -2403.12,531.76 -2622.01,2415.48z"/>
  <path class="fil1" d="M140010.92 32669.44c731.02,-165.62 1094.16,-821.24 1723.95,-1076.12 -189.75,448.12 -864.08,767.73 -1292.96,1076.12 1418.57,-113.61 2255.37,-757.31 2262.58,-1793.69 1.65,-210.75 35.93,-481.79 -71.56,-621.79 -1004.83,1091.78 -2403.12,531.76 -2622.01,2415.48z"/>
  <path class="fil1" d="M57570.02 28053.28c-347.07,15.84 -694.35,31.8 -1041.42,47.82 -934,169 -1943.05,633.89 -2334.4,1171.86 394.38,-61.47 2491.98,10.12 2908.96,143.44 -505.79,-6.82 -3392.34,-46.25 -3591.42,167.5 867.99,271.91 1395.51,732.93 2513.85,956.57 2775.16,554.78 5911.35,-807.72 7075.41,-1745.86l0 -23.89c-2550.26,253.92 -3270.71,-607.23 -5530.98,-717.44z"/>
  <path class="fil1" d="M135485.76 32191.22c-347.07,15.84 -694.35,31.8 -1041.42,47.82 -934,169 -1943.05,633.89 -2334.4,1171.86 394.38,-61.47 2491.98,10.12 2908.96,143.44 -505.79,-6.82 -3392.34,-46.25 -3591.42,167.5 867.99,271.91 1395.51,732.93 2513.85,956.57 2775.16,554.78 5911.35,-807.72 7075.41,-1745.86l0 -23.89c-2550.26,253.92 -3270.71,-607.23 -5530.98,-717.44z"/>
  <path class="fil1" d="M21921.25 32640.22c430.98,-476.07 395.57,-1130.15 646.65,-1745.73 -12.16,-15.97 -24.05,-31.99 -35.95,-47.79 -434.69,158.62 -675.46,425.12 -1041.43,621.62 -874.07,469.37 -1719.93,927.14 -2621.75,1387.19 -568.28,289.81 -1110.93,708.42 -1831.85,884.9 556.4,-478.53 1551.65,-793.78 2298.72,-1147.97 941.93,-446.72 1998.23,-1130.77 2693.57,-1745.74l-897.86 0c-335.18,15.8 -670.63,31.82 -1005.82,47.79 -538.42,62.56 -1034.88,171.81 -1436.47,334.65 -1199.01,486.93 -1639.58,1565.2 -2442.1,2319.87 -382.95,287.01 -766.36,574.18 -1149.32,861.01 -251.28,119.67 -502.81,239.35 -754.08,358.85 2988.91,-56.98 6410.85,-839.89 7577.69,-2128.65z"/>
  <path class="fil1" d="M99836.99 36778.16c430.98,-476.07 395.57,-1130.15 646.65,-1745.73 -12.16,-15.97 -24.05,-31.99 -35.95,-47.79 -434.69,158.62 -675.46,425.12 -1041.43,621.62 -874.07,469.37 -1719.93,927.14 -2621.75,1387.19 -568.28,289.81 -1110.93,708.42 -1831.85,884.9 556.4,-478.53 1551.65,-793.78 2298.72,-1147.97 941.93,-446.72 1998.23,-1130.77 2693.57,-1745.74l-897.86 0c-335.18,15.8 -670.63,31.82 -1005.82,47.79 -538.42,62.56 -1034.88,171.81 -1436.47,334.65 -1199.01,486.93 -1639.58,1565.2 -2442.1,2319.87 -382.95,287.01 -766.36,574.18 -1149.32,861.01 -251.28,119.67 -502.81,239.35 -754.08,358.85 2988.91,-56.98 6410.85,-839.89 7577.69,-2128.65z"/>
  <path class="fil1" d="M61843.71 23963.61c-900.63,365.23 -1312.26,1205.25 -1328.58,2152.41 622.33,-342.71 1245.13,-685.59 1867.47,-1028.34 -402.32,361.67 -1133.27,677.41 -1364.73,1124.12 2278.9,-4.66 3313.13,-1100.97 3914.71,-2248.19 152.7,-291.18 548.93,-965.11 358.98,-1339.37 -657.29,827.31 -2264.96,859.91 -3447.85,1339.37z"/>
  <path class="fil1" d="M139759.45 28101.55c-900.63,365.23 -1312.26,1205.25 -1328.58,2152.41 622.33,-342.71 1245.13,-685.59 1867.47,-1028.34 -402.32,361.67 -1133.27,677.41 -1364.73,1124.12 2278.9,-4.66 3313.13,-1100.97 3914.71,-2248.19 152.7,-291.18 548.93,-965.11 358.98,-1339.37 -657.29,827.31 -2264.96,859.91 -3447.85,1339.37z"/>
  <path class="fil1" d="M61376.84 31425.37c-576.41,116.6 -898.77,479.46 -1149.13,813.18 12.1,31.81 23.99,63.8 35.89,95.61 1156.85,289.96 2395.44,-345.34 2442.28,-1076.12l-71.75 0c-273.21,160.64 -857.35,86.46 -1257.29,167.33z"/>
  <path class="fil1" d="M139292.58 35563.31c-576.41,116.6 -898.77,479.46 -1149.13,813.18 12.1,31.81 23.99,63.8 35.89,95.61 1156.85,289.96 2395.44,-345.34 2442.28,-1076.12l-71.75 0c-273.21,160.64 -857.35,86.46 -1257.29,167.33z"/>
  <path class="fil1" d="M40346.56 31401.13c232.11,519.49 246.12,1062.3 610.64,1482.75 1098.78,1267.38 3708.23,1663.94 6644.21,1697.96 -215.39,-143.44 -430.99,-286.83 -646.58,-430.44 -347.07,-334.79 -694.16,-669.62 -1041.49,-1004.4 -746.55,-814.9 -1034.63,-1702.57 -2585.6,-1985.09 -466.88,-23.89 -934,-47.78 -1400.87,-71.72 -407.93,98.43 -880.61,22.05 -1185.01,167.33 422.8,363.69 1117.88,569.65 1687.75,837.12 813.95,454.33 1628.15,908.79 2442.3,1363.25 382.95,183.34 766.44,366.64 1149.12,549.94 -771.98,-117.48 -1310.61,-599.92 -1867.46,-884.9 -1216.53,-622.27 -2453.98,-1174.37 -3807.01,-1721.8z"/>
  <path class="fil1" d="M118262.3 35539.07c232.11,519.49 246.12,1062.3 610.64,1482.75 1098.78,1267.38 3708.23,1663.94 6644.21,1697.96 -215.39,-143.44 -430.99,-286.83 -646.58,-430.44 -347.07,-334.79 -694.16,-669.62 -1041.49,-1004.4 -746.55,-814.9 -1034.63,-1702.57 -2585.6,-1985.09 -466.88,-23.89 -934,-47.78 -1400.87,-71.72 -407.93,98.43 -880.61,22.05 -1185.01,167.33 422.8,363.69 1117.88,569.65 1687.75,837.12 813.95,454.33 1628.15,908.79 2442.3,1363.25 382.95,183.34 766.44,366.64 1149.12,549.94 -771.98,-117.48 -1310.61,-599.92 -1867.46,-884.9 -1216.53,-622.27 -2453.98,-1174.37 -3807.01,-1721.8z"/>
  <path class="fil1" d="M22553.48 10451.03l0 -23.9c-550.32,-699.27 -1456.57,-1222.01 -1867.53,-2032.73 48.03,23.76 95.81,47.65 143.57,71.54 257.81,426.08 1314.38,1423.53 1867.74,1650.3 65.53,-523.1 453.58,-1113.08 251.26,-1769.8 -263.36,-855.42 -1327.38,-1304.91 -2190.75,-1769.8 -813.48,-438 -1214.67,-1072.55 -1795.51,-1674.01 -131.69,533.96 -263.63,1068.2 -395.31,1602.29 -504.4,2240.59 1604.82,3552.19 3986.53,3946.11z"/>
  <path class="fil1" d="M100469.22 14588.97l0 -23.9c-550.32,-699.27 -1456.57,-1222.01 -1867.53,-2032.73 48.03,23.76 95.81,47.65 143.57,71.54 257.81,426.08 1314.38,1423.53 1867.74,1650.3 65.53,-523.1 453.58,-1113.08 251.26,-1769.8 -263.36,-855.42 -1327.38,-1304.91 -2190.75,-1769.8 -813.48,-438 -1214.67,-1072.55 -1795.51,-1674.01 -131.69,533.96 -263.63,1068.2 -395.31,1602.29 -504.4,2240.59 1604.82,3552.19 3986.53,3946.11z"/>
  <path class="fil1" d="M11061.07 10427.13c-14,956.45 236.81,1662.23 1113.19,2008.98 287.41,87.69 574.56,175.38 861.98,263.07 1358.91,1027.41 2700.77,2031.5 4776.69,2582.85 1218.3,323.61 3587,251.89 4453.33,-239.05l0 -23.89c-1125.34,-342.88 -2250.68,-685.63 -3376.03,-1028.46 1220.95,286.95 2442.3,573.96 3663.25,860.96l0 -71.72c-597.43,-829.46 -1357.06,-1706.44 -2765.39,-1985.04 -1338.16,-264.83 -3161.16,45.14 -4345.43,167.46 -795.78,82.1 -1638.39,-129.62 -2190.83,-239.18 -247.77,-669.3 -893.16,-624.16 -1185.27,-1124.07 461.78,224.43 874.14,660.41 1472.42,765.35l0 -239.17c-393.65,-1017.91 -915.09,-803.29 -1939.28,-1315.47 -179.45,-127.47 -359.17,-255.02 -538.63,-382.62z"/>
  <path class="fil1" d="M88976.81 14565.07c-14,956.45 236.81,1662.23 1113.19,2008.98 287.41,87.69 574.56,175.38 861.98,263.07 1358.91,1027.41 2700.77,2031.5 4776.69,2582.85 1218.3,323.61 3587,251.89 4453.33,-239.05l0 -23.89c-1125.34,-342.88 -2250.68,-685.63 -3376.03,-1028.46 1220.95,286.95 2442.3,573.96 3663.25,860.96l0 -71.72c-597.43,-829.46 -1357.06,-1706.44 -2765.39,-1985.04 -1338.16,-264.83 -3161.16,45.14 -4345.43,167.46 -795.78,82.1 -1638.39,-129.62 -2190.83,-239.18 -247.77,-669.3 -893.16,-624.16 -1185.27,-1124.07 461.78,224.43 874.14,660.41 1472.42,765.35l0 -239.17c-393.65,-1017.91 -915.09,-803.29 -1939.28,-1315.47 -179.45,-127.47 -359.17,-255.02 -538.63,-382.62z"/>
  <path class="fil1" d="M13574.92 8011.65c688.74,1804.39 2113.65,1947.03 4489.48,2582.94 -236.6,-373.28 -446.12,-667.41 -790.42,-956.57 -490.66,-334.96 -981.51,-669.79 -1472.42,-1004.58 1098.78,473.74 1840.97,1044.93 2478.24,1841.48l35.87 0c20.02,-1398.98 -581.3,-2287.27 -1939.55,-2821.98 -562.4,-151.49 -1125.34,-302.98 -1687.75,-454.51 -497.39,-198.83 -834.02,-479.45 -1257.02,-717.4 123.95,484.91 -30.13,1075.82 143.57,1530.62z"/>
  <path class="fil1" d="M91490.66 12149.59c688.74,1804.39 2113.65,1947.03 4489.48,2582.94 -236.6,-373.28 -446.12,-667.41 -790.42,-956.57 -490.66,-334.96 -981.51,-669.79 -1472.42,-1004.58 1098.78,473.74 1840.97,1044.93 2478.24,1841.48l35.87 0c20.02,-1398.98 -581.3,-2287.27 -1939.55,-2821.98 -562.4,-151.49 -1125.34,-302.98 -1687.75,-454.51 -497.39,-198.83 -834.02,-479.45 -1257.02,-717.4 123.95,484.91 -30.13,1075.82 143.57,1530.62z"/>
  <path class="fil1" d="M30454.66 25278.94c24.05,-7.91 48.03,-15.84 71.82,-23.93 238.46,-3032.47 -1515.3,-2773.1 -4022.21,-3994.02 -545.17,-265.26 -1111.6,-663.41 -1508.5,-1028.33 -167.63,-191.22 -335.19,-382.61 -502.81,-574 -76.18,3297.11 1635.82,5615.44 6069.66,6003.03 -24.05,-23.89 -48.04,-47.96 -72.02,-71.72 -192.8,-252.37 -698.58,-412.53 -1005.56,-597.89 -164.77,-99.62 -155.26,-232.19 -287.41,-358.86 -480.87,-460.84 -1232.31,-805.26 -1580.11,-1363.25 35.87,15.97 71.81,31.94 107.7,47.78 552.88,838.35 1923.68,1288.32 2729.44,1961.19z"/>
  <path class="fil1" d="M108370.4 29416.88c24.05,-7.91 48.03,-15.84 71.82,-23.93 238.46,-3032.47 -1515.3,-2773.1 -4022.21,-3994.02 -545.17,-265.26 -1111.6,-663.41 -1508.5,-1028.33 -167.63,-191.22 -335.19,-382.61 -502.81,-574 -76.18,3297.11 1635.82,5615.44 6069.66,6003.03 -24.05,-23.89 -48.04,-47.96 -72.02,-71.72 -192.8,-252.37 -698.58,-412.53 -1005.56,-597.89 -164.77,-99.62 -155.26,-232.19 -287.41,-358.86 -480.87,-460.84 -1232.31,-805.26 -1580.11,-1363.25 35.87,15.97 71.81,31.94 107.7,47.78 552.88,838.35 1923.68,1288.32 2729.44,1961.19z"/>
  <path class="fil1" d="M28551.24 11886c1273.42,-1324.45 187.19,-2476.47 -251.46,-3826.56 -113.78,-350.63 215.59,-1769.8 215.59,-1769.8 -395.04,255.19 -790.15,510.21 -1185.27,765.4 -1561.68,1338.13 -2597.76,3260.16 -861.91,4950.63 311.14,303.02 699.51,707.5 1221.14,860.83 -166.69,-301.25 -558.24,-2256.86 -323.29,-2654.65 107.64,542.15 215.6,1084.34 323.29,1626.37 73.15,191.83 270.11,396.86 215.34,597.89 316.08,-97.02 464.81,-360.88 646.57,-550.11z"/>
  <path class="fil1" d="M106466.98 16023.94c1273.42,-1324.45 187.19,-2476.47 -251.46,-3826.56 -113.78,-350.63 215.59,-1769.8 215.59,-1769.8 -395.04,255.19 -790.15,510.21 -1185.27,765.4 -1561.68,1338.13 -2597.76,3260.16 -861.91,4950.63 311.14,303.02 699.51,707.5 1221.14,860.83 -166.69,-301.25 -558.24,-2256.86 -323.29,-2654.65 107.64,542.15 215.6,1084.34 323.29,1626.37 73.15,191.83 270.11,396.86 215.34,597.89 316.08,-97.02 464.81,-360.88 646.57,-550.11z"/>
  <path class="fil1" d="M20470.56 4543.78c615.58,-398.59 1248.42,-1222.81 1544.23,-1793.69l71.75 0 0 24.06c-388.96,696.28 -874.06,1275.26 -1328.77,1913.2 1290.59,-254.41 2112.92,-1141.77 1795.71,-2367.7 -66.01,-255.94 -46.85,-467.36 -251.27,-621.92 -540.54,905.67 -2746.76,1401.13 -1831.65,2893.83l0 -47.78z"/>
  <path class="fil1" d="M98386.3 8681.72c615.58,-398.59 1248.42,-1222.81 1544.23,-1793.69l71.75 0 0 24.06c-388.96,696.28 -874.06,1275.26 -1328.77,1913.2 1290.59,-254.41 2112.92,-1141.77 1795.71,-2367.7 -66.01,-255.94 -46.85,-467.36 -251.27,-621.92 -540.54,905.67 -2746.76,1401.13 -1831.65,2893.83l0 -47.78z"/>
  <path class="fil1" d="M11994.81 10211.85c-391.81,-395.33 -1711.14,-2495.29 -1292.96,-3204.64l0 47.83c143.57,446.41 287.41,892.82 430.98,1339.36 293.49,625.66 930.96,1275.56 969.68,1889.3 47.96,15.84 95.8,31.81 143.57,47.82 16.52,-703.14 501.62,-1408.43 215.59,-2104.58 -241.95,-588.92 -923.75,-1084.03 -1328.84,-1602.47 -155.66,-318.81 -311.4,-637.8 -466.87,-956.62 -1285.03,1733.94 -1536.04,3717.75 1328.85,4544z"/>
  <path class="fil1" d="M89910.55 14349.79c-391.81,-395.33 -1711.14,-2495.29 -1292.96,-3204.64l0 47.83c143.57,446.41 287.41,892.82 430.98,1339.36 293.49,625.66 930.96,1275.56 969.68,1889.3 47.96,15.84 95.8,31.81 143.57,47.82 16.52,-703.14 501.62,-1408.43 215.59,-2104.58 -241.95,-588.92 -923.75,-1084.03 -1328.84,-1602.47 -155.66,-318.81 -311.4,-637.8 -466.87,-956.62 -1285.03,1733.94 -1536.04,3717.75 1328.85,4544z"/>
  <path class="fil1" d="M22517.8 17171.46c-526.07,130.23 -1328.58,23.27 -1723.96,239.22 2622.28,317.54 2851.41,2741.29 6320.93,2032.86 -293.69,-501.19 -2485.7,-1090.41 -3088.68,-1482.79 1369.88,251.76 2423.66,918.86 3519.67,1387.01l0 -167.33c-735.45,-1489.92 -1996.44,-2028.68 -5027.96,-2008.97z"/>
  <path class="fil1" d="M100433.54 21309.4c-526.07,130.23 -1328.58,23.27 -1723.96,239.22 2622.28,317.54 2851.41,2741.29 6320.93,2032.86 -293.69,-501.19 -2485.7,-1090.41 -3088.68,-1482.79 1369.88,251.76 2423.66,918.86 3519.67,1387.01l0 -167.33c-735.45,-1489.92 -1996.44,-2028.68 -5027.96,-2008.97z"/>
  <path class="fil1" d="M15945.4 6098.29c-128.91,-442.41 914.44,-1447.91 1328.58,-1650.12 -215.33,215.1 -430.72,430.57 -646.32,645.68 -243.14,274.42 -267.79,616.24 -430.99,956.61 1353.09,-175.38 1406.94,-993.53 1759.84,-1841.52 119.79,-215.1 239.57,-430.39 359.16,-645.67 -1117.68,418.47 -2971.4,694.61 -2621.74,1961.14 66.67,241.38 72.22,418.35 251.47,573.88z"/>
  <path class="fil1" d="M93861.14 10236.23c-128.91,-442.41 914.44,-1447.91 1328.58,-1650.12 -215.33,215.1 -430.72,430.57 -646.32,645.68 -243.14,274.42 -267.79,616.24 -430.99,956.61 1353.09,-175.38 1406.94,-993.53 1759.84,-1841.52 119.79,-215.1 239.57,-430.39 359.16,-645.67 -1117.68,418.47 -2971.4,694.61 -2621.74,1961.14 66.67,241.38 72.22,418.35 251.47,573.88z"/>
  <path class="fil1" d="M18782.54 19658.66c74.86,1016.54 813.74,2318.63 1759.83,2798.26 273.41,-39.12 343.57,-92.97 574.56,0 71.76,143.43 143.84,287 215.6,430.57l0 -47.96c530.03,-448.43 1460.79,-1441.96 1005.55,-2319.87 -279.68,-539.55 -983.15,-902.59 -1400.6,-1363.12 -264.09,-291.18 -299.11,-847.94 -466.92,-1076.29 -496.48,813.36 -714.18,2034.14 -430.93,3109.16l-143.65 0c-371.05,-510.34 -742.37,-1020.55 -1113.44,-1530.75z"/>
  <path class="fil1" d="M96698.28 23796.6c74.86,1016.54 813.74,2318.63 1759.83,2798.26 273.41,-39.12 343.57,-92.97 574.56,0 71.76,143.43 143.84,287 215.6,430.57l0 -47.96c530.03,-448.43 1460.79,-1441.96 1005.55,-2319.87 -279.68,-539.55 -983.15,-902.59 -1400.6,-1363.12 -264.09,-291.18 -299.11,-847.94 -466.92,-1076.29 -496.48,813.36 -714.18,2034.14 -430.93,3109.16l-143.65 0c-371.05,-510.34 -742.37,-1020.55 -1113.44,-1530.75z"/>
  <path class="fil1" d="M6894.83 28196.71c-324.68,-576.47 -973.11,-905.4 -2154.68,-908.79 -598.55,79.77 -1197.36,159.41 -1795.91,239.18 677.11,607.66 2012.69,1308.64 3627.3,1052.23l0 -95.61c-249.62,-286.88 -857.29,-296.16 -1185,-526.05 502.73,103.52 1005.55,207.23 1508.29,310.76l0 -71.72z"/>
  <path class="fil1" d="M84810.57 32334.65c-324.68,-576.47 -973.11,-905.4 -2154.68,-908.79 -598.55,79.77 -1197.36,159.41 -1795.91,239.18 677.11,607.66 2012.69,1308.64 3627.3,1052.23l0 -95.61c-249.62,-286.88 -857.29,-296.16 -1185,-526.05 502.73,103.52 1005.55,207.23 1508.29,310.76l0 -71.72z"/>
  <path class="fil1" d="M10378.55 28555.56c-574.56,119.5 -1149.33,239.18 -1723.89,358.72 12.09,15.84 23.99,31.82 35.88,47.79 1748.86,224.61 3065.35,1890.88 5279.43,1530.62 490.92,-127.6 981.77,-255.01 1472.69,-382.61 -12.16,-16.02 -24.05,-31.99 -36.15,-47.83 -430.72,-151.49 -861.71,-302.97 -1292.96,-454.46 -414.21,-122.62 -1126.27,-133.8 -1436.48,-334.83 1175.89,173.22 2121.78,357.62 3052.74,621.83 -23.99,-31.98 -47.78,-63.8 -71.83,-95.78 -622.52,-1034.06 -1681.2,-1405.63 -3950.58,-1387.01 -442.89,47.78 -885.97,95.61 -1328.85,143.56z"/>
  <path class="fil1" d="M88294.29 32693.5c-574.56,119.5 -1149.33,239.18 -1723.89,358.72 12.09,15.84 23.99,31.82 35.88,47.79 1748.86,224.61 3065.35,1890.88 5279.43,1530.62 490.92,-127.6 981.77,-255.01 1472.69,-382.61 -12.16,-16.02 -24.05,-31.99 -36.15,-47.83 -430.72,-151.49 -861.71,-302.97 -1292.96,-454.46 -414.21,-122.62 -1126.27,-133.8 -1436.48,-334.83 1175.89,173.22 2121.78,357.62 3052.74,621.83 -23.99,-31.98 -47.78,-63.8 -71.83,-95.78 -622.52,-1034.06 -1681.2,-1405.63 -3950.58,-1387.01 -442.89,47.78 -885.97,95.61 -1328.85,143.56z"/>
  <path class="fil1" d="M11312.28 24920.22c-688.73,-300.81 -1580.04,-258.58 -2513.84,-430.44 -848.17,-156.27 -1444.87,-491.55 -1975.43,-860.96 44.53,1329.29 1384.81,2558.43 2801.53,3013.38 399.73,128.52 2163.53,360.43 2477.97,0 -718.14,-326.87 -1436.81,-653.78 -2154.95,-980.51 938.69,195.44 1609.06,679.87 2621.81,836.94 -271.82,-643.83 -517.67,-1255.54 -1257.09,-1578.41z"/>
  <path class="fil1" d="M89228.02 29058.16c-688.73,-300.81 -1580.04,-258.58 -2513.84,-430.44 -848.17,-156.27 -1444.87,-491.55 -1975.43,-860.96 44.53,1329.29 1384.81,2558.43 2801.53,3013.38 399.73,128.52 2163.53,360.43 2477.97,0 -718.14,-326.87 -1436.81,-653.78 -2154.95,-980.51 938.69,195.44 1609.06,679.87 2621.81,836.94 -271.82,-643.83 -517.67,-1255.54 -1257.09,-1578.41z"/>
  <path class="fil1" d="M18315.67 19586.98c-247.51,-1643.3 -1811.76,-2824.36 -3914.71,-3252.59 -718.14,-79.64 -1436.54,-159.41 -2154.88,-239.18 -562.47,15.97 -1125.34,31.94 -1687.81,47.78 11.89,16.02 23.98,31.99 35.88,47.83 1972.18,475.27 2412.49,2312.43 3950.65,3109.16 853.79,442.36 2006.41,551.78 3555.28,550.07 -110.74,-239.05 -437.07,-352.65 -646.38,-526.18 -730.04,-604.89 -1588.25,-1202 -2514.05,-1674.19 -454.78,-231.12 -909.75,-462.38 -1364.73,-693.51 2007.35,485.83 3167.18,1827.83 4740.75,2630.81z"/>
  <path class="fil1" d="M96231.41 23724.92c-247.51,-1643.3 -1811.76,-2824.36 -3914.71,-3252.59 -718.14,-79.64 -1436.54,-159.41 -2154.88,-239.18 -562.47,15.97 -1125.34,31.94 -1687.81,47.78 11.89,16.02 23.98,31.99 35.88,47.83 1972.18,475.27 2412.49,2312.43 3950.65,3109.16 853.79,442.36 2006.41,551.78 3555.28,550.07 -110.74,-239.05 -437.07,-352.65 -646.38,-526.18 -730.04,-604.89 -1588.25,-1202 -2514.05,-1674.19 -454.78,-231.12 -909.75,-462.38 -1364.73,-693.51 2007.35,485.83 3167.18,1827.83 4740.75,2630.81z"/>
  <path class="fil1" d="M14257.39 21500.3c273.86,95.35 444.93,233.33 826.03,262.98 -348.2,-1305.39 -1668.85,-1912.13 -4058.48,-1889.34 -866.41,210 -2047.71,97.32 -2693.37,454.51 11.89,15.84 23.79,31.8 35.94,47.78 2397.76,615.27 2911.01,2145.11 6284.99,1554.51 -24.05,-39.9 -48.04,-79.77 -71.83,-119.5 -1167.1,-335.57 -1968.42,-949.31 -3447.84,-1148.14l0 -23.76c1269.65,75.72 2181.97,532.69 3124.56,860.96z"/>
  <path class="fil1" d="M92173.13 25638.24c273.86,95.35 444.93,233.33 826.03,262.98 -348.2,-1305.39 -1668.85,-1912.13 -4058.48,-1889.34 -866.41,210 -2047.71,97.32 -2693.37,454.51 11.89,15.84 23.79,31.8 35.94,47.78 2397.76,615.27 2911.01,2145.11 6284.99,1554.51 -24.05,-39.9 -48.04,-79.77 -71.83,-119.5 -1167.1,-335.57 -1968.42,-949.31 -3447.84,-1148.14l0 -23.76c1269.65,75.72 2181.97,532.69 3124.56,860.96z"/>
  <path class="fil1" d="M33190.43 27515.29c3015.27,-786.52 2343.25,-1929.38 3268.14,-3994.06 303.53,-677.36 824.71,-1185.54 1292.96,-1721.84l-107.7 0c-754.01,199.32 -1508.56,398.58 -2262.57,597.89 -1774.5,696.94 -4024.72,1938.54 -3411.97,4089.67 125.67,441.13 409.32,799.99 538.95,1195.8l71.56 0c-6.08,-518.26 642.62,-2053.68 1041.62,-2319.87 -227.22,502.11 -454.97,1004.4 -682.46,1506.69l36.15 0 0 -47.83c71.55,-79.77 143.57,-159.4 215.32,-239.18 -58.47,320.05 -113.71,621.66 0,932.73z"/>
  <path class="fil1" d="M111106.17 31653.23c3015.27,-786.52 2343.25,-1929.38 3268.14,-3994.06 303.53,-677.36 824.71,-1185.54 1292.96,-1721.84l-107.7 0c-754.01,199.32 -1508.56,398.58 -2262.57,597.89 -1774.5,696.94 -4024.72,1938.54 -3411.97,4089.67 125.67,441.13 409.32,799.99 538.95,1195.8l71.56 0c-6.08,-518.26 642.62,-2053.68 1041.62,-2319.87 -227.22,502.11 -454.97,1004.4 -682.46,1506.69l36.15 0 0 -47.83c71.55,-79.77 143.57,-159.4 215.32,-239.18 -58.47,320.05 -113.71,621.66 0,932.73z"/>
  <path class="fil1" d="M30182.37 18769.89l0 -23.89c-550.32,-699.27 -1456.57,-1222.02 -1867.54,-2032.74 48.04,23.77 95.81,47.66 143.58,71.55 257.81,426.08 1314.38,1423.53 1867.73,1650.3 65.54,-523.1 453.59,-1113.08 251.27,-1769.8 -263.36,-855.42 -1327.38,-1304.91 -2190.75,-1769.8 -813.49,-438.01 -1214.67,-1072.55 -1795.51,-1674.01 -131.69,533.96 -263.63,1068.19 -395.32,1602.29 -504.39,2240.59 1604.83,3552.18 3986.54,3946.1z"/>
  <path class="fil1" d="M108098.11 22907.83l0 -23.89c-550.32,-699.27 -1456.57,-1222.02 -1867.54,-2032.74 48.04,23.77 95.81,47.66 143.58,71.55 257.81,426.08 1314.38,1423.53 1867.73,1650.3 65.54,-523.1 453.59,-1113.08 251.27,-1769.8 -263.36,-855.42 -1327.38,-1304.91 -2190.75,-1769.8 -813.49,-438.01 -1214.67,-1072.55 -1795.51,-1674.01 -131.69,533.96 -263.63,1068.19 -395.32,1602.29 -504.39,2240.59 1604.83,3552.18 3986.54,3946.1z"/>
  <path class="fil1" d="M33930.94 20863.55c330.36,-93.29 587.27,-356.01 799.06,-525.17 1528.87,-1220.19 761.13,-1758.41 701.3,-3059.73 -15.6,-336.96 284.36,-618.61 320.62,-943.75 -2505.53,1011.1 -4167.65,3132.37 -1820.98,4528.65z"/>
  <path class="fil1" d="M111846.68 25001.49c330.36,-93.29 587.27,-356.01 799.06,-525.17 1528.87,-1220.19 761.13,-1758.41 701.3,-3059.73 -15.6,-336.96 284.36,-618.61 320.62,-943.75 -2505.53,1011.1 -4167.65,3132.37 -1820.98,4528.65z"/>
  <path class="fil1" d="M51820.32 24143.77c29.39,-15.89 58.81,-31.97 88.21,-47.87 143.36,-405.49 357.65,-1010.51 829.61,-1309.03l12.64 22.22c-187.63,431.11 -514.48,820.85 -476.32,1322.31 517.23,-310.99 1152.76,-531.79 1491.75,-887.9 452.62,-475.78 516.98,-1141.02 772.87,-1678.52 166.22,-348.69 534.34,-586.7 878.14,-886.57 -619.86,147.78 -1239.81,295.77 -1859.95,443.81 -426.14,218.26 -852.43,436.75 -1278.54,655.19 -674.17,448.65 -1368.01,1535.4 -458.41,2366.36z"/>
  <path class="fil1" d="M129736.06 28281.71c29.39,-15.89 58.81,-31.97 88.21,-47.87 143.36,-405.49 357.65,-1010.51 829.61,-1309.03l12.64 22.22c-187.63,431.11 -514.48,820.85 -476.32,1322.31 517.23,-310.99 1152.76,-531.79 1491.75,-887.9 452.62,-475.78 516.98,-1141.02 772.87,-1678.52 166.22,-348.69 534.34,-586.7 878.14,-886.57 -619.86,147.78 -1239.81,295.77 -1859.95,443.81 -426.14,218.26 -852.43,436.75 -1278.54,655.19 -674.17,448.65 -1368.01,1535.4 -458.41,2366.36z"/>
  <path class="fil1" d="M52320.32 23643.77c29.39,-15.89 58.81,-31.97 88.21,-47.87 143.36,-405.49 357.65,-1010.51 829.61,-1309.03l12.64 22.22c-187.63,431.11 -514.48,820.85 -476.32,1322.31 517.23,-310.99 1152.76,-531.79 1491.75,-887.9 452.62,-475.78 516.98,-1141.02 772.87,-1678.52 166.22,-348.69 534.34,-586.7 878.14,-886.57 -619.86,147.78 -1239.81,295.77 -1859.95,443.81 -426.14,218.26 -852.43,436.75 -1278.54,655.19 -674.17,448.65 -1368.01,1535.4 -458.41,2366.36z"/>
  <path class="fil1" d="M130236.06 27781.71c29.39,-15.89 58.81,-31.97 88.21,-47.87 143.36,-405.49 357.65,-1010.51 829.61,-1309.03l12.64 22.22c-187.63,431.11 -514.48,820.85 -476.32,1322.31 517.23,-310.99 1152.76,-531.79 1491.75,-887.9 452.62,-475.78 516.98,-1141.02 772.87,-1678.52 166.22,-348.69 534.34,-586.7 878.14,-886.57 -619.86,147.78 -1239.81,295.77 -1859.95,443.81 -426.14,218.26 -852.43,436.75 -1278.54,655.19 -674.17,448.65 -1368.01,1535.4 -458.41,2366.36z"/>
  <path class="fil1" d="M21994.48 26144.3l-9.76 -23c-815.21,-573.22 -1900.81,-912.1 -2627.44,-1617.81 55.93,14.16 111.66,28.5 167.38,42.84 422.14,363.32 1846.3,1131.77 2471.42,1249.76 -150.61,-515.25 -18.18,-1153.27 -481.12,-1748.58 -602.85,-775.46 -1810.36,-1015.27 -2831.07,-1306.25 -961.72,-274.14 -1606.98,-812.09 -2411.6,-1285.66 91.39,537.68 182.64,1075.67 274.09,1613.48 429.84,2247.47 2995.29,3127.56 5448.1,3075.22z"/>
  <path class="fil1" d="M99910.22 30282.24l-9.76 -23c-815.21,-573.22 -1900.81,-912.1 -2627.44,-1617.81 55.93,14.16 111.66,28.5 167.38,42.84 422.14,363.32 1846.3,1131.77 2471.42,1249.76 -150.61,-515.25 -18.18,-1153.27 -481.12,-1748.58 -602.85,-775.46 -1810.36,-1015.27 -2831.07,-1306.25 -961.72,-274.14 -1606.98,-812.09 -2411.6,-1285.66 91.39,537.68 182.64,1075.67 274.09,1613.48 429.84,2247.47 2995.29,3127.56 5448.1,3075.22z"/>
  <path class="fil1" d="M31638.9 22652.4l-62.38 -23.69c-417.53,-498.46 -1439.59,-957.77 -1369.34,-1538.81l31.34 11.91c382.75,485.24 795.25,956.97 1591.82,1375.67l17.91 -20.91c59.17,-1112.03 -967.54,-1490.19 -2141.28,-2327.53l-53.36 62.29c35.67,1152.36 -551.43,2076.54 1967.52,2481.82l17.77 -20.75z"/>
  <path class="fil1" d="M109554.64 26790.34l-62.38 -23.69c-417.53,-498.46 -1439.59,-957.77 -1369.34,-1538.81l31.34 11.91c382.75,485.24 795.25,956.97 1591.82,1375.67l17.91 -20.91c59.17,-1112.03 -967.54,-1490.19 -2141.28,-2327.53l-53.36 62.29c35.67,1152.36 -551.43,2076.54 1967.52,2481.82l17.77 -20.75z"/>
  <path class="fil1" d="M46080.4 29547.45c344.58,14.01 689.22,27.89 1034,41.86 1118.77,26.78 2298.08,85.92 3469.25,-71.96l18.18 20.79c-1600.68,424.6 -3474.18,-127.46 -4754.5,265.59l18.18 20.8c1562,844.21 3401.53,1073.83 5664.34,-175.74 517.17,-285.82 1138.88,-496.51 1482.2,-823.79 -1911.99,391.74 -3242.86,-450.27 -4756.4,-259.18 -500.45,63.07 -2025.02,746.83 -2175.25,981.63z"/>
  <path class="fil1" d="M123996.14 33685.39c344.58,14.01 689.22,27.89 1034,41.86 1118.77,26.78 2298.08,85.92 3469.25,-71.96l18.18 20.79c-1600.68,424.6 -3474.18,-127.46 -4754.5,265.59l18.18 20.8c1562,844.21 3401.53,1073.83 5664.34,-175.74 517.17,-285.82 1138.88,-496.51 1482.2,-823.79 -1911.99,391.74 -3242.86,-450.27 -4756.4,-259.18 -500.45,63.07 -2025.02,746.83 -2175.25,981.63z"/>
  <path class="fil3" d="M43011.83 60906.81l258.5 -80.08c175.7,-16.93 253.79,-50.8 253.79,-101.6 0,-16.93 0,-67.72 -19.53,-67.72 -97.61,-33.87 -136.65,-50.8 -156.17,-50.8 -97.61,0 -312.36,16.93 -390.45,33.86 -156.18,33.87 -370.93,-16.93 -644.24,50.8 -136.65,33.86 -409.97,50.8 -644.24,67.73 -97.61,33.87 -449.01,16.93 -605.19,50.8 -39.04,0 -58.57,16.93 -97.61,16.93 19.52,-16.93 58.57,-16.93 58.57,-16.93 58.56,-84.67 78.09,-135.46 117.13,-237.06 19.52,-50.79 19.52,-135.46 58.57,-203.18 0,-16.94 -58.57,-50.8 -97.61,-84.67 156.18,16.94 156.18,16.94 273.31,-169.32 0,-50.8 0,-118.52 19.52,-169.32 -19.52,0 -39.04,-16.94 -39.04,-33.87 58.56,-67.73 136.65,-118.52 175.7,-186.26 97.61,-152.38 117.13,-321.71 234.26,-507.96 0,-33.87 39.05,-101.6 39.05,-152.4 0,-67.72 19.52,-118.52 97.61,-169.32 19.52,-67.73 19.52,-118.52 58.57,-135.46 78.09,-33.86 214.75,-101.59 156.18,-186.25l39.04 -50.8c78.09,-135.46 19.53,-186.26 175.7,-355.58 117.14,-220.12 253.79,-321.72 429.5,-575.7 97.61,-186.25 156.17,-237.05 292.83,-355.58 117.13,-118.52 156.18,-169.32 292.84,-338.65 195.22,-220.12 449.01,-203.18 409.97,-321.71 -19.53,-67.73 -175.7,-220.12 -195.23,-220.12 -58.57,-33.87 -488.06,-237.05 -683.28,-67.73l-331.88 372.51c-136.66,169.32 -585.67,812.75 -585.67,812.75l-39.05 84.66c-195.22,304.79 -429.49,677.3 -585.67,1032.88 -136.65,186.26 -195.22,389.44 -312.35,609.57 -214.75,372.51 -370.93,745.02 -527.11,1083.66l-234.27 558.77 -195.22 0 -117.13 16.93c-19.53,16.94 -156.18,0 -234.27,0l-117.14 33.87 -97.61 0c-195.22,16.93 -390.45,16.93 -663.76,0 -39.04,50.79 -58.57,84.66 -39.04,118.53 19.52,101.59 39.04,118.52 39.04,101.59 19.52,0 19.52,0 39.05,16.93 0,152.39 39.04,237.05 97.61,220.12 97.61,16.93 195.22,50.8 273.31,84.66l58.57 16.94 117.13 -16.94 331.88 0 136.66 -16.93 78.09 16.93c19.52,0 39.04,-16.93 58.56,-16.93l-39.04 84.67c-19.52,84.66 -351.4,931.27 -409.97,1015.94 19.52,67.73 0,152.39 -39.05,203.18 8.93,0 148.02,258.7 -136.65,423.31 -39.04,67.73 -58.57,135.46 -58.57,203.19 0,67.73 0,152.39 19.53,203.19 -39.05,84.66 -136.66,135.46 -97.62,220.12 -117.13,169.32 -58.57,423.31 -195.22,609.56 -39.04,270.92 -97.61,474.11 -156.18,728.1 0,186.25 19.53,389.44 -19.52,592.63 0,0 -39.05,0 -39.05,50.79 -39.04,84.66 19.53,220.13 -58.56,321.72 -58.57,101.59 0,152.39 0,220.12 -19.53,203.19 -117.14,406.38 0,558.77l19.52 16.93c-117.13,101.59 -117.13,220.12 -136.66,304.78 97.61,118.53 0,304.78 136.66,406.38 -136.66,84.66 -78.09,169.32 -19.52,253.98 19.52,152.4 58.56,287.86 136.66,440.25 39.04,237.05 195.22,406.37 370.92,592.63 136.65,186.25 488.06,253.99 722.32,237.05 156.18,-16.93 273.32,-67.73 409.98,-67.73 175.7,0 331.88,-101.59 429.49,-169.32 175.7,-118.53 273.31,-270.92 409.96,-423.31 0,-16.93 19.53,-16.93 19.53,-33.86 97.61,-135.46 234.27,-253.99 292.84,-389.45 156.17,-186.26 234.26,-321.71 312.35,-491.04 97.61,-203.19 136.66,-406.37 253.79,-609.56 19.53,-16.93 19.53,-84.67 19.53,-135.46 568.99,-411.25 -384.88,-3860.53 -273.32,-4199.22 -39.04,-84.67 -214.74,-16.94 -253.79,-152.4 19.52,-16.93 -58.56,-50.79 -78.09,-84.66 -58.57,-101.59 -136.66,-169.32 -195.22,-270.92l-117.13 0 -97.62 -50.8c-58.56,-33.86 -58.56,16.94 -97.61,16.94 -39.04,16.93 -58.57,0 -78.09,0l-78.09 16.93 -97.61 -84.66 -234.27 16.93 97.61 -321.71 58.57 -253.99c39.05,-16.93 58.57,-33.86 78.09,-67.73l39.04 -16.93c39.05,-16.93 331.88,16.93 449.02,-16.93 136.65,0 409.97,-50.8 624.71,-50.8 214.75,-16.93 507.59,-67.73 585.68,-67.73 0,16.94 39.04,16.94 78.08,-16.93 39.05,84.66 234.27,-16.93 370.93,-33.87l53.86 -241.63zm-4446.39 -3568.15c-78.09,-152.39 -214.75,-321.71 -370.93,-423.3 -468.53,-304.78 -1308,-355.58 -1913.19,-304.78 -819.94,67.72 -1405.61,270.91 -2537.91,728.08 -449.01,186.26 -819.94,423.31 -1229.9,694.23 -312.36,203.19 -585.67,440.24 -780.9,728.09 -390.45,507.97 -449.01,1083.67 -136.66,1693.24 273.32,558.77 995.64,1015.94 1347.05,1202.19 390.45,220.13 780.89,457.18 1210.39,643.44 624.71,253.98 1229.9,575.69 1737.49,982.07 292.83,237.06 566.14,474.11 722.32,795.82 195.23,355.58 117.13,677.29 -97.61,965.14 -175.7,237.06 -429.49,474.11 -702.81,626.5 -683.28,389.45 -1698.44,829.69 -2752.65,965.14 -449.01,67.74 -898.03,84.67 -1347.04,67.74 -370.93,-16.94 -761.37,-118.53 -1151.82,-321.72 -546.63,-287.85 -761.37,-1049.81 -722.33,-1557.77 58.57,-660.37 546.63,-999.01 1190.86,-1168.34 331.88,-101.59 -253.79,-609.56 -722.32,-406.38 -97.62,33.87 -546.63,186.26 -898.03,507.98 39.04,0 58.57,16.93 58.57,33.86l-136.66 50.8c-214.75,237.05 -370.93,524.9 -351.4,931.28 58.56,1168.33 976.12,2031.88 2401.25,2252 839.46,118.53 1678.92,135.46 2518.38,16.93 1249.43,-169.32 2733.13,-728.09 3318.8,-1439.25 253.79,-321.71 351.41,-677.29 175.71,-1100.6 -234.27,-491.04 -566.15,-914.35 -1034.69,-1269.93 -605.19,-457.17 -1268.96,-829.68 -1991.28,-1151.4 -136.66,-67.72 -273.31,-118.52 -409.97,-203.18 -331.88,-169.33 -702.81,-338.65 -1034.69,-541.84 -644.23,-440.24 -1093.25,-1151.4 -605.19,-1930.29 507.58,-761.96 1405.61,-1117.53 1698.45,-1337.65l468.53 -304.79c39.05,-118.52 97.62,-169.32 195.23,-169.32 78.08,0 214.74,-33.87 273.31,-67.73 78.09,-33.86 117.14,-67.73 195.22,-118.52 78.09,-118.53 312.36,-186.26 663.76,-152.4 -19.52,-16.93 0,-67.73 39.05,-67.73 156.18,-50.8 351.4,-50.8 527.1,-84.66 0,0 253.79,33.86 370.93,-33.86l351.4 33.86c214.74,16.94 566.15,186.26 702.8,423.31 156.18,270.92 156.18,524.9 117.14,795.82 -78.09,491.04 -253.79,677.3 -624.71,982.08 -253.8,220.12 -507.59,287.85 -449.02,423.3 292.83,423.31 624.71,321.72 1034.69,50.8 819.94,-592.63 1093.25,-1625.5 683.28,-2438.26zm13841.36 7111.59c292.83,101.6 624.71,101.6 937.07,-33.86 312.36,-118.53 624.72,-338.65 858.98,-491.04 39.05,-16.93 58.57,-67.73 97.62,-101.59 136.65,0 136.65,-169.33 273.31,-237.06 19.52,33.87 19.52,67.73 58.57,84.66 58.56,84.67 39.04,118.53 156.18,220.13 78.08,152.39 214.74,220.12 331.88,355.57 58.56,16.94 97.61,84.66 156.18,101.6 39.04,33.86 156.17,33.86 195.22,50.8 78.09,16.93 253.79,-16.94 331.88,-16.94 58.57,0 156.18,-33.86 175.7,-33.86 58.57,0 156.18,-33.86 195.22,-50.8 97.61,-50.8 156.18,-33.86 273.31,-84.66 195.23,-118.53 370.93,-152.39 527.11,-304.78 78.09,-84.66 214.74,-152.39 312.36,-220.12l0 -33.87c527.1,-491.04 501.36,-469.85 527.1,-491.04 58.57,-16.93 117.14,-16.93 136.66,-33.86 97.61,-33.86 175.7,-118.52 234.27,-169.32 58.56,-33.87 195.22,-84.67 292.83,-152.39 253.79,-152.4 566.15,-287.85 761.38,-541.84 -97.62,-33.87 -97.62,33.87 -97.62,67.73 -117.13,67.73 -117.13,67.73 -156.18,-16.93l175.7 -203.19 -58.56 -33.87c-195.23,101.6 -351.4,186.26 -488.06,287.85 -449.02,253.99 -409.97,220.13 -878.51,474.11 -273.31,169.33 -566.15,321.71 -819.94,457.17 -273.31,169.33 -585.67,372.51 -898.03,491.04 -78.09,33.87 -156.17,33.87 -214.74,50.8 -58.57,16.93 -97.61,16.93 -136.66,0 -97.61,-50.8 -156.18,-118.53 -175.7,-186.26 -117.13,-237.05 -117.13,-491.04 -58.57,-728.09 19.52,-33.86 19.52,-67.73 39.05,-84.66 58.56,-135.46 39.04,-321.71 39.04,-321.71 -39.04,-118.53 -117.13,-203.19 -234.26,-237.06 -234.27,-16.93 -370.93,118.53 -527.11,135.46 97.61,-169.32 253.79,-321.71 195.22,-558.77 -78.09,-389.44 -546.62,-457.17 -956.59,-524.9 -370.93,33.86 -702.81,237.05 -937.07,457.17 -234.27,253.99 -488.06,457.18 -702.81,745.03 -39.05,33.86 -78.09,118.52 -156.18,203.18l-136.66 203.19c-39.04,118.53 -97.61,203.19 -117.13,304.78 0,16.94 0,16.94 -19.52,33.87 -39.05,101.6 -78.09,186.26 -136.66,304.78 -78.09,253.99 -19.52,474.11 156.18,677.3 117.13,50.8 273.31,135.46 312.35,169.32 58.57,16.93 117.14,16.93 156.19,16.93zm-39.05 -491.04c97.61,-338.64 273.31,-626.49 449.02,-897.41 214.74,-321.72 898.02,-1117.54 1483.7,-1202.2 -19.53,16.94 -175.71,761.96 253.79,795.82l19.52 0c0,0 -78.09,84.66 -97.62,84.66 -292.83,270.93 -429.49,474.11 -722.32,745.03 -195.23,186.25 -370.92,304.78 -624.72,389.44 -195.22,67.73 -546.62,84.66 -761.37,84.66zm-8322.36 -711.17c39.04,-135.46 78.08,-253.99 136.65,-355.58 117.13,-203.19 253.79,-406.38 409.97,-592.63 136.66,-152.39 312.36,-237.06 488.06,-355.58 156.18,-101.59 331.88,-101.59 507.58,-169.33 78.09,-33.86 175.7,118.53 117.13,203.19 -78.09,118.53 -156.17,220.12 -273.31,304.78 -175.7,152.4 -331.88,270.92 -527.1,406.38 0,116.76 0,0 -429.49,372.51 -19.53,16.94 -58.57,0 -97.62,0 -78.09,50.8 -175.7,101.6 -331.87,186.26zm4593.59 1456.2c156.18,50.79 234.27,16.93 273.31,-186.26 39.05,-118.52 39.05,-237.05 78.09,-355.58 58.57,-152.39 78.09,-304.78 156.18,-474.1 78.09,-203.19 195.22,-389.45 351.4,-626.5 136.66,-203.19 292.84,-372.51 429.49,-541.83 136.66,-152.4 292.84,-287.86 409.98,-423.31 97.61,-84.66 214.74,-169.33 331.88,-253.99 39.04,-50.8 78.08,-118.53 136.65,-135.46 117.14,-67.73 234.27,-101.59 312.36,-186.25 117.13,-84.67 234.27,-67.73 351.4,-67.73 253.79,101.59 370.93,50.8 370.93,50.8l19.52 -84.67c-39.05,-84.66 -78.09,-152.39 -156.18,-203.18 -39.05,0 -58.56,-33.87 -78.09,-50.8 -78.09,-67.73 -175.7,-135.46 -273.31,-203.19 -234.27,-118.53 -507.59,-118.53 -761.37,50.8 -214.75,118.52 -429.5,253.98 -605.2,474.1 -136.65,118.53 -253.79,203.19 -351.4,355.58 -19.52,50.8 -97.61,101.59 -156.18,169.33 0,-84.67 39.05,-135.46 39.05,-186.26 19.52,-152.39 0,-304.78 -58.57,-440.24 -78.09,-253.99 -234.27,-338.65 -429.49,-270.92 -58.57,0 -136.66,33.86 -175.7,84.66 -19.53,16.94 -19.53,84.66 -39.05,118.53 -39.04,237.05 -97.61,457.17 -136.66,694.23 -46.15,260.2 -144.13,627.12 -222.77,949.13 -355.09,98.75 -914.37,283.71 -1436.63,490.11 -207.15,81.88 -428.39,204.72 -644.23,321.72 -96.53,52.32 -195.23,50.8 -292.84,84.66 -156.18,50.8 -312.36,118.53 -449.02,169.32 -175.69,50.8 -351.4,118.53 -527.1,135.46 -253.79,33.87 -507.58,16.94 -761.37,33.87 -156.18,-50.8 -195.22,-84.66 -273.31,-287.85 136.65,-67.73 195.22,-84.66 351.4,-152.39 39.04,-33.87 78.09,-84.67 136.65,-101.6 117.14,-67.73 273.32,-118.53 409.98,-186.25 19.52,-16.94 19.52,-67.73 39.04,-84.66 78.09,-33.87 136.65,-50.8 195.22,-84.67 0,0 -19.52,-16.93 -58.57,-16.93l136.66 -67.73c78.09,-33.86 214.75,-50.8 234.27,-169.32 19.52,-50.8 136.66,-67.73 195.23,-118.53 175.7,-152.39 351.39,-304.78 527.1,-474.11 58.56,-50.79 117.13,-135.45 156.18,-220.12 58.56,-135.45 -39.05,-423.3 -195.23,-507.97 -136.66,-101.59 -292.83,-203.18 -468.53,-270.91 -136.66,-67.73 -312.36,-186.26 -507.58,-118.53 -78.1,16.93 -136.66,33.86 -195.23,33.86 -253.79,16.94 -468.54,118.53 -644.24,270.92 -175.7,169.33 -351.4,338.65 -527.1,524.91 -97.61,101.59 -175.7,203.18 -253.79,304.78 -195.23,321.71 -292.84,643.43 -312.36,982.07 0,118.53 -19.52,237.06 78.09,440.25 39.04,169.32 39.04,169.32 78.09,203.18 117.14,152.39 195.22,253.99 331.88,338.65 19.52,16.93 78.09,33.87 97.61,67.73 195.23,135.46 273.32,152.39 449.02,203.19 175.7,50.79 390.44,84.66 585.67,101.59 156.18,16.94 292.83,-16.93 449.01,-50.8 97.62,-16.93 214.75,-33.86 292.84,-67.72 58.57,-33.87 97.61,-50.8 175.7,-50.8 136.65,-16.93 273.31,-16.93 390.45,-67.73 195.22,-67.73 356.67,-178.53 527.1,-270.92 142.4,-77.18 275.32,-123.69 409.97,-220.12l1247.38 -893.24c-6.17,27.6 -12.02,54.48 -17.47,80.49l-156.18 694.22c-58.57,220.13 39.05,389.45 117.13,558.77l78.09 -101.59c39.05,-16.93 78.1,16.93 78.1,16.93 0,152.39 19.51,220.12 136.65,270.92zm-9234.08 2116.55l39.04 -660.37c81.49,-247.36 0,0 97.61,-220.12 0,-10.77 -20.79,-1.19 -19.51,-338.65 0.47,-125.82 39.04,-91.77 39.04,-135.46 117.13,-440.24 195.22,-863.54 312.36,-1337.65 45.11,-140.89 11.77,20.02 78.09,-237.05 97.61,-101.6 -39.05,-152.4 -58.57,-237.06 234.27,-118.53 214.75,-389.44 312.36,-609.56 58.56,-101.6 97.61,-237.05 117.13,-338.65 78.09,-135.46 117.14,-270.92 117.14,-338.65l97.61 -304.78 156.17 84.66 390.45 406.38c292.84,389.44 390.45,643.43 527.11,1185.26l58.56 643.43c39.05,270.92 19.53,524.91 -39.04,761.96 19.52,203.19 0,389.44 -19.52,592.63 -58.57,237.06 -117.14,507.97 -195.23,761.96 -117.13,389.44 -214.74,745.02 -449.01,1151.4 -175.7,253.98 -370.93,491.03 -644.24,711.16 -117.13,152.39 -234.27,186.25 -390.45,220.12l-234.27 50.79c-136.65,16.94 -136.65,-101.59 -175.69,-169.32 -78.1,-101.59 -117.14,-237.05 -117.14,-372.51l-39.04 -253.99c0,-16.93 -58.57,-67.73 -39.05,-101.59 97.61,-84.66 -19.52,-203.19 39.05,-270.92l-39.05 0c39.05,-67.73 19.52,-372.51 0,-406.38 39.05,-101.59 78.09,-169.32 78.09,-237.04z"/>
  <path class="fil4" d="M20507.97 63902.93c0,-169.32 0,-372.51 78.09,-541.83 19.52,-84.66 19.52,-169.32 58.57,-270.92 19.52,-67.73 58.56,-237.05 117.13,-304.78 97.61,-169.33 195.22,-304.78 292.84,-440.24 19.52,67.73 58.56,135.46 97.61,186.25 39.04,101.6 136.66,186.26 273.31,253.99 156.18,101.6 370.92,186.26 566.15,220.12 97.61,33.86 253.79,50.8 351.4,50.8 97.61,33.86 136.66,50.79 58.57,135.46 -97.61,118.52 -136.66,253.98 -214.75,355.58 -97.61,135.46 -214.74,253.98 -331.88,355.57 -214.74,186.26 -488.06,355.58 -780.89,423.31 -253.79,84.66 -488.06,16.94 -507.58,-118.52 -19.53,-101.6 -58.57,-186.26 -58.57,-304.79zm1229.91 -1591.64c19.52,-152.39 156.17,-220.12 273.31,-304.78 58.57,-50.8 156.18,-84.66 273.31,-84.66 58.57,-16.94 97.61,-16.94 136.66,33.86 97.61,135.46 117.14,304.79 156.18,440.24 0,101.6 -19.52,203.19 0,287.86l-546.63 0c-117.13,0 -175.7,-16.94 -214.74,-101.6 -58.57,-84.66 -78.09,-186.26 -78.09,-270.92zm-10933.24 4797.34c312.36,-33.86 780.89,-16.93 1093.25,-67.73 722.33,-101.59 1132.3,-186.25 1835.1,-524.9 390.45,-186.26 702.81,-372.51 1034.69,-626.5 19.52,0 0,-33.86 19.52,-84.66 78.09,-33.86 156.18,-101.59 234.27,-169.32 800.42,-846.62 722.32,-1862.56 -19.52,-2505.99 -741.85,-643.43 -1737.49,-880.48 -2791.7,-778.89l0 -33.86c722.32,-372.52 1249.43,-660.37 1835.1,-948.22 156.18,-84.66 312.36,-152.38 429.49,-253.98 156.18,-118.53 331.88,-220.12 370.93,-389.45 58.57,0 117.13,0 156.18,-16.93 156.17,-101.59 312.35,-186.25 429.49,-270.92 156.18,-186.25 409.96,-304.78 449.01,-558.76 0,-16.94 19.52,-33.87 58.57,-33.87 58.57,-220.12 195.22,-423.3 390.44,-423.3 -156.17,118.52 -214.74,253.98 -214.74,338.64 2537.91,-2268.93 -97.61,-4470.14 -3748.29,-3352.6 -2206.03,677.29 -4763.46,2184.27 -5778.62,3572.72 -331.88,440.25 -214.75,1320.73 761.37,1337.66 156.18,-16.93 312.36,-84.67 527.1,-203.19 -195.22,-33.86 -312.36,-33.86 -409.97,-67.73 -117.13,-16.93 -195.22,-67.73 -175.7,-169.32 19.53,-152.4 78.09,-287.85 195.23,-406.38 390.44,-423.31 761.37,-812.75 1210.38,-1185.26 1034.69,-897.42 2830.74,-1777.9 4177.79,-2150.42 2440.29,-694.22 4333.96,50.8 3240.71,1608.58 -273.32,406.38 -644.24,778.89 -1054.21,1100.6 -976.11,761.96 -1991.28,1405.39 -3123.57,1930.29 -644.25,304.78 -2264.6,795.82 -2772.18,897.42 839.46,-1642.44 1386.09,-2590.65 1308,-2793.84 -156.18,-220.12 -312.36,-287.85 -605.19,-270.92 -292.84,270.92 -429.5,609.57 -624.72,931.28 -331.88,592.63 -546.63,1219.13 -819.94,1845.63 -97.61,186.25 -117.14,423.31 -253.79,575.7 -156.18,186.25 -58.57,372.51 -156.18,558.77 -117.13,287.85 -156.18,575.69 -234.27,863.54 -97.61,575.7 -214.75,1185.27 -214.75,1777.9 -19.51,355.58 19.53,761.96 253.79,1049.81 39.05,50.79 0,118.52 117.14,118.52 351.4,-169.32 214.74,-372.51 292.84,-592.63 234.27,16.93 409.96,50.8 546.62,84.67 195.22,67.72 351.4,101.59 566.15,152.38 136.66,33.87 313.69,59.46 488.06,84.66 177.54,25.67 749.89,36.07 925.59,52.99l50.53 -2.19zm9444.37 -4870.42c-292.84,237.06 -1117.58,899.39 -1420.68,1145.31 -302.42,245.38 -644.24,491.03 -956.6,728.09 -156.18,118.52 -331.88,186.25 -546.62,237.05 19.52,-169.32 78.09,-321.72 78.09,-474.11 19.52,-169.32 136.65,-321.71 78.09,-474.1 0,-33.87 19.52,-50.8 39.04,-84.66 19.52,-67.74 58.57,-135.46 97.61,-203.19 78.1,-220.12 156.18,-423.31 214.75,-626.5 39.04,-84.66 78.09,-169.32 78.09,-270.92 19.52,-84.66 19.52,-186.26 -19.52,-253.98 -39.05,-67.73 -136.66,-135.46 -214.75,-186.26 -58.57,-84.66 -195.22,-135.46 -253.79,-220.12 -58.57,-84.66 -117.13,-50.79 -175.7,-33.86 -78.09,0 -97.61,50.79 -78.09,118.52l0 135.46c-97.61,321.72 -195.22,609.57 -273.32,914.35 -78.08,220.12 -156.17,440.24 -195.22,660.36 -97.61,304.78 -175.7,626.5 -136.66,914.35 19.53,67.72 78.1,101.59 97.62,169.32 39.04,33.87 78.09,84.66 97.61,135.46 19.52,33.87 19.52,84.66 58.57,101.59 136.65,84.66 214.74,237.06 409.97,270.92 136.65,33.87 234.27,84.66 390.44,50.8 136.66,-67.73 273.32,-118.53 390.45,-169.32 117.14,-33.87 234.27,-50.8 312.36,-118.53 117.13,-67.73 214.74,-135.46 292.84,-220.12 117.13,-135.46 253.79,-270.92 409.96,-355.58l97.61 -84.66c39.05,-33.87 62.27,-81.74 97.62,-118.53 62.48,-65.03 547.46,-558.54 625.55,-626.27 17.96,270.99 10.74,921.52 213.91,1117.31 148.9,143.49 292.83,270.92 527.1,304.78 156.18,67.73 390.45,67.73 585.67,84.66 39.04,16.94 117.14,16.94 195.22,0 175.71,-50.8 312.36,-84.66 468.54,-169.32 78.09,0 156.18,-33.86 214.75,-67.73 78.09,-84.66 195.22,-169.32 292.83,-253.98l39.05 -33.87c175.7,-169.32 273.31,-338.65 429.49,-491.04 19.52,-16.93 0,-84.66 19.52,-101.59 117.14,-67.73 117.14,-169.32 214.75,-253.99l0 -16.93 -39.05 -16.93c0,-67.73 39.05,-118.53 58.57,-169.33 0,-67.73 19.52,-101.59 117.14,-101.59 39.04,0 78.08,-16.93 136.65,-16.93 195.23,-16.93 351.4,-33.87 566.15,-118.53l273.31 -101.59c97.61,-33.87 253.79,-33.87 273.32,-135.46 0,-16.94 19.52,-16.94 39.04,-16.94l136.66 0c78.09,0 78.09,-67.72 156.18,-118.52 117.13,-67.73 273.31,-169.33 468.53,-253.99l-136.65 -50.79c97.61,-16.93 117.13,-33.87 175.7,-67.73l0 -152.39 -19.52 -16.94c-488.06,152.39 -722.33,203.19 -1015.17,304.79 -331.88,101.59 -683.28,186.25 -1034.68,304.78 -19.52,-16.93 0,-33.87 0,-50.8 -58.57,-16.93 -78.09,-67.73 -117.14,-84.66l58.57 0c-39.05,-67.73 -58.57,-84.66 -97.61,-101.6 39.04,-16.93 58.56,-33.86 97.61,-33.86 -39.05,-67.73 -19.52,-169.32 -175.7,-169.32 0,0 -39.04,-50.8 -39.04,-67.73 58.56,-16.93 78.08,-16.93 117.13,-16.93 19.52,0 78.09,33.86 78.09,0 -136.66,-67.73 -234.27,-169.33 -351.41,-253.99 -39.04,-16.93 -117.13,-16.93 -136.65,-33.86 -234.27,-169.33 -507.58,-169.33 -702.81,-237.06 -39.04,-16.93 -78.09,-16.93 -97.61,-33.86 -78.09,-67.73 -117.13,-152.39 -214.74,-152.39 -156.18,0 -351.41,-16.94 -527.11,50.8 -234.27,101.59 -429.49,237.05 -605.19,389.44 -81.88,71.02 -144.69,191.69 -221.76,315.73 -5.33,8.58 -11,18.28 -16.96,29.01zm-11962.76 3583.57c0,-389.45 370.93,-1625.51 449.02,-1879.5 58.56,-203.19 97.61,-338.64 175.7,-491.04 97.61,-16.93 409.97,-101.59 644.23,-152.39 976.12,-203.18 2030.33,-541.83 3553.08,-355.58 702.8,84.66 1093.25,287.85 1366.56,711.16 370.93,592.63 78.09,1354.59 -449.01,1828.7 -878.51,778.88 -1815.58,1015.94 -3006.45,1083.67 -839.46,50.8 -1698.44,-152.39 -2069.36,-237.06 -136.66,-33.86 -663.77,-169.32 -663.77,-507.96zm9487.87 -5299.83c117.14,67.73 234.27,67.73 331.88,33.86 175.71,-101.59 351.41,-203.19 429.49,-389.44 78.1,-186.26 0,-372.51 -58.56,-541.84 -39.05,-118.52 -156.18,-169.32 -370.93,-152.39 0,0 -78.09,0 -97.61,16.93 -253.79,118.53 -468.54,237.05 -566.15,491.04 -39.04,169.32 0,304.78 117.14,423.31 58.56,50.8 156.17,84.66 214.74,118.53z"/>
  <path class="fil1" d="M24908.12 16515.55c215.44,-122.66 280.51,-451.34 359.72,-664.13 572.22,-1534.86 -335.23,-2175.93 -1084.47,-3770.71 -194.09,-412.94 -104.59,-765.92 -250.6,-1165.65 -1470.38,1302.74 -1664.29,3946.24 975.35,5600.49z"/>
  <path class="fil1" d="M102823.86 20653.49c215.44,-122.66 280.51,-451.34 359.72,-664.13 572.22,-1534.86 -335.23,-2175.93 -1084.47,-3770.71 -194.09,-412.94 -104.59,-765.92 -250.6,-1165.65 -1470.38,1302.74 -1664.29,3946.24 975.35,5600.49z"/>
  <path class="fil2" d="M24508.33 15474.87c177.19,335.08 547.86,696.05 430.15,1003.74 -23.6,-9.16 -47.16,-18.27 -70.82,-27.25 -556.26,-837.42 -1117.39,-2259.92 -1002.51,-3022.21 275.89,688.12 269.31,1338.1 643.18,2045.72z"/>
  <path class="fil2" d="M102424.07 19612.81c177.19,335.08 547.86,696.05 430.15,1003.74 -23.6,-9.16 -47.16,-18.27 -70.82,-27.25 -556.26,-837.42 -1117.39,-2259.92 -1002.51,-3022.21 275.89,688.12 269.31,1338.1 643.18,2045.72z"/>
 </g>
</svg>
