<?xml version="1.0" encoding="UTF-8"?>
<!DOCTYPE svg PUBLIC "-//W3C//DTD SVG 1.1//EN" "http://www.w3.org/Graphics/SVG/1.1/DTD/svg11.dtd">
<!-- Creator: CorelDRAW -->
<svg xmlns="http://www.w3.org/2000/svg" xml:space="preserve" width="380mm" height="120mm" version="1.1" style="shape-rendering:geometricPrecision; text-rendering:geometricPrecision; image-rendering:optimizeQuality; fill-rule:evenodd; clip-rule:evenodd"
viewBox="0 0 38000 12000"
 xmlns:xlink="http://www.w3.org/1999/xlink"
 xmlns:xodm="http://www.corel.com/coreldraw/odm/2003">
 <defs>
  <style type="text/css">
   <![CDATA[
    .fil2 {fill:white}
    .fil1 {fill:#61B22E}
    .fil0 {fill:#201351}
    .fil4 {fill:#61B22E;fill-rule:nonzero}
    .fil3 {fill:#201351;fill-rule:nonzero}
   ]]>
  </style>
 </defs>
 <g id="Warstwa_x0020_1">
  <metadata id="CorelCorpID_0Corel-Layer"/>
  <path class="fil0" d="M7607.35 8037.81l-40.27 -32.89c-96.01,-91.14 -226.43,-418.33 -396.33,-648.2 -460.79,-623.43 -757.58,-936.87 -1471.33,-1425.22 -135.53,-92.71 -221.24,-202.82 -440.87,-227.56 36.07,160.76 385.66,502.5 508.4,661.41 239.31,309.85 705.24,1159.28 784.2,1492.39 248.51,617.8 193.43,372.35 228.05,844.14 46.16,629.06 16.52,1257.56 -242.54,1848.16 -144.2,328.82 -375.91,811.7 -607.7,1104.27 -102.19,129.07 -293.46,244.85 50.23,244.85l3200.06 0c60.77,0 -610.01,-1496.41 -710.14,-1790.74 -45.36,-167.94 0,0 -106.05,-440.89 -3.15,-293.99 -41.55,-776.82 26.07,-1032.8 24.7,-93.56 0,0 56.95,-196.29 16.19,-122.58 31.88,-135.6 56.99,-223.58 70.03,-244.87 199.91,-602.99 323.56,-832.8 80.03,-148.74 27.19,-54.52 196.22,-398.14 120.71,-204.07 23.04,-40.35 213.4,-362.13 158.6,-207.38 300.31,-441.77 527.99,-697.04 82.19,-71.64 246.73,-233.88 281.39,-322.52 -351.17,40.12 -1270.51,864.18 -1453.03,1036.39 -329.62,311.01 -852.92,987.49 -985.25,1399.19z"/>
  <path class="fil1" d="M8582.67 4252.29c680.35,-182.81 528.72,-448.44 737.4,-928.32 68.49,-157.44 186.08,-275.55 291.74,-400.2l-24.3 0c-170.13,46.32 -340.39,92.64 -510.52,138.96 -400.39,161.99 -908.11,450.57 -769.86,950.55 28.36,102.53 92.36,185.94 121.61,277.93l16.15 0c-1.37,-120.45 144.99,-477.33 235.02,-539.2 -51.26,116.71 -102.66,233.45 -153.98,350.2l8.15 0 0 -11.12c16.15,-18.54 32.4,-37.05 48.59,-55.59 -13.2,74.39 -25.66,144.49 0,216.79z"/>
  <path class="fil0" d="M8704.21 3813.16c10.57,15.12 3.58,10.69 -8.09,22.23 2.73,-7.44 5.37,-14.83 8.09,-22.23z"/>
  <path class="fil0" d="M8606.97 3974.36l0 33.33 -8.1 0c2.69,-11.11 5.41,-22.23 8.1,-33.33z"/>
  <path class="fil1" d="M7018.67 928.16c75.63,-40.73 151.32,-81.5 226.95,-122.27 40.49,-77.81 81.04,-155.63 121.53,-233.45 35.08,-38.93 70.21,-77.85 105.35,-116.74l-24.3 0c-62.12,11.1 -124.27,22.22 -186.4,33.33 -249.81,71.26 -433.13,248.67 -251.23,439.13l8.1 0z"/>
  <path class="fil2" d="M7083.52 766.96c11.46,33.45 -28.71,117.14 -56.7,144.56l-8.15 0c-8.1,-7.42 -16.19,-14.86 -24.29,-22.25 29.71,-40.77 59.43,-81.54 89.14,-122.31z"/>
  <path class="fil1" d="M8509.72 1645.25c157.73,-112.48 324.3,-218.34 502.48,-316.83 59.38,-37.08 118.8,-74.13 178.23,-111.18 -150.83,157.15 -531.24,305.06 -615.86,478.05l32.4 0c626.23,-128.83 696.16,-196.19 867.1,-633.68 32.4,-94.49 64.79,-189.05 97.19,-283.53 -339.33,301.45 -921.06,220.06 -1053.43,694.83 -12.52,44.96 -44.44,122.13 -8.11,183.45l0 -11.11z"/>
  <path class="fil1" d="M7585.94 2840.36c-47.75,-174.53 -185.24,-308.28 -243.14,-489.16 -23.19,-72.52 24.99,-244.89 -8.05,-294.61 -568.83,367.08 -718.78,1059.32 64.81,1356.34 -60.07,-110.47 -320.04,-622.28 -235,-772.69l8.11 0c5.89,192.43 197.43,760.28 356.53,817.13 -95.56,-217.65 117.91,-393.41 56.74,-617.01z"/>
  <path class="fil1" d="M7229.41 1472.91c29.35,85.18 48.02,182.91 121.55,239.05l8.09 0c1,-219.53 167.14,-373.93 251.19,-544.76l8.09 0c-25.55,129.69 -200.59,342.65 -145.83,489.16l8.1 0c109.19,-10.46 199.69,-73.12 275.53,-111.15 408.59,-204.88 251.07,-432.78 397.08,-800.47 34.18,-86.11 217.57,-307.81 210.62,-311.26 -116.12,33.32 -232.3,66.7 -348.42,100.03 -409.75,164.04 -957.61,441.72 -786,939.4z"/>
  <path class="fil1" d="M8064 3073.85c2.74,-3.72 5.47,-7.44 8.15,-11.12 129.81,-130.63 154.42,-330.75 316.04,-439.12 -48.6,83.38 -97.25,166.74 -145.85,250.12 -17.51,53.72 3.69,84.16 -16.24,138.96l8.15 0c218.94,-55.87 427.89,-102.41 551.01,-222.34 157.04,-153.03 157.57,-396.8 251.18,-594.79 65.11,-137.55 203.54,-220.43 316.04,-322.42l-40.51 0c-130.37,40.38 -274.16,47.01 -397.07,83.41 -636.69,188.5 -976.91,515.72 -850.9,1117.3z"/>
  <path class="fil1" d="M10527.5 1511.83c-24.3,74.12 -48.65,148.25 -72.95,222.39 -74.05,123.7 -264.86,228.68 -210.68,428 29.71,109.24 103.72,189.66 145.89,283.5 5.37,-1.88 10.78,-3.72 16.25,-5.56 45.92,-140.81 91.82,-281.65 137.74,-422.46 10.77,-94.48 21.61,-189.04 32.39,-283.48l8.11 0c14.19,286.66 -86.15,479.17 -113.45,722.61 350.91,-175.3 410.06,-455.61 210.68,-767.14 -40.22,-62.77 -82.14,-136.51 -153.98,-177.86z"/>
  <path class="fil1" d="M10592.35 2718.09c15.41,-52.71 107.23,-184.92 81.04,-211.23 -300.94,159.5 -588.77,170.9 -729.36,455.84 -46.64,94.55 -32.08,277.53 48.65,339.04 45.23,-164.51 247.3,-438.83 405.17,-528.05 2.69,-5.56 5.43,-11.11 8.16,-16.71 -1.85,8.19 3.31,5.6 -8.16,16.71 -85.19,177.64 -306.19,284.6 -324.13,516.94 511.95,-62.2 426.17,-257.19 518.63,-572.54z"/>
  <path class="fil1" d="M9798.19 2045.48l8.11 0c-1.37,-131.32 106.96,-381.29 162.08,-505.86l8.11 0c-8.8,130.3 -39.45,266.2 -40.55,416.93 117.85,-16.13 215.78,-84.81 291.72,-133.44 396.61,-253.73 110.98,-448.04 218.79,-839.36 19.73,-71.47 168.66,-301.49 162.09,-305.72 -113.44,46.3 -226.88,92.65 -340.37,138.97 -312.73,155.78 -799.36,496.42 -664.46,911.62 40.18,123.64 141.52,207.52 194.48,316.86z"/>
  <path class="fil1" d="M9861.01 6836.78c132.37,-31.5 264.75,-63.03 397.06,-94.53 435.22,-134.17 539.56,-421.84 648.31,-783.76 20.37,-67.72 105.67,-357.42 72.91,-411.38 -261.49,342.62 -931.69,425.31 -1158.79,778.24 -57.48,89.33 -163.03,391.1 -40.54,500.28 52.8,-113.36 634.8,-576.58 777.95,-650.36 -65.27,126.05 -252.5,217.43 -364.63,316.82 -123.96,109.9 -223.56,221.52 -332.27,344.69z"/>
  <path class="fil1" d="M13266.47 3907.65c8.11,-1.84 16.25,-3.72 24.36,-5.56 78.94,-80.27 196.8,-200.01 332.23,-239l0 5.52c-91.36,83.4 -207.12,150.18 -259.29,261.26 146.48,-39.22 307.08,-52.35 421.37,-111.15 152.63,-78.58 246.09,-219.63 364.62,-322.42 76.94,-66.66 183.19,-98.2 291.74,-144.52 -148.53,-1.88 -297.11,-3.72 -445.73,-5.56 -116.12,24.06 -232.3,48.17 -348.43,72.27 -196.12,60.53 -473.01,258.67 -380.87,489.16z"/>
  <path class="fil1" d="M8995.95 5475.21l8.1 0c568.58,-186.95 391.81,-347.41 526.72,-794.91 16.46,-54.62 113.43,-294.61 113.43,-294.61 -334.01,228.87 -1014.66,422.14 -858.94,889.41 26.67,79.94 44.81,170.17 113.44,222.33 15.99,-126.91 325.5,-644.65 429.48,-711.5 -40.51,62.99 -81.06,126.02 -121.55,188.97 -95.19,165.84 -154.52,303.91 -210.68,500.31z"/>
  <path class="fil1" d="M13825.64 5119.46l-8.11 0c-264.9,86.73 -613.01,72.48 -632.06,327.97 137.28,-3.28 186.82,-68.73 283.64,-100.07 -71.84,68.65 -168.88,110.18 -275.59,155.63 2.74,3.71 5.47,7.43 8.16,11.11 370.88,4.58 577.98,-180.42 623.96,-394.64z"/>
  <path class="fil1" d="M13266.47 2601.35l8.11 -5.56c-1.22,-148.88 -254.77,-386.3 -356.53,-494.71 176.44,63.71 258.28,319.6 413.33,411.31l8.03 0c14.73,-387.54 -245.18,-575.71 -737.4,-633.65l-8.09 5.55c46.6,45.46 105.71,82.69 137.73,138.94 150.01,263.1 85.57,522.31 534.82,578.12z"/>
  <path class="fil1" d="M11645.83 6420.16c2.68,7.44 5.37,14.87 8.05,22.26 182.01,9.02 407.28,18.4 559.16,-22.26 484.32,-129.55 597.88,-553.37 1175.02,-628.13 -122.59,-64.11 -586.67,-50.86 -810.4,-49.99 -97.18,12.94 -194.49,25.93 -291.67,38.89 -322.18,68.93 -500.05,189.46 -656.41,372.41 -43.65,51.15 -140.42,183.99 -89.09,272.42 5.35,-1.88 10.78,-3.72 16.15,-5.6 49.37,-103.53 352.51,-310.03 526.76,-322.38l0 5.56 -16.25 0c-37.76,25.94 -75.63,51.87 -113.45,77.82 109.71,-33.01 186.23,-97.74 307.99,-127.82 -8.16,7.39 -16.25,14.79 -24.3,22.22 -204.63,55.66 -489.38,215.7 -591.56,344.6z"/>
  <path class="fil1" d="M14400.95 5053c19.72,58.67 28.87,124.96 72.94,163.07 -2.84,-232.68 146,-409.12 210.75,-598.04l8.09 0c-38.13,193.11 -131.01,349.74 -170.19,577.66l8.09 0c234.94,-95.37 369.74,-334.83 299.84,-638.84 -19.93,-86.86 -17.83,-175.3 -81.04,-224.3 -29.34,280.53 -473.07,349.48 -348.48,720.45z"/>
  <path class="fil1" d="M12869.4 5019.39l8.14 0c8.11,-3.73 16.21,-7.41 24.3,-11.12 125.38,-190.56 630.28,-385.12 956.2,-444.68 -5.37,5.56 -10.78,11.11 -16.15,16.67 -317.66,68.58 -728.1,238.75 -867.14,433.56 5.47,3.73 10.82,7.44 16.24,11.12 666.08,91.74 1084.09,-233.99 1304.66,-478.02 34.93,-38.67 259.24,-284.46 226.89,-305.75 -265.44,134.42 -681.44,97.01 -1045.33,172.31 -360.47,74.6 -579.99,305.38 -607.81,605.91z"/>
  <path class="fil1" d="M12715.5 3212.82c175.57,-75.99 351.12,-151.96 526.67,-227.9 -97.03,114.51 -408.01,147.3 -469.97,277.93 8.1,1.84 16.21,3.69 24.3,5.56 157.88,-26.66 297.42,-23.05 413.27,-72.26 123.23,-52.31 480.49,-339.31 397.08,-494.76 -140.21,124.78 -380.83,97.95 -607.76,166.79 -165.03,50.03 -251.65,204.51 -283.59,344.64z"/>
  <path class="fil1" d="M10997.52 2840.36l0 -11.12c100.03,-113.53 120.97,-303.83 299.83,-361.3l0 5.59c-100.03,107.33 -192.76,217.11 -226.94,372.42l8.15 0c333.91,-120.1 330.44,-301.68 445.68,-555.91l-24.3 0c-335.18,137.5 -672.82,164.99 -510.51,550.32l8.09 0z"/>
  <path class="fil1" d="M10584.25 3663.09c-192.49,324.68 -560.07,404.01 -413.28,894.94 21.61,83.37 43.23,166.75 64.8,250.13 116.12,-164.87 232.3,-329.86 348.48,-494.72 56.53,-121.66 78.25,-251.49 113.44,-389.12 10.78,-81.51 21.61,-163.07 32.45,-244.57l8.1 0c10.15,409.47 -115.5,572.21 -267.44,844.91 -43.23,94.49 -86.45,189.01 -129.69,283.5 103.76,-23.31 174.34,-80.09 251.24,-122.31 511.51,-280.67 552.43,-738.92 259.28,-1195.1 -50.02,-77.86 -91.4,-158.78 -170.15,-216.79 -51.85,138.47 -29.61,274.98 -97.23,389.13z"/>
  <path class="fil1" d="M5543.87 1395.1c58.23,-160.29 242.13,-503.56 397.07,-594.76 2.69,-5.56 5.37,-11.12 8.05,-16.67 -1.74,8.15 3.37,5.55 -8.05,16.67 -80.04,170.85 -315.56,326.23 -275.53,555.87 5.37,1.84 10.78,3.71 16.21,5.55 194.8,-42.72 413.64,-100.62 526.7,-200.12 169.09,-148.74 191.33,-359.5 283.64,-566.97 85.99,-193.35 208.38,-341.51 380.88,-472.51l-40.55 0c-124.23,27.79 -248.51,55.61 -372.72,83.38 -496.85,141.53 -844.65,349.8 -964.35,755.99 -39.35,133.48 -54.8,327.71 32.45,439.15 5.37,-1.87 10.78,-3.71 16.2,-5.58z"/>
  <path class="fil1" d="M6265.08 483.47c-6.27,49.07 -160.31,177.1 -226.89,211.23 47.91,-85.28 151.26,-143.98 226.89,-211.23z"/>
  <path class="fil2" d="M6030.03 694.7c-1.73,8.19 3.37,5.59 -8.05,16.71 2.69,-5.56 5.37,-11.12 8.05,-16.71z"/>
  <path class="fil1" d="M12204.95 4480.19c43.22,-44.46 86.41,-88.93 129.64,-133.42 134.84,-146.51 286.04,-297.34 372.76,-472.46l8.15 0c-57.38,263.76 -431.72,449.8 -461.97,667.02l8.16 0c424.52,-110.21 700.59,-329.41 591.57,-778.21 -24.99,-102.6 -16.1,-210.4 -72.96,-294.59 -102.35,301.55 -499.99,381.11 -615.86,605.9 -38.34,74.32 -11.19,358.2 40.51,405.76z"/>
  <path class="fil1" d="M12099.59 1895.41c-29.02,53.82 -54.37,139.86 -32.44,194.55 18.29,45.53 108.96,98.57 89.2,144.49 -89.2,61.15 -178.35,122.34 -267.44,183.46 -311.45,266.74 -704.95,611.88 -413.33,1072.84 53.12,83.91 112.56,180.27 210.74,233.45 -9.2,-280.61 27.67,-978.69 243.1,-1089.48 -132.12,269.75 -300.42,706.99 -137.76,1028.37 5.43,-3.72 10.8,-7.44 16.21,-11.12 532.03,-171.29 387.66,-650.02 299.83,-1072.85 -35.29,-170.06 117.85,-295.43 97.25,-422.45 49.48,15.54 65.41,77.46 89.13,111.15l0 -11.1c182.82,-143.09 -47.7,-305.94 -194.49,-361.31z"/>
  <path class="fil1" d="M11978.06 1522.95c-2.74,3.71 -5.43,7.43 -8.11,11.12 -314.76,85.86 -645.78,346.39 -810.35,544.75 153.94,-25.01 354.43,-31.93 478.08,-83.38 197.9,-82.29 309.45,-295.97 437.63,-428.01 60.79,-62.66 175.54,-106.07 226.87,-166.75l-356.52 0c-94.56,12.96 -189.12,25.9 -283.68,38.89 -293.58,61.77 -477.02,158.96 -575.32,355.76 -26.72,53.46 -76.63,218.19 -24.29,272.41 96.13,-136.62 687.8,-500.78 915.69,-544.79z"/>
  <path class="fil1" d="M11167.71 5358.46c305.56,-73.52 360.15,-382.73 291.72,-644.79 -21.51,-82.4 11.8,-237.46 -64.83,-283.49 -116.03,262.06 -680.81,415.42 -478.08,805.99 36.71,70.74 70.47,145.17 145.85,189l8.04 0c25.88,-238 99.45,-404.13 186.39,-583.64l16.25 0 0 5.55c-49.7,89.14 -199.96,430.69 -105.34,511.38z"/>
  <path class="fil1" d="M11932.89 8015.42c-271.91,-255.28 -306.24,-553.31 -972.38,-550.31 -29.71,5.59 -59.44,11.14 -89.15,16.7l0 22.23c199.9,126.01 399.76,251.99 599.67,377.97 -186.24,-48.31 -549.92,-375.06 -696.92,-361.31 -0.73,520.91 661.67,609.98 1361.42,650.39 -5.48,-5.59 -10.83,-11.11 -16.25,-16.7 -81.25,-27.67 -134.37,-90.16 -186.39,-138.97z"/>
  <path class="fil1" d="M406.2 5180.6c64.58,30.46 236.98,107.66 348.48,77.79 -5.41,-1.84 -10.78,-3.68 -16.21,-5.52 -59.52,-55.92 -129.99,-108.77 -170.19,-177.89 16.21,9.27 32.46,18.54 48.66,27.77 22.56,38.21 76.2,66.42 121.53,88.97 57.55,-49.54 21.62,-204.37 -8.09,-255.71 -91.46,-157.72 -350.06,-211.16 -518.61,-316.86 -45.98,-42.61 -91.88,-85.25 -137.8,-127.82 -51.97,318.63 48.5,555.4 332.23,689.27z"/>
  <path class="fil1" d="M568.28 4257.84l0 -16.67c-59.42,-72.26 -118.85,-144.52 -178.28,-216.78 5.42,1.84 10.83,3.72 16.2,5.56 70.26,53.72 140.48,107.47 210.74,161.19l8.04 0c5.16,-209.25 -145.73,-224.58 -291.68,-322.42 -29.71,-31.5 -59.42,-62.99 -89.14,-94.48 -39.86,215.8 -13.41,475.55 324.12,483.6z"/>
  <path class="fil0" d="M373.81 3996.58c2.68,5.58 5.41,11.11 8.09,16.7l-8.09 0 0 -16.7z"/>
  <path class="fil1" d="M1224.7 6097.78c-5.42,-5.55 -10.84,-11.11 -16.2,-16.67 -175.61,-94.52 -351.21,-189 -526.77,-283.48 216.05,88.93 432.21,177.86 648.31,266.81 -84.09,-428.59 -457.35,-400.63 -988.63,-511.41 -97.25,-31.5 -194.49,-62.99 -291.74,-94.49 185.03,247.42 550.34,770.31 1175.03,639.24z"/>
  <path class="fil2" d="M649.34 5780.93l0 5.58 -8.11 0c-33.6,-13.63 -63.21,-24.78 -81.04,-50.04 29.71,14.8 59.44,29.66 89.15,44.46z"/>
  <path class="fil1" d="M462.94 6309.01l32.4 0c29.72,22.22 59.44,44.48 89.15,66.71l8.09 0c39.34,-237.02 -79.31,-211.45 -283.57,-316.86 -40.55,-29.63 -81.05,-59.28 -121.6,-88.93 -8.2,228.8 68.64,398.39 332.29,433.56 -18.94,-31.49 -37.87,-62.98 -56.76,-94.48z"/>
  <path class="fil1" d="M949.17 4708.11c129.58,462.18 372.41,724.1 1053.43,800.44 -5.37,-3.73 -10.78,-7.4 -16.21,-11.12 -41.91,-64.75 -133.64,-103.43 -194.48,-155.64 -118.8,-102.02 -272.01,-220.24 -348.43,-344.63 10.78,5.56 21.62,11.11 32.4,16.66 72.32,112.14 372.77,331.16 518.62,400.24 6.1,-550.53 -194.18,-629.58 -632.06,-867.14 -165.57,-89.86 -241.93,-218.26 -372.78,-333.52 -70.63,139.47 -86.26,331.64 -40.49,494.71z"/>
  <path class="fil2" d="M1062.61 4407.96c20.09,13.34 271.16,452.72 291.73,494.71 -10.79,-5.58 -21.61,-11.15 -32.45,-16.7 -73.63,-128.79 -289.84,-312.03 -259.28,-478.01z"/>
  <path class="fil1" d="M762.77 3563.01l0 -11.12c89.51,-141.28 -54.8,-445.76 16.21,-583.64 5.41,1.84 10.82,3.68 16.19,5.52 12.83,191.92 69.16,427.39 32.45,628.13l8.1 0 0 -11.12c345.59,-208.08 195.28,-678.59 -137.8,-833.8 -5.35,57.43 -10.77,114.91 -16.19,172.34 -76.36,193.08 -229.19,345.29 -40.5,544.72 34.41,36.4 54.8,74.64 121.54,88.97z"/>
  <path class="fil1" d="M2318.68 3390.67c-136.01,-181.11 -361.46,-316.72 -461.92,-533.61 5.36,1.84 10.78,3.68 16.19,5.56 51.97,105.89 319.87,395.97 453.78,439.12l0 -11.11c36.81,-52.35 32.44,-129.45 32.44,-205.68 0,-370.03 -378.92,-372.13 -607.76,-572.56 -54.48,-47.7 -153.72,-198.14 -210.68,-227.9 -144.69,586.35 45.7,1003 777.95,1106.18z"/>
  <path class="fil1" d="M1848.65 7254c-218.73,-41.31 -476.7,15.44 -680.7,38.89 -264.59,30.45 -479.43,-27.38 -656.35,-66.7 55.47,86.5 184.91,146.5 267.38,216.78 400.91,341.64 1046.01,472.64 1677.44,194.57 -172.51,-149.08 -301.3,-325.68 -607.77,-383.54z"/>
  <path class="fil2" d="M2383.47 7648.64c-57.7,19.12 -470.69,-61.18 -534.82,-88.93 -10.82,-1.84 -21.61,-3.71 -32.43,-5.55l32.43 0 0 5.55c186.4,25.95 372.78,51.88 559.12,77.83 -8.1,3.71 -16.21,7.42 -24.3,11.1z"/>
  <path class="fil1" d="M2415.92 4291.21c19.98,-53.82 -15.77,-122.44 -32.45,-172.33 -120.17,-360.05 -370.2,-341.22 -729.29,-516.98 -93,-45.5 -127.97,-122.08 -210.7,-172.31 -69.63,450.93 275.32,954.19 972.44,861.62z"/>
  <path class="fil2" d="M2197.13 4163.36c78.9,34.02 195.22,44.12 218.79,116.74 -5.42,1.84 -10.83,3.68 -16.25,5.56 -216.94,-68.26 -518.56,-240.85 -607.76,-394.68 146.68,82.84 238.67,200.51 405.22,272.38z"/>
  <path class="fil1" d="M14052.51 6748.13c164.95,-38.49 246.88,-190.87 388.99,-250.12 -42.82,104.16 -194.97,178.45 -291.74,250.12 320.08,-26.4 508.89,-176.02 510.52,-416.9 0.37,-48.98 8.1,-111.98 -16.15,-144.52 -226.72,253.76 -542.23,123.6 -591.62,561.42z"/>
  <path class="fil1" d="M13031.48 6636.98c-78.31,3.68 -156.67,7.39 -234.98,11.12 -210.74,39.28 -438.42,147.33 -526.72,272.37 88.99,-14.29 562.28,2.35 656.36,33.34 -114.12,-1.59 -765.42,-10.75 -810.34,38.93 195.84,63.2 314.87,170.35 567.21,222.33 626.17,128.95 1333.8,-187.73 1596.45,-405.78l0 -5.56c-575.42,59.02 -737.98,-141.13 -1247.98,-166.75z"/>
  <path class="fil1" d="M4987.9 7703.11c97.24,-110.65 89.25,-262.68 145.9,-405.76 -2.74,-3.71 -5.42,-7.43 -8.11,-11.1 -98.08,36.86 -152.4,98.81 -234.98,144.48 -197.22,109.09 -388.07,215.49 -591.56,322.42 -128.22,67.36 -250.66,164.65 -413.32,205.67 125.54,-111.22 350.1,-184.49 518.67,-266.82 212.53,-103.83 450.86,-262.82 607.76,-405.75l-202.59 0c-75.63,3.67 -151.32,7.39 -226.95,11.1 -121.48,14.54 -233.5,39.94 -324.11,77.79 -270.54,113.17 -369.95,363.79 -551.03,539.19 -86.4,66.71 -172.91,133.46 -259.32,200.13 -56.7,27.81 -113.45,55.63 -170.15,83.4 674.4,-13.24 1446.51,-195.21 1709.79,-494.75z"/>
  <path class="fil1" d="M13995.77 5686.44c-203.21,84.88 -296.09,280.13 -299.77,500.27 140.42,-79.65 280.94,-159.35 421.37,-239.01 -90.78,84.06 -255.71,157.45 -307.93,261.27 514.19,-1.08 747.55,-255.89 883.29,-522.53 34.45,-67.68 123.86,-224.32 81,-311.31 -148.31,192.29 -511.06,199.87 -777.96,311.31z"/>
  <path class="fil1" d="M13890.43 7420.74c-130.06,27.11 -202.79,111.44 -259.28,189.01 2.73,7.39 5.41,14.83 8.1,22.22 261.02,67.4 540.49,-80.26 551.06,-250.12l-16.19 0c-61.65,37.34 -193.45,20.1 -283.69,38.89z"/>
  <path class="fil1" d="M9145.28 7415.11c52.37,120.74 55.53,246.91 137.78,344.63 247.92,294.57 836.71,386.74 1499.16,394.65 -48.6,-33.34 -97.24,-66.67 -145.89,-100.04 -78.31,-77.82 -156.62,-155.64 -234.99,-233.45 -168.45,-189.41 -233.45,-395.73 -583.4,-461.39 -105.35,-5.55 -210.75,-11.11 -316.09,-16.67 -92.04,22.88 -198.69,5.12 -267.38,38.89 95.4,84.53 252.24,132.4 380.82,194.57 183.65,105.6 367.36,211.23 551.06,316.86 86.41,42.61 172.94,85.21 259.28,127.82 -174.18,-27.31 -295.71,-139.44 -421.36,-205.68 -274.49,-144.63 -553.7,-272.95 -858.99,-400.19z"/>
  <path class="fil1" d="M5130.55 2545.76l0 -5.56c-124.17,-162.53 -328.65,-284.03 -421.38,-472.46 10.84,5.52 21.62,11.08 32.4,16.63 58.17,99.03 296.57,330.87 421.42,383.57 14.79,-121.58 102.35,-258.71 56.7,-411.35 -59.43,-198.82 -299.51,-303.29 -494.31,-411.34 -183.55,-101.81 -274.07,-249.29 -405.13,-389.09 -29.72,124.11 -59.49,248.28 -89.2,372.42 -113.81,520.77 362.11,825.62 899.5,917.18z"/>
  <path class="fil1" d="M2537.47 2540.2c-3.16,222.31 53.43,386.35 251.17,466.94 64.85,20.38 129.64,40.76 194.5,61.15 306.61,238.79 609.38,472.17 1077.78,600.32 274.89,75.21 809.35,58.54 1004.82,-55.56l0 -5.56c-253.91,-79.69 -507.83,-159.35 -761.74,-239.04 275.48,66.7 551.06,133.41 826.55,200.11l0 -16.67c-134.8,-192.79 -306.2,-396.62 -623.97,-461.37 -301.93,-61.56 -713.26,10.49 -980.47,38.92 -179.56,19.08 -369.68,-30.13 -494.33,-55.59 -55.91,-155.57 -201.53,-145.07 -267.44,-261.27 104.2,52.17 197.24,153.5 332.23,177.89l0 -55.59c-88.82,-236.59 -206.48,-186.7 -437.57,-305.75 -40.49,-29.62 -81.04,-59.27 -121.53,-88.93z"/>
  <path class="fil1" d="M3104.68 1978.78c155.4,419.39 476.91,452.54 1012.98,600.34 -53.38,-86.76 -100.66,-155.12 -178.35,-222.33 -110.71,-77.85 -221.46,-155.68 -332.22,-233.49 247.92,110.11 415.38,242.87 559.17,428.01l8.1 0c4.51,-325.16 -131.17,-531.62 -437.63,-655.9 -126.9,-35.21 -253.92,-70.42 -380.82,-105.64 -112.23,-46.22 -188.18,-111.44 -283.62,-166.75 27.96,112.71 -6.8,250.05 32.39,355.76z"/>
  <path class="fil1" d="M6913.33 5992.15c5.42,-1.84 10.84,-3.68 16.2,-5.56 53.81,-704.83 -341.9,-644.54 -907.55,-928.31 -123,-61.66 -250.81,-154.2 -340.36,-239.02 -37.83,-44.44 -75.64,-88.92 -113.46,-133.41 -17.18,766.34 369.1,1305.18 1369.53,1395.26 -5.43,-5.55 -10.84,-11.14 -16.25,-16.67 -43.5,-58.65 -157.63,-95.88 -226.89,-138.96 -37.18,-23.16 -35.03,-53.97 -64.85,-83.41 -108.5,-107.11 -278.05,-187.16 -356.53,-316.85 8.1,3.71 16.2,7.42 24.3,11.1 124.75,194.86 434.05,299.44 615.86,455.83z"/>
  <path class="fil1" d="M6483.85 2879.28c287.33,-307.84 42.24,-575.6 -56.74,-889.39 -25.67,-81.5 48.65,-411.35 48.65,-411.35 -89.14,59.31 -178.29,118.59 -267.44,177.9 -352.37,311.02 -586.14,757.75 -194.48,1150.66 70.21,70.43 157.84,164.44 275.53,200.08 -37.61,-70.02 -125.95,-524.56 -72.94,-617.02 24.29,126.01 48.65,252.03 72.94,378.02 16.51,44.58 60.95,92.24 48.59,138.96 71.32,-22.55 104.88,-83.88 145.89,-127.86z"/>
  <path class="fil1" d="M4660.57 1172.76c138.9,-92.65 281.69,-284.22 348.43,-416.9l16.19 0 0 5.59c-87.76,161.83 -197.21,296.4 -299.81,444.68 291.2,-59.14 476.74,-265.38 405.17,-550.32 -14.89,-59.49 -10.57,-108.63 -56.69,-144.55 -121.97,210.5 -619.77,325.66 -413.29,672.6l0 -11.1z"/>
  <path class="fil1" d="M2748.15 2490.16c-88.4,-91.88 -386.09,-579.97 -291.73,-744.84l0 11.12c32.39,103.76 64.85,207.51 97.24,311.3 66.22,145.42 210.06,296.48 218.79,439.12 10.82,3.69 21.62,7.4 32.4,11.12 3.73,-163.43 113.18,-327.36 48.64,-489.16 -54.59,-136.88 -208.43,-251.96 -299.83,-372.46 -35.12,-74.1 -70.26,-148.24 -105.34,-222.34 -289.95,403.01 -346.58,864.1 299.83,1056.14z"/>
  <path class="fil1" d="M5122.5 4107.76c-118.7,30.27 -299.77,5.41 -388.98,55.6 591.67,73.81 643.37,637.15 1426.21,472.49 -66.26,-116.49 -560.85,-253.44 -696.91,-344.64 309.09,58.52 546.86,213.57 794.16,322.38l0 -38.89c-165.94,-346.3 -450.46,-471.52 -1134.48,-466.94z"/>
  <path class="fil1" d="M3639.54 1534.07c-29.09,-102.83 206.33,-336.54 299.77,-383.54 -48.58,50 -97.18,100.08 -145.83,150.08 -54.86,63.78 -60.42,143.23 -97.24,222.34 305.3,-40.76 317.45,-230.92 397.08,-428.02 27.03,-49.99 54.05,-100.03 81.04,-150.07 -252.19,97.26 -670.45,161.45 -591.56,455.82 15.04,56.1 16.3,97.24 56.74,133.39z"/>
  <path class="fil1" d="M4279.7 4685.85c16.89,236.27 183.61,538.91 397.08,650.39 61.69,-9.09 77.52,-21.61 129.64,0 16.19,33.34 32.45,66.71 48.64,100.08l0 -11.15c119.6,-104.23 329.61,-335.15 226.89,-539.2 -63.11,-125.4 -221.83,-209.78 -316.02,-316.82 -59.59,-67.68 -67.49,-197.09 -105.36,-250.16 -112.02,189.04 -161.14,472.79 -97.23,722.65l-32.41 0c-83.72,-118.62 -167.51,-237.2 -251.23,-355.79z"/>
  <path class="fil1" d="M1597.42 6670.32c-73.26,-133.99 -219.56,-210.44 -486.17,-211.23 -135.05,18.54 -270.16,37.05 -405.22,55.59 152.78,141.24 454.14,304.17 818.45,244.57l0 -22.22c-56.33,-66.68 -193.44,-68.84 -267.38,-122.27 113.43,24.06 226.89,48.17 340.32,72.23l0 -16.67z"/>
  <path class="fil1" d="M2383.47 6753.73c-129.64,27.77 -259.33,55.59 -388.97,83.37 2.73,3.68 5.41,7.4 8.1,11.11 394.6,52.2 691.64,439.49 1191.22,355.76 110.76,-29.66 221.52,-59.28 332.29,-88.93 -2.75,-3.73 -5.43,-7.44 -8.16,-11.12 -97.19,-35.21 -194.43,-70.42 -291.74,-105.63 -93.46,-28.5 -254.12,-31.1 -324.12,-77.82 265.33,40.26 478.75,83.12 688.81,144.53 -5.42,-7.44 -10.78,-14.83 -16.21,-22.26 -140.46,-240.35 -379.34,-326.71 -891.39,-322.38 -99.93,11.1 -199.9,22.22 -299.83,33.37z"/>
  <path class="fil1" d="M2594.15 5908.78c-155.4,-69.92 -356.51,-60.1 -567.21,-100.05 -191.37,-36.32 -326.01,-114.25 -445.72,-200.11 10.04,308.96 312.46,594.65 632.12,700.39 90.19,29.87 488.17,83.77 559.11,0 -162.03,-75.97 -324.19,-151.96 -486.23,-227.9 211.8,45.43 363.06,158.02 591.57,194.53 -61.33,-149.64 -116.8,-291.82 -283.64,-366.86z"/>
  <path class="fil1" d="M4174.36 4669.19c-55.85,-381.94 -408.8,-656.45 -883.3,-755.99 -162.03,-18.51 -324.13,-37.05 -486.21,-55.59 -126.91,3.71 -253.92,7.43 -380.83,11.11 2.68,3.72 5.41,7.43 8.1,11.11 444.99,110.47 544.34,537.47 891.4,722.66 192.64,102.81 452.71,128.24 802.19,127.85 -24.99,-55.57 -98.62,-81.97 -145.84,-122.3 -164.73,-140.59 -358.37,-279.38 -567.26,-389.13 -102.61,-53.72 -205.27,-107.47 -307.93,-161.19 452.93,112.92 714.62,424.84 1069.68,611.47z"/>
  <path class="fil1" d="M3258.67 5113.9c61.79,22.16 100.39,54.23 186.38,61.12 -78.57,-303.41 -376.55,-444.43 -915.73,-439.13 -195.49,48.81 -462.04,22.62 -607.72,105.64 2.68,3.68 5.37,7.39 8.11,11.1 541.02,143.01 656.82,498.58 1418.11,361.31 -5.43,-9.27 -10.84,-18.54 -16.21,-27.77 -263.34,-78 -444.14,-220.65 -777.95,-266.86l0 -5.52c286.48,17.6 492.33,123.81 705.01,200.11z"/>
  <path class="fil1" d="M7530.61 6511.94c680.35,-182.81 528.72,-448.44 737.41,-928.33 68.48,-157.43 186.08,-275.55 291.73,-400.2l-24.3 0c-170.13,46.33 -340.38,92.64 -510.51,138.97 -400.39,161.99 -908.12,450.57 -769.86,950.55 28.36,102.53 92.36,185.93 121.61,277.93l16.14 0c-1.37,-120.46 145,-477.33 235.03,-539.2 -51.27,116.71 -102.66,233.45 -153.99,350.2l8.16 0 0 -11.12c16.14,-18.54 32.39,-37.05 48.58,-55.59 -13.19,74.39 -25.66,144.49 0,216.79z"/>
  <path class="fil1" d="M6851.89 4479.28l0 -5.55c-124.17,-162.53 -328.65,-284.03 -421.38,-472.47 10.84,5.53 21.62,11.08 32.4,16.63 58.17,99.04 296.56,330.87 421.42,383.58 14.79,-121.59 102.34,-258.71 56.69,-411.35 -59.42,-198.82 -299.5,-303.3 -494.3,-411.35 -183.55,-101.8 -274.07,-249.29 -405.13,-389.08 -29.72,124.1 -59.49,248.27 -89.2,372.41 -113.81,520.77 362.1,825.62 899.5,917.18z"/>
  <path class="fil1" d="M7697.7 4965.9c74.54,-21.68 132.5,-82.75 180.29,-122.06 344.97,-283.61 171.74,-408.7 158.24,-711.17 -3.52,-78.31 64.16,-143.78 72.34,-219.35 -565.33,235.01 -940.36,728.05 -410.87,1052.58z"/>
  <path class="fil1" d="M11734.15 5728.31c6.64,-3.69 13.27,-7.43 19.91,-11.13 32.34,-94.24 80.69,-234.87 187.19,-304.25l2.85 5.16c-42.34,100.21 -116.09,190.79 -107.48,307.34 116.71,-72.28 260.11,-123.6 336.59,-206.37 102.13,-110.58 116.65,-265.2 174.39,-390.13 37.5,-81.04 120.56,-136.36 198.14,-206.06 -139.86,34.35 -279.75,68.74 -419.67,103.15 -96.15,50.73 -192.34,101.51 -288.48,152.28 -152.12,104.28 -308.67,356.87 -103.44,550.01z"/>
  <path class="fil1" d="M11846.97 5612.1c6.63,-3.7 13.27,-7.43 19.9,-11.13 32.35,-94.25 80.7,-234.87 187.19,-304.25l2.85 5.16c-42.33,100.2 -116.08,190.79 -107.47,307.34 116.71,-72.28 260.1,-123.6 336.59,-206.37 102.13,-110.58 116.65,-265.2 174.39,-390.13 37.5,-81.05 120.56,-136.37 198.13,-206.06 -139.86,34.34 -279.74,68.74 -419.66,103.15 -96.16,50.73 -192.34,101.51 -288.49,152.28 -152.11,104.28 -308.67,356.87 -103.43,550.01z"/>
  <path class="fil1" d="M5004.42 6193.28l-2.2 -5.34c-183.94,-133.23 -428.89,-212 -592.84,-376.02 12.62,3.29 25.19,6.62 37.77,9.95 95.24,84.45 416.58,263.06 557.63,290.48 -33.98,-119.76 -4.1,-268.05 -108.55,-406.41 -136.03,-180.24 -408.48,-235.98 -638.79,-303.61 -217,-63.72 -362.59,-188.75 -544.14,-298.82 20.62,124.97 41.21,250.01 61.84,375.01 96.99,522.37 675.84,726.93 1229.28,714.76z"/>
  <path class="fil1" d="M7180.53 5381.68l-14.07 -5.51c-94.21,-115.86 -324.82,-222.61 -308.97,-357.66l7.07 2.77c86.36,112.78 179.44,222.42 359.17,319.74l4.04 -4.86c13.35,-258.47 -218.31,-346.36 -483.15,-540.98l-12.04 14.48c8.05,267.84 -124.42,482.64 443.94,576.84l4.01 -4.82z"/>
  <path class="fil1" d="M10439.03 6984.27c77.75,3.25 155.51,6.48 233.31,9.73 252.43,6.22 518.52,19.97 782.78,-16.73l4.1 4.83c-361.17,98.69 -783.89,-29.62 -1072.78,61.73l4.1 4.84c352.45,196.21 767.51,249.58 1278.07,-40.85 116.69,-66.43 256.97,-115.4 334.44,-191.47 -431.41,91.05 -731.7,-104.65 -1073.21,-60.24 -112.92,14.66 -456.91,173.58 -490.81,228.16z"/>
  <path class="fil3" d="M31272.93 5928.75l104.85 -46.06c71.26,-9.74 102.94,-29.22 102.94,-58.44 0,-9.74 0,-38.95 -7.93,-38.95 -39.59,-19.48 -55.42,-29.22 -63.34,-29.22 -39.59,0 -126.69,9.74 -158.36,19.48 -63.35,19.48 -150.45,-9.74 -261.3,29.22 -55.43,19.47 -166.28,29.21 -261.3,38.95 -39.59,19.48 -182.12,9.74 -245.47,29.22 -15.83,0 -23.75,9.74 -39.59,9.74 7.92,-9.74 23.76,-9.74 23.76,-9.74 23.75,-48.7 31.67,-77.91 47.51,-136.35 7.92,-29.21 7.92,-77.91 23.75,-116.86 0,-9.74 -23.75,-29.22 -39.59,-48.7 63.35,9.74 63.35,9.74 110.86,-97.39 0,-29.22 0,-68.17 7.91,-97.38 -7.91,0 -15.83,-9.75 -15.83,-19.49 23.75,-38.95 55.42,-68.16 71.26,-107.13 39.59,-87.64 47.51,-185.03 95.02,-292.16 0,-19.48 15.84,-58.43 15.84,-87.65 0,-38.95 7.91,-68.17 39.59,-97.39 7.91,-38.96 7.91,-68.17 23.75,-77.91 31.67,-19.48 87.1,-58.43 63.35,-107.13l15.83 -29.21c31.67,-77.92 7.92,-107.14 71.26,-204.52 47.52,-126.61 102.94,-185.04 174.21,-331.13 39.59,-107.12 63.34,-136.34 118.77,-204.51 47.51,-68.17 63.34,-97.39 118.77,-194.78 79.18,-126.61 182.12,-116.87 166.28,-185.04 -7.92,-38.96 -71.26,-126.61 -79.18,-126.61 -23.76,-19.48 -197.95,-136.34 -277.13,-38.95l-134.61 214.25c-55.43,97.39 -237.55,467.47 -237.55,467.47l-15.84 48.69c-79.18,175.31 -174.2,389.56 -237.54,594.08 -55.43,107.13 -79.18,223.99 -126.69,350.61 -87.1,214.25 -150.45,428.51 -213.79,623.28l-95.02 321.38 -79.18 0 -47.51 9.74c-7.92,9.75 -63.34,0 -95.02,0l-47.51 19.48 -39.59 0c-79.18,9.74 -158.36,9.74 -269.22,0 -15.83,29.22 -23.75,48.7 -15.83,68.18 7.92,58.43 15.83,68.17 15.83,58.43 7.92,0 7.92,0 15.84,9.74 0,87.65 15.84,136.34 39.59,126.6 39.59,9.74 79.18,29.22 110.85,48.7l23.76 9.74 47.51 -9.74 134.61 0 55.43 -9.74 31.67 9.74c7.92,0 15.83,-9.74 23.75,-9.74l-15.83 48.7c-7.92,48.69 -142.53,535.63 -166.29,584.33 7.92,38.96 0,87.65 -15.83,116.86 3.62,0 60.03,148.8 -55.43,243.48 -15.83,38.95 -23.76,77.91 -23.76,116.87 0,38.95 0,87.64 7.93,116.86 -15.84,48.7 -55.43,77.92 -39.6,126.61 -47.51,97.39 -23.75,243.47 -79.18,350.6 -15.83,155.82 -39.59,272.69 -63.34,418.78 0,107.12 7.92,223.99 -7.92,340.86 0,0 -15.84,0 -15.84,29.21 -15.83,48.69 7.92,126.61 -23.75,185.04 -23.76,58.43 0,87.65 0,126.61 -7.92,116.86 -47.51,233.73 0,321.38l7.92 9.74c-47.51,58.43 -47.51,126.6 -55.43,175.3 39.59,68.17 0,175.3 55.43,233.73 -55.43,48.7 -31.68,97.39 -7.92,146.09 7.92,87.65 23.75,165.56 55.43,253.21 15.83,136.34 79.18,233.73 150.44,340.86 55.42,107.13 197.96,146.09 292.97,136.35 63.35,-9.74 110.86,-38.96 166.29,-38.96 71.26,0 134.6,-58.43 174.19,-97.39 71.27,-68.17 110.86,-155.82 166.28,-243.47 0,-9.74 7.92,-9.74 7.92,-19.48 39.59,-77.91 95.02,-146.08 118.78,-223.99 63.34,-107.13 95.01,-185.04 126.69,-282.43 39.59,-116.87 55.42,-233.73 102.93,-350.6 7.92,-9.74 7.92,-48.7 7.92,-77.91 230.78,-236.54 -156.1,-2220.45 -110.85,-2415.25 -15.84,-48.7 -87.1,-9.75 -102.94,-87.66 7.92,-9.74 -23.75,-29.21 -31.67,-48.69 -23.76,-58.43 -55.43,-97.39 -79.18,-155.83l-47.51 0 -39.59 -29.21c-23.76,-19.48 -23.76,9.74 -39.6,9.74 -15.83,9.74 -23.75,0 -31.67,0l-31.67 9.74 -39.59 -48.7 -95.02 9.74 39.59 -185.04 23.76 -146.08c15.83,-9.74 23.75,-19.48 31.67,-38.96l15.83 -9.74c15.84,-9.73 134.61,9.74 182.12,-9.73 55.43,0 166.29,-29.22 253.38,-29.22 87.1,-9.74 205.88,-38.96 237.55,-38.96 0,9.75 15.84,9.75 31.67,-9.74 15.84,48.7 95.02,-9.73 150.45,-19.48l21.84 -138.97zm-1803.43 -2052.28c-31.67,-87.65 -87.1,-185.04 -150.45,-243.47 -190.03,-175.3 -530.52,-204.52 -775.98,-175.3 -332.56,38.95 -570.11,155.82 -1029.36,418.77 -182.12,107.13 -332.57,243.47 -498.84,399.3 -126.7,116.86 -237.55,253.21 -316.73,418.77 -158.37,292.17 -182.12,623.29 -55.43,973.89 110.86,321.39 403.83,584.34 546.36,691.46 158.36,126.61 316.72,262.96 490.92,370.09 253.38,146.08 498.85,331.11 704.72,564.85 118.77,136.35 229.62,272.69 292.97,457.73 79.18,204.52 47.51,389.55 -39.59,555.11 -71.26,136.35 -174.2,272.7 -285.06,360.34 -277.13,224 -688.87,477.21 -1116.46,555.12 -182.11,38.96 -364.23,48.7 -546.35,38.96 -150.45,-9.74 -308.81,-68.17 -467.17,-185.04 -221.71,-165.56 -308.81,-603.82 -292.98,-895.98 23.76,-379.82 221.71,-574.59 483.01,-671.99 134.61,-58.43 -102.94,-350.59 -292.97,-233.73 -39.59,19.48 -221.71,107.13 -364.24,292.17 15.84,0 23.76,9.74 23.76,19.48l-55.43 29.21c-87.1,136.35 -150.45,301.91 -142.52,535.65 23.75,671.98 395.91,1168.66 973.93,1295.27 340.48,68.17 680.96,77.91 1021.44,9.74 506.77,-97.39 1108.55,-418.78 1346.09,-827.81 102.94,-185.04 142.53,-389.56 71.27,-633.03 -95.02,-282.43 -229.63,-525.9 -419.67,-730.42 -245.46,-262.95 -514.68,-477.2 -807.65,-662.25 -55.43,-38.95 -110.85,-68.16 -166.28,-116.86 -134.61,-97.39 -285.06,-194.78 -419.67,-311.65 -261.29,-253.21 -443.41,-662.24 -245.46,-1110.23 205.87,-438.26 570.11,-642.77 688.89,-769.37l190.03 -175.31c15.84,-68.17 39.59,-97.39 79.18,-97.39 31.67,0 87.1,-19.48 110.86,-38.95 31.67,-19.48 47.51,-38.96 79.18,-68.17 31.67,-68.17 126.69,-107.13 269.21,-87.66 -7.91,-9.73 0,-38.95 15.84,-38.95 63.35,-29.22 142.53,-29.22 213.79,-48.69 0,0 102.94,19.47 150.45,-19.48l142.53 19.48c87.09,9.74 229.62,107.13 285.05,243.47 63.34,155.82 63.34,301.9 47.51,457.73 -31.67,282.43 -102.94,389.56 -253.38,564.86 -102.94,126.6 -205.88,165.56 -182.12,243.46 118.77,243.48 253.38,185.05 419.66,29.22 332.57,-340.86 443.42,-934.93 277.14,-1402.4zm5613.99 4090.34c118.77,58.44 253.38,58.44 380.07,-19.47 126.69,-68.18 253.38,-194.78 348.4,-282.43 15.84,-9.74 23.75,-38.96 39.59,-58.43 55.43,0 55.43,-97.4 110.85,-136.35 7.92,19.48 7.92,38.95 23.76,48.69 23.75,48.7 15.83,68.18 63.35,126.61 31.66,87.65 87.09,126.61 134.6,204.51 23.76,9.75 39.59,48.7 63.35,58.44 15.83,19.48 63.34,19.48 79.18,29.22 31.67,9.74 102.94,-9.74 134.61,-9.74 23.76,0 63.35,-19.48 71.26,-19.48 23.76,0 63.35,-19.47 79.18,-29.22 39.59,-29.22 63.35,-19.47 110.86,-48.69 79.18,-68.17 150.44,-87.65 213.79,-175.3 31.67,-48.69 87.1,-87.65 126.69,-126.6l0 -19.49c213.79,-282.43 203.35,-270.24 213.79,-282.43 23.76,-9.73 47.51,-9.73 55.43,-19.47 39.59,-19.48 71.26,-68.17 95.02,-97.39 23.75,-19.48 79.18,-48.7 118.77,-87.65 102.93,-87.65 229.63,-165.56 308.81,-311.65 -39.59,-19.48 -39.59,19.49 -39.59,38.96 -47.51,38.96 -47.51,38.96 -63.35,-9.74l71.26 -116.86 -23.75 -19.49c-79.18,58.44 -142.52,107.13 -197.95,165.57 -182.12,146.08 -166.29,126.61 -356.32,272.69 -110.86,97.39 -229.63,185.03 -332.57,262.95 -110.85,97.39 -237.54,214.25 -364.23,282.43 -31.68,19.48 -63.34,19.48 -87.1,29.21 -23.76,9.74 -39.59,9.74 -55.43,0 -39.59,-29.21 -63.34,-68.17 -71.26,-107.13 -47.51,-136.34 -47.51,-282.43 -23.76,-418.77 7.92,-19.47 7.92,-38.95 15.84,-48.69 23.75,-77.91 15.84,-185.04 15.84,-185.04 -15.84,-68.17 -47.51,-116.87 -95.02,-136.35 -95.02,-9.74 -150.45,68.18 -213.79,77.91 39.59,-97.38 102.93,-185.03 79.18,-321.38 -31.68,-223.99 -221.71,-262.95 -387.99,-301.91 -150.45,19.48 -285.06,136.35 -380.07,262.95 -95.02,146.09 -197.96,262.96 -285.06,428.52 -15.84,19.47 -31.67,68.17 -63.34,116.86l-55.43 116.87c-15.84,68.17 -39.59,116.87 -47.51,175.3 0,9.74 0,9.74 -7.92,19.48 -15.84,58.44 -31.67,107.13 -55.43,175.3 -31.67,146.08 -7.91,272.69 63.35,389.56 47.51,29.22 110.85,77.91 126.69,97.39 23.75,9.73 47.51,9.73 63.35,9.73zm-15.84 -282.43c39.59,-194.77 110.85,-360.33 182.12,-516.16 87.1,-185.04 364.23,-642.77 601.78,-691.46 -7.92,9.74 -71.27,438.25 102.94,457.73l7.91 0c0,0 -31.67,48.69 -39.59,48.69 -118.77,155.83 -174.2,272.69 -292.97,428.52 -79.18,107.12 -150.44,175.3 -253.38,223.99 -79.18,38.96 -221.71,48.69 -308.81,48.69zm-3375.51 -409.04c15.83,-77.91 31.67,-146.08 55.43,-204.52 47.5,-116.86 102.93,-233.73 166.28,-340.86 55.43,-87.65 126.69,-136.34 197.95,-204.51 63.35,-58.43 134.61,-58.43 205.87,-97.4 31.68,-19.47 71.27,68.18 47.51,116.87 -31.67,68.18 -63.34,126.61 -110.85,175.3 -71.27,87.66 -134.61,155.82 -213.79,233.74 0,67.15 0,0 -174.2,214.25 -7.92,9.75 -23.76,0 -39.59,0 -31.68,29.22 -71.27,58.44 -134.61,107.13zm1863.14 837.56c63.34,29.21 95.02,9.74 110.85,-107.13 15.84,-68.17 15.84,-136.34 31.67,-204.52 23.76,-87.65 31.68,-175.3 63.35,-272.68 31.67,-116.87 79.18,-224 142.53,-360.35 55.42,-116.86 118.77,-214.25 174.2,-311.64 55.42,-87.65 118.77,-165.57 166.28,-243.47 39.59,-48.7 87.1,-97.4 134.61,-146.09 15.83,-29.22 31.67,-68.17 55.42,-77.91 47.52,-38.96 95.02,-58.43 126.7,-107.13 47.5,-48.69 95.02,-38.95 142.52,-38.95 102.94,58.43 150.45,29.22 150.45,29.22l7.92 -48.7c-15.84,-48.7 -31.68,-87.65 -63.35,-116.86 -15.84,0 -23.75,-19.49 -31.67,-29.22 -31.67,-38.96 -71.26,-77.91 -110.85,-116.87 -95.02,-68.18 -205.88,-68.18 -308.81,29.22 -87.1,68.17 -174.21,146.08 -245.47,272.68 -55.42,68.18 -102.93,116.87 -142.53,204.52 -7.91,29.22 -39.59,58.43 -63.34,97.39 0,-48.7 15.84,-77.91 15.84,-107.13 7.91,-87.65 0,-175.3 -23.76,-253.21 -31.67,-146.08 -95.02,-194.78 -174.2,-155.82 -23.75,0 -55.43,19.47 -71.26,48.69 -7.92,9.75 -7.92,48.7 -15.84,68.18 -15.83,136.34 -39.59,262.95 -55.43,399.29 -18.72,149.66 -58.46,360.7 -90.35,545.91 -144.02,56.8 -370.87,163.18 -582.69,281.9 -84.02,47.09 -173.75,117.74 -261.3,185.04 -39.15,30.09 -79.18,29.22 -118.77,48.69 -63.35,29.22 -126.69,68.18 -182.12,97.39 -71.26,29.22 -142.53,68.17 -213.79,77.91 -102.94,19.48 -205.87,9.74 -308.81,19.48 -63.35,-29.22 -79.18,-48.69 -110.85,-165.56 55.42,-38.96 79.18,-48.69 142.52,-87.65 15.84,-19.48 31.68,-48.7 55.43,-58.44 47.51,-38.95 110.85,-68.17 166.28,-107.12 7.92,-9.74 7.92,-38.96 15.84,-48.69 31.67,-19.48 55.42,-29.22 79.18,-48.7 0,0 -7.92,-9.74 -23.76,-9.74l55.43 -38.96c31.67,-19.47 87.1,-29.22 95.02,-97.38 7.92,-29.22 55.43,-38.96 79.18,-68.18 71.27,-87.65 142.53,-175.3 213.79,-272.69 23.75,-29.21 47.51,-77.91 63.35,-126.61 23.75,-77.9 -15.84,-243.46 -79.19,-292.16 -55.42,-58.43 -118.77,-116.87 -190.03,-155.82 -55.43,-38.96 -126.69,-107.13 -205.87,-68.18 -31.68,9.74 -55.43,19.48 -79.19,19.48 -102.93,9.74 -190.03,68.17 -261.3,155.82 -71.26,97.4 -142.52,194.78 -213.79,301.91 -39.59,58.43 -71.26,116.87 -102.93,175.3 -79.19,185.04 -118.78,370.08 -126.69,564.86 0,68.17 -7.92,136.35 31.67,253.21 15.83,97.39 15.83,97.39 31.67,116.87 47.51,87.64 79.18,146.08 134.61,194.78 7.92,9.73 31.67,19.48 39.59,38.95 79.19,77.91 110.86,87.65 182.12,116.87 71.27,29.21 158.36,48.69 237.55,58.43 63.34,9.74 118.77,-9.74 182.11,-29.22 39.6,-9.74 87.11,-19.47 118.78,-38.95 23.75,-19.48 39.59,-29.22 71.26,-29.22 55.43,-9.73 110.85,-9.73 158.37,-38.95 79.18,-38.96 144.66,-102.69 213.78,-155.83 57.76,-44.39 111.67,-71.14 166.29,-126.6l505.93 -513.76c-2.5,15.87 -4.88,31.33 -7.09,46.29l-63.34 399.29c-23.76,126.61 15.83,224 47.5,321.39l31.68 -58.43c15.84,-9.74 31.67,9.74 31.67,9.74 0,87.64 7.92,126.6 55.43,155.82zm-3745.3 1217.37l15.83 -379.83c33.06,-142.27 0,0 39.6,-126.6 0,-6.2 -8.44,-0.69 -7.92,-194.78 0.19,-72.37 15.84,-52.78 15.84,-77.91 47.5,-253.21 79.18,-496.68 126.69,-769.37 18.29,-81.04 4.77,11.51 31.67,-136.35 39.59,-58.43 -15.84,-87.65 -23.75,-136.35 95.01,-68.17 87.1,-223.99 126.69,-350.59 23.75,-58.44 39.59,-136.35 47.5,-194.78 31.68,-77.92 47.52,-155.83 47.52,-194.78l39.59 -175.3 63.34 48.69 158.36 233.74c118.78,223.99 158.37,370.08 213.8,681.72l23.75 370.08c15.84,155.82 7.92,301.91 -15.84,438.25 7.92,116.87 0,223.99 -7.91,340.86 -23.76,136.35 -47.52,292.17 -79.19,438.25 -47.51,224 -87.1,428.51 -182.12,662.25 -71.26,146.08 -150.44,282.42 -261.3,409.04 -47.5,87.64 -95.01,107.12 -158.36,126.6l-95.02 29.21c-55.42,9.75 -55.42,-58.43 -71.26,-97.38 -31.68,-58.43 -47.51,-136.35 -47.51,-214.26l-15.83 -146.08c0,-9.74 -23.76,-38.96 -15.84,-58.44 39.59,-48.69 -7.92,-116.86 15.84,-155.82l-15.84 0c15.84,-38.96 7.91,-214.26 0,-233.74 15.84,-58.43 31.67,-97.38 31.67,-136.33z"/>
  <path class="fil4" d="M22145.48 7652.01c0,-97.38 0,-214.25 31.67,-311.64 7.92,-48.69 7.92,-97.39 23.76,-155.82 7.91,-38.96 23.75,-136.35 47.5,-175.3 39.59,-97.4 79.18,-175.3 118.78,-253.21 7.92,38.95 23.75,77.91 39.59,107.12 15.83,58.44 55.43,107.13 110.85,146.09 63.35,58.43 150.45,107.13 229.63,126.6 39.59,19.48 102.94,29.22 142.53,29.22 39.59,19.48 55.42,29.21 23.75,77.91 -39.59,68.17 -55.43,146.08 -87.1,204.52 -39.59,77.91 -87.1,146.08 -134.61,204.51 -87.1,107.13 -197.95,204.52 -316.72,243.48 -102.94,48.69 -197.96,9.74 -205.88,-68.17 -7.92,-58.44 -23.75,-107.13 -23.75,-175.31zm498.84 -915.45c7.92,-87.65 63.35,-126.61 110.86,-175.3 23.75,-29.22 63.34,-48.7 110.85,-48.7 23.76,-9.74 39.59,-9.74 55.43,19.48 39.59,77.91 47.51,175.3 63.34,253.21 0,58.44 -7.91,116.87 0,165.57l-221.71 0c-47.5,0 -71.26,-9.75 -87.09,-58.44 -23.76,-48.69 -31.68,-107.13 -31.68,-155.82zm-4434.47 2759.26c126.7,-19.47 316.73,-9.74 443.42,-38.95 292.98,-58.43 459.26,-107.13 744.31,-301.91 158.36,-107.13 285.06,-214.25 419.66,-360.34 7.92,0 0,-19.47 7.92,-48.69 31.67,-19.48 63.35,-58.43 95.02,-97.39 324.65,-486.95 292.97,-1071.28 -7.92,-1441.36 -300.89,-370.08 -704.71,-506.42 -1132.3,-447.99l0 -19.48c292.97,-214.26 506.77,-379.82 744.31,-545.38 63.35,-48.69 126.69,-87.64 174.2,-146.08 63.35,-68.18 134.61,-126.61 150.45,-224 23.75,0 47.5,0 63.34,-9.74 63.34,-58.43 126.69,-107.12 174.2,-155.82 63.35,-107.13 166.28,-175.3 182.12,-321.38 0,-9.74 7.92,-19.48 23.75,-19.48 23.76,-126.61 79.18,-243.47 158.36,-243.47 -63.34,68.17 -87.09,146.08 -87.09,194.77 1029.36,-1305.01 -39.59,-2571.07 -1520.29,-1928.3 -894.76,389.56 -1932.04,1256.32 -2343.78,2054.91 -134.61,253.22 -87.1,759.64 308.81,769.38 63.34,-9.74 126.69,-48.7 213.79,-116.87 -79.18,-19.48 -126.7,-19.48 -166.29,-38.96 -47.5,-9.73 -79.18,-38.95 -71.26,-97.38 7.92,-87.66 31.67,-165.57 79.19,-233.74 158.36,-243.47 308.8,-467.47 490.92,-681.72 419.67,-516.17 1148.13,-1022.59 1694.49,-1236.85 989.77,-399.29 1757.83,29.22 1314.42,925.2 -110.86,233.74 -261.3,447.99 -427.59,633.03 -395.9,438.25 -807.65,808.33 -1266.9,1110.24 -261.3,175.29 -918.51,457.72 -1124.38,516.16 340.48,-944.67 562.19,-1490.05 530.52,-1606.92 -63.35,-126.61 -126.7,-165.56 -245.47,-155.82 -118.77,155.82 -174.2,350.6 -253.38,535.64 -134.61,340.86 -221.71,701.2 -332.56,1061.54 -39.59,107.12 -47.51,243.47 -102.94,331.12 -63.35,107.13 -23.75,214.26 -63.35,321.39 -47.5,165.56 -63.34,331.12 -95.01,496.68 -39.59,331.12 -87.11,681.72 -87.11,1022.58 -7.91,204.52 7.93,438.26 102.94,603.82 15.84,29.21 0,68.17 47.51,68.17 142.53,-97.39 87.1,-214.26 118.78,-340.86 95.02,9.73 166.27,29.22 221.7,48.7 79.18,38.95 142.53,58.43 229.63,87.64 55.43,19.48 127.23,34.2 197.96,48.69 72,14.77 304.15,20.75 375.41,30.48l20.49 -1.26zm3830.6 -2801.3c-118.78,136.35 -453.29,517.3 -576.23,658.75 -122.66,141.13 -261.3,282.42 -387.99,418.77 -63.34,68.17 -134.61,107.12 -221.7,136.34 7.91,-97.39 31.67,-185.04 31.67,-272.69 7.92,-97.39 55.42,-185.04 31.67,-272.69 0,-19.48 7.92,-29.21 15.84,-48.69 7.91,-38.96 23.75,-77.91 39.59,-116.87 31.67,-126.6 63.34,-243.47 87.1,-360.34 15.83,-48.69 31.67,-97.39 31.67,-155.82 7.92,-48.7 7.92,-107.13 -7.92,-146.08 -15.84,-38.96 -55.43,-77.92 -87.1,-107.13 -23.75,-48.7 -79.18,-77.92 -102.93,-126.61 -23.76,-48.69 -47.51,-29.21 -71.27,-19.48 -31.67,0 -39.59,29.22 -31.67,68.17l0 77.92c-39.59,185.04 -79.18,350.6 -110.86,525.9 -31.67,126.6 -63.34,253.21 -79.18,379.82 -39.59,175.29 -71.26,360.34 -55.43,525.9 7.92,38.95 31.68,58.43 39.6,97.39 15.83,19.48 31.67,48.69 39.59,77.91 7.92,19.48 7.92,48.69 23.75,58.43 55.43,48.69 87.1,136.35 166.29,155.82 55.42,19.48 95.01,48.7 158.36,29.22 55.42,-38.96 110.85,-68.17 158.36,-97.39 47.51,-19.48 95.02,-29.21 126.69,-68.17 47.51,-38.96 87.1,-77.91 118.78,-126.61 47.5,-77.91 102.93,-155.82 166.27,-204.51l39.59 -48.7c15.84,-19.48 25.26,-47.01 39.6,-68.17 25.34,-37.4 222.05,-321.26 253.72,-360.21 7.28,155.86 4.35,530.03 86.76,642.64 60.39,82.53 118.77,155.82 213.79,175.3 63.34,38.95 158.36,38.95 237.54,48.69 15.84,9.74 47.52,9.74 79.18,0 71.27,-29.22 126.7,-48.69 190.04,-97.39 31.67,0 63.35,-19.47 87.1,-38.95 31.68,-48.7 79.18,-97.39 118.77,-146.08l15.84 -19.48c71.27,-97.39 110.86,-194.78 174.2,-282.43 7.92,-9.74 0,-48.7 7.92,-58.43 47.51,-38.96 47.51,-97.39 87.1,-146.09l0 -9.74 -15.84 -9.74c0,-38.95 15.84,-68.17 23.76,-97.39 0,-38.96 7.91,-58.43 47.51,-58.43 15.83,0 31.67,-9.74 55.42,-9.74 79.19,-9.74 142.53,-19.48 229.63,-68.17l110.85 -58.43c39.59,-19.48 102.94,-19.48 110.86,-77.92 0,-9.74 7.92,-9.74 15.84,-9.74l55.42 0c31.68,0 31.68,-38.95 63.35,-68.17 47.51,-38.95 110.85,-97.39 190.03,-146.08l-55.42 -29.22c39.59,-9.73 47.51,-19.48 71.26,-38.95l0 -87.65 -7.92 -9.75c-197.95,87.65 -292.97,116.87 -411.74,175.31 -134.61,58.43 -277.14,107.12 -419.66,175.3 -7.92,-9.74 0,-19.48 0,-29.22 -23.76,-9.74 -31.68,-38.96 -47.52,-48.69l23.76 0c-15.84,-38.96 -23.76,-48.7 -39.59,-58.44 15.83,-9.74 23.75,-19.48 39.59,-19.48 -15.84,-38.95 -7.92,-97.38 -71.26,-97.38 0,0 -15.84,-29.22 -15.84,-38.96 23.75,-9.74 31.67,-9.74 47.51,-9.74 7.92,0 31.67,19.48 31.67,0 -55.43,-38.95 -95.02,-97.39 -142.53,-146.08 -15.83,-9.74 -47.5,-9.74 -55.42,-19.48 -95.02,-97.39 -205.87,-97.39 -285.06,-136.35 -15.83,-9.73 -31.67,-9.73 -39.59,-19.47 -31.67,-38.96 -47.51,-87.65 -87.1,-87.65 -63.34,0 -142.53,-9.74 -213.79,29.22 -95.02,58.43 -174.2,136.34 -245.46,223.99 -33.21,40.85 -58.69,110.25 -89.95,181.6 -2.16,4.93 -4.46,10.51 -6.87,16.68zm-4852.04 2061.15c0,-224 150.45,-934.94 182.12,-1081.02 23.75,-116.87 39.59,-194.78 71.26,-282.43 39.59,-9.74 166.28,-58.43 261.3,-87.65 395.91,-116.87 823.49,-311.65 1441.11,-204.52 285.05,48.69 443.42,165.56 554.27,409.03 150.45,340.86 31.67,779.12 -182.12,1051.81 -356.32,447.99 -736.39,584.33 -1219.4,623.29 -340.48,29.22 -688.88,-87.65 -839.32,-136.35 -55.43,-19.47 -269.22,-97.39 -269.22,-292.16zm3848.23 -3048.28c47.51,38.95 95.02,38.95 134.61,19.47 71.27,-58.43 142.53,-116.86 174.2,-223.99 31.68,-107.13 0,-214.25 -23.75,-311.65 -15.84,-68.17 -63.35,-97.38 -150.45,-87.65 0,0 -31.67,0 -39.59,9.74 -102.94,68.18 -190.04,136.34 -229.63,282.43 -15.83,97.39 0,175.3 47.51,243.47 23.76,29.22 63.35,48.7 87.1,68.18z"/>
  <path class="fil1" d="M5661.84 3955.31c48.61,-28.51 63.29,-104.9 81.16,-154.36 129.12,-356.74 -75.64,-505.74 -244.69,-876.41 -43.79,-95.98 -23.6,-178.02 -56.54,-270.93 -331.77,302.79 -375.52,917.21 220.07,1301.7z"/>
  <path class="fil2" d="M5571.63 3713.43c39.98,77.88 123.62,161.78 97.06,233.29 -5.33,-2.12 -10.64,-4.24 -15.98,-6.33 -125.51,-194.64 -252.12,-525.26 -226.2,-702.44 62.25,159.94 60.76,311.01 145.12,475.48z"/>
 </g>
</svg>
